<?xml version="1.0" encoding="UTF-8" standalone="no"?>
<!-- Created with Inkscape (http://www.inkscape.org/) -->

<svg
   width="1280"
   height="720"
   viewBox="0 0 338.66667 190.5"
   version="1.1"
   id="svg1"
   inkscape:version="1.3.1 (91b66b0, 2023-11-16)"
   sodipodi:docname="stim-from-drawing.svg"
   xml:space="preserve"
   inkscape:export-filename="stim-from-drawing.png"
   inkscape:export-xdpi="96"
   inkscape:export-ydpi="96"
   xmlns:inkscape="http://www.inkscape.org/namespaces/inkscape"
   xmlns:sodipodi="http://sodipodi.sourceforge.net/DTD/sodipodi-0.dtd"
   xmlns:xlink="http://www.w3.org/1999/xlink"
   xmlns="http://www.w3.org/2000/svg"
   xmlns:svg="http://www.w3.org/2000/svg"><sodipodi:namedview
     id="namedview1"
     pagecolor="#808080"
     bordercolor="#999999"
     borderopacity="1"
     inkscape:showpageshadow="2"
     inkscape:pageopacity="0"
     inkscape:pagecheckerboard="0"
     inkscape:deskcolor="#d1d1d1"
     inkscape:document-units="mm"
     inkscape:zoom="0.30790709"
     inkscape:cx="422.20529"
     inkscape:cy="797.31845"
     inkscape:window-width="760"
     inkscape:window-height="730"
     inkscape:window-x="17"
     inkscape:window-y="38"
     inkscape:window-maximized="0"
     inkscape:current-layer="layer1"
     inkscape:export-bgcolor="#808080ff" /><defs
     id="defs1"><rect
       x="3795.2483"
       y="-1219.6147"
       width="1123.3293"
       height="1572.661"
       id="rect385" /><rect
       x="2695.9905"
       y="-1115.3055"
       width="986.92505"
       height="922.7348"
       id="rect384" /><rect
       x="83.346497"
       y="1069.6134"
       width="930.70251"
       height="125.01974"
       id="rect288" /><linearGradient
       id="linearGradient285"
       inkscape:collect="always"><stop
         style="stop-color:#ffffff;stop-opacity:1;"
         offset="0.52494252"
         id="stop284" /><stop
         style="stop-color:#808080;stop-opacity:0;"
         offset="1"
         id="stop285" /></linearGradient><linearGradient
       id="linearGradient206"><stop
         style="stop-color:#808080;stop-opacity:0;"
         offset="0"
         id="stop205" /><stop
         style="stop-color:#000000;stop-opacity:1;"
         offset="0.80000001"
         id="stop206" /></linearGradient><linearGradient
       id="linearGradient204"><stop
         style="stop-color:#808080;stop-opacity:0;"
         offset="0"
         id="stop203" /><stop
         style="stop-color:#000000;stop-opacity:1;"
         offset="0.80000001"
         id="stop204" /></linearGradient><linearGradient
       id="linearGradient202"><stop
         style="stop-color:#808080;stop-opacity:0;"
         offset="0"
         id="stop201" /><stop
         style="stop-color:#000000;stop-opacity:1;"
         offset="0.80000001"
         id="stop202" /></linearGradient><linearGradient
       id="linearGradient200"><stop
         style="stop-color:#808080;stop-opacity:0;"
         offset="0"
         id="stop199" /><stop
         style="stop-color:#000000;stop-opacity:1;"
         offset="0.80000001"
         id="stop200" /></linearGradient><linearGradient
       id="linearGradient198"><stop
         style="stop-color:#808080;stop-opacity:0;"
         offset="0"
         id="stop197" /><stop
         style="stop-color:#000000;stop-opacity:1;"
         offset="0.80000001"
         id="stop198" /></linearGradient><linearGradient
       id="linearGradient196"><stop
         style="stop-color:#808080;stop-opacity:0;"
         offset="0"
         id="stop195" /><stop
         style="stop-color:#000000;stop-opacity:1;"
         offset="0.80000001"
         id="stop196" /></linearGradient><linearGradient
       id="linearGradient194"><stop
         style="stop-color:#808080;stop-opacity:0;"
         offset="0"
         id="stop193" /><stop
         style="stop-color:#000000;stop-opacity:1;"
         offset="0.80000001"
         id="stop194" /></linearGradient><linearGradient
       id="linearGradient192"><stop
         style="stop-color:#808080;stop-opacity:0;"
         offset="0"
         id="stop191" /><stop
         style="stop-color:#000000;stop-opacity:1;"
         offset="0.79852217"
         id="stop192" /></linearGradient><linearGradient
       id="linearGradient190"><stop
         style="stop-color:#808080;stop-opacity:0;"
         offset="0"
         id="stop189" /><stop
         style="stop-color:#000000;stop-opacity:1;"
         offset="0.80032843"
         id="stop190" /></linearGradient><linearGradient
       id="linearGradient188"><stop
         style="stop-color:#808080;stop-opacity:0;"
         offset="0"
         id="stop187" /><stop
         style="stop-color:#000000;stop-opacity:1;"
         offset="0.80000001"
         id="stop188" /></linearGradient><linearGradient
       id="linearGradient186"><stop
         style="stop-color:#808080;stop-opacity:0;"
         offset="0"
         id="stop185" /><stop
         style="stop-color:#000000;stop-opacity:1;"
         offset="0.80000001"
         id="stop186" /></linearGradient><linearGradient
       id="linearGradient184"><stop
         style="stop-color:#808080;stop-opacity:0;"
         offset="0"
         id="stop183" /><stop
         style="stop-color:#000000;stop-opacity:1;"
         offset="0.80000001"
         id="stop184" /></linearGradient><linearGradient
       id="linearGradient182"><stop
         style="stop-color:#808080;stop-opacity:0;"
         offset="0"
         id="stop181" /><stop
         style="stop-color:#000000;stop-opacity:1;"
         offset="0.80000001"
         id="stop182" /></linearGradient><linearGradient
       id="linearGradient180"><stop
         style="stop-color:#808080;stop-opacity:0;"
         offset="0"
         id="stop179" /><stop
         style="stop-color:#000000;stop-opacity:1;"
         offset="0.80000001"
         id="stop180" /></linearGradient><linearGradient
       id="linearGradient178"><stop
         style="stop-color:#808080;stop-opacity:0;"
         offset="0"
         id="stop177" /><stop
         style="stop-color:#000000;stop-opacity:1;"
         offset="0.80000001"
         id="stop178" /></linearGradient><linearGradient
       id="linearGradient166"><stop
         style="stop-color:#000000;stop-opacity:1;"
         offset="0"
         id="stop165" /><stop
         style="stop-color:#808080;stop-opacity:0;"
         offset="1"
         id="stop166" /></linearGradient><linearGradient
       id="linearGradient161"><stop
         style="stop-color:#000000;stop-opacity:1;"
         offset="0"
         id="stop160" /><stop
         style="stop-color:#808080;stop-opacity:0;"
         offset="1"
         id="stop161" /></linearGradient><linearGradient
       id="linearGradient159"><stop
         style="stop-color:#000000;stop-opacity:1;"
         offset="0"
         id="stop158" /><stop
         style="stop-color:#808080;stop-opacity:0;"
         offset="1"
         id="stop159" /></linearGradient><linearGradient
       id="linearGradient157"><stop
         style="stop-color:#000000;stop-opacity:1;"
         offset="0"
         id="stop156" /><stop
         style="stop-color:#808080;stop-opacity:0;"
         offset="1"
         id="stop157" /></linearGradient><linearGradient
       id="linearGradient155"><stop
         style="stop-color:#000000;stop-opacity:1;"
         offset="0"
         id="stop154" /><stop
         style="stop-color:#808080;stop-opacity:0;"
         offset="1"
         id="stop155" /></linearGradient><linearGradient
       id="linearGradient153"><stop
         style="stop-color:#000000;stop-opacity:1;"
         offset="0"
         id="stop152" /><stop
         style="stop-color:#808080;stop-opacity:0;"
         offset="1"
         id="stop153" /></linearGradient><linearGradient
       id="linearGradient151"><stop
         style="stop-color:#000000;stop-opacity:1;"
         offset="0"
         id="stop150" /><stop
         style="stop-color:#808080;stop-opacity:0;"
         offset="1"
         id="stop151" /></linearGradient><linearGradient
       id="linearGradient149"><stop
         style="stop-color:#000000;stop-opacity:1;"
         offset="0"
         id="stop148" /><stop
         style="stop-color:#808080;stop-opacity:0;"
         offset="1"
         id="stop149" /></linearGradient><linearGradient
       id="linearGradient147"><stop
         style="stop-color:#000000;stop-opacity:1;"
         offset="0"
         id="stop146" /><stop
         style="stop-color:#808080;stop-opacity:0;"
         offset="1"
         id="stop147" /></linearGradient><linearGradient
       id="linearGradient145"><stop
         style="stop-color:#000000;stop-opacity:1;"
         offset="0"
         id="stop144" /><stop
         style="stop-color:#808080;stop-opacity:0;"
         offset="1"
         id="stop145" /></linearGradient><linearGradient
       id="linearGradient143"><stop
         style="stop-color:#000000;stop-opacity:1;"
         offset="0"
         id="stop142" /><stop
         style="stop-color:#808080;stop-opacity:0;"
         offset="1"
         id="stop143" /></linearGradient><linearGradient
       id="linearGradient141"><stop
         style="stop-color:#000000;stop-opacity:1;"
         offset="0"
         id="stop140" /><stop
         style="stop-color:#808080;stop-opacity:0;"
         offset="1"
         id="stop141" /></linearGradient><linearGradient
       id="linearGradient139"><stop
         style="stop-color:#000000;stop-opacity:1;"
         offset="0"
         id="stop138" /><stop
         style="stop-color:#808080;stop-opacity:0;"
         offset="1"
         id="stop139" /></linearGradient><linearGradient
       id="linearGradient137"><stop
         style="stop-color:#000000;stop-opacity:1;"
         offset="0"
         id="stop136" /><stop
         style="stop-color:#808080;stop-opacity:0;"
         offset="1"
         id="stop137" /></linearGradient><linearGradient
       id="linearGradient135"><stop
         style="stop-color:#000000;stop-opacity:1;"
         offset="0"
         id="stop134" /><stop
         style="stop-color:#808080;stop-opacity:0;"
         offset="1"
         id="stop135" /></linearGradient><linearGradient
       id="linearGradient134"><stop
         style="stop-color:#000000;stop-opacity:1;"
         offset="0"
         id="stop105" /><stop
         style="stop-color:#808080;stop-opacity:0;"
         offset="1"
         id="stop106" /></linearGradient><linearGradient
       id="linearGradient34"><stop
         style="stop-color:#000000;stop-opacity:1;"
         offset="0"
         id="stop33" /><stop
         style="stop-color:#808080;stop-opacity:0;"
         offset="1"
         id="stop34" /></linearGradient><linearGradient
       id="linearGradient30"><stop
         style="stop-color:#000000;stop-opacity:1;"
         offset="0"
         id="stop29" /><stop
         style="stop-color:#fcfcfc;stop-opacity:0.5;"
         offset="1"
         id="stop30" /></linearGradient><linearGradient
       id="linearGradient102"><stop
         style="stop-color:#000000;stop-opacity:1;"
         offset="0"
         id="stop102" /><stop
         style="stop-color:#f7f7f7;stop-opacity:1;"
         offset="1"
         id="stop101" /></linearGradient><linearGradient
       id="linearGradient100"><stop
         style="stop-color:#000000;stop-opacity:1;"
         offset="0"
         id="stop100" /><stop
         style="stop-color:#f7f7f7;stop-opacity:1;"
         offset="1"
         id="stop99" /></linearGradient><linearGradient
       id="linearGradient98"><stop
         style="stop-color:#000000;stop-opacity:1;"
         offset="0"
         id="stop98" /><stop
         style="stop-color:#f7f7f7;stop-opacity:1;"
         offset="1"
         id="stop97" /></linearGradient><linearGradient
       id="linearGradient96"><stop
         style="stop-color:#000000;stop-opacity:1;"
         offset="0"
         id="stop96" /><stop
         style="stop-color:#f7f7f7;stop-opacity:1;"
         offset="1"
         id="stop95" /></linearGradient><linearGradient
       id="linearGradient94"><stop
         style="stop-color:#000000;stop-opacity:1;"
         offset="0"
         id="stop94" /><stop
         style="stop-color:#f7f7f7;stop-opacity:1;"
         offset="1"
         id="stop93" /></linearGradient><linearGradient
       id="linearGradient92"><stop
         style="stop-color:#000000;stop-opacity:1;"
         offset="0"
         id="stop92" /><stop
         style="stop-color:#f7f7f7;stop-opacity:1;"
         offset="1"
         id="stop91" /></linearGradient><linearGradient
       id="linearGradient90"><stop
         style="stop-color:#000000;stop-opacity:1;"
         offset="0"
         id="stop90" /><stop
         style="stop-color:#f7f7f7;stop-opacity:1;"
         offset="1"
         id="stop89" /></linearGradient><linearGradient
       id="linearGradient88"><stop
         style="stop-color:#000000;stop-opacity:1;"
         offset="0"
         id="stop88" /><stop
         style="stop-color:#f7f7f7;stop-opacity:1;"
         offset="1"
         id="stop87" /></linearGradient><linearGradient
       id="linearGradient86"><stop
         style="stop-color:#000000;stop-opacity:1;"
         offset="0"
         id="stop86" /><stop
         style="stop-color:#f7f7f7;stop-opacity:1;"
         offset="1"
         id="stop85" /></linearGradient><linearGradient
       id="linearGradient84"><stop
         style="stop-color:#000000;stop-opacity:1;"
         offset="0"
         id="stop84" /><stop
         style="stop-color:#f7f7f7;stop-opacity:1;"
         offset="1"
         id="stop83" /></linearGradient><linearGradient
       id="linearGradient82"><stop
         style="stop-color:#000000;stop-opacity:1;"
         offset="0"
         id="stop82" /><stop
         style="stop-color:#fcfcfc;stop-opacity:1;"
         offset="1"
         id="stop81" /></linearGradient><linearGradient
       id="linearGradient80"><stop
         style="stop-color:#000000;stop-opacity:1;"
         offset="0"
         id="stop80" /><stop
         style="stop-color:#f7f7f7;stop-opacity:1;"
         offset="1"
         id="stop79" /></linearGradient><linearGradient
       id="linearGradient78"><stop
         style="stop-color:#000000;stop-opacity:1;"
         offset="0"
         id="stop78" /><stop
         style="stop-color:#f7f7f7;stop-opacity:1;"
         offset="1"
         id="stop77" /></linearGradient><linearGradient
       id="linearGradient76"><stop
         style="stop-color:#000000;stop-opacity:1;"
         offset="0"
         id="stop76" /><stop
         style="stop-color:#f7f7f7;stop-opacity:1;"
         offset="1"
         id="stop75" /></linearGradient><linearGradient
       id="linearGradient32"><stop
         style="stop-color:#000000;stop-opacity:1;"
         offset="0"
         id="stop32" /><stop
         style="stop-color:#f7f7f7;stop-opacity:1;"
         offset="1"
         id="stop31" /></linearGradient><linearGradient
       id="linearGradient28"><stop
         style="stop-color:#ededed;stop-opacity:1;"
         offset="0"
         id="stop28" /><stop
         style="stop-color:#000000;stop-opacity:1;"
         offset="1"
         id="stop27" /></linearGradient><linearGradient
       id="linearGradient26"><stop
         style="stop-color:#ededed;stop-opacity:1;"
         offset="0"
         id="stop26" /><stop
         style="stop-color:#000000;stop-opacity:1;"
         offset="1"
         id="stop25" /></linearGradient><linearGradient
       id="linearGradient24"><stop
         style="stop-color:#ededed;stop-opacity:1;"
         offset="0"
         id="stop24" /><stop
         style="stop-color:#000000;stop-opacity:1;"
         offset="1"
         id="stop23" /></linearGradient><linearGradient
       id="linearGradient22"><stop
         style="stop-color:#ededed;stop-opacity:1;"
         offset="0"
         id="stop22" /><stop
         style="stop-color:#000000;stop-opacity:1;"
         offset="1"
         id="stop21" /></linearGradient><linearGradient
       id="linearGradient20"><stop
         style="stop-color:#ededed;stop-opacity:1;"
         offset="0"
         id="stop20" /><stop
         style="stop-color:#000000;stop-opacity:1;"
         offset="1"
         id="stop19" /></linearGradient><linearGradient
       id="linearGradient16"><stop
         style="stop-color:#ededed;stop-opacity:1;"
         offset="0"
         id="stop16" /><stop
         style="stop-color:#000000;stop-opacity:1;"
         offset="1"
         id="stop15" /></linearGradient><linearGradient
       id="linearGradient14"><stop
         style="stop-color:#ededed;stop-opacity:1;"
         offset="0"
         id="stop14" /><stop
         style="stop-color:#000000;stop-opacity:1;"
         offset="1"
         id="stop13" /></linearGradient><linearGradient
       id="linearGradient12"><stop
         style="stop-color:#eeeeee;stop-opacity:1;"
         offset="0"
         id="stop12" /><stop
         style="stop-color:#1a1a1a;stop-opacity:1;"
         offset="1"
         id="stop11" /></linearGradient><linearGradient
       id="linearGradient10"><stop
         style="stop-color:#ededed;stop-opacity:1;"
         offset="0"
         id="stop37" /><stop
         style="stop-color:#000000;stop-opacity:1;"
         offset="1"
         id="stop9" /></linearGradient><linearGradient
       id="linearGradient8"><stop
         style="stop-color:#ededed;stop-opacity:1;"
         offset="0"
         id="stop8" /><stop
         style="stop-color:#000000;stop-opacity:1;"
         offset="1"
         id="stop7" /></linearGradient><linearGradient
       id="linearGradient6"><stop
         style="stop-color:#ededed;stop-opacity:1;"
         offset="0"
         id="stop6" /><stop
         style="stop-color:#1a1a1a;stop-opacity:1;"
         offset="1"
         id="stop5" /></linearGradient><linearGradient
       id="linearGradient4"><stop
         style="stop-color:#ededed;stop-opacity:1;"
         offset="0"
         id="stop4" /><stop
         style="stop-color:#000000;stop-opacity:1;"
         offset="1"
         id="stop3" /></linearGradient><linearGradient
       id="linearGradient2"><stop
         style="stop-color:#e5e5e5;stop-opacity:255;"
         offset="0"
         id="stop1" /><stop
         style="stop-color:#000000;stop-opacity:1;"
         offset="1"
         id="stop2" /></linearGradient><linearGradient
       id="linearGradient74"><stop
         style="stop-color:#ededed;stop-opacity:1;"
         offset="0"
         id="stop74" /><stop
         style="stop-color:#000000;stop-opacity:1;"
         offset="1"
         id="stop73" /></linearGradient><linearGradient
       id="linearGradient71"
       inkscape:collect="always"><stop
         style="stop-color:#000000;stop-opacity:1;"
         offset="0"
         id="stop71" /><stop
         style="stop-color:#000000;stop-opacity:0;"
         offset="1"
         id="stop72" /></linearGradient><linearGradient
       id="linearGradient70"><stop
         style="stop-color:#1a1a1a;stop-opacity:1;"
         offset="0"
         id="stop69" /><stop
         style="stop-color:#ededed;stop-opacity:1;"
         offset="1"
         id="stop70" /></linearGradient><linearGradient
       id="swatch17"><stop
         style="stop-color:#ededed;stop-opacity:1;"
         offset="0"
         id="stop18" /><stop
         style="stop-color:#000000;stop-opacity:1;"
         offset="1"
         id="stop17" /></linearGradient><linearGradient
       id="linearGradient65-1"
       gradientTransform="matrix(1.15346,0,0,0.86695678,161.33084,7.1747568)"
       x1="167.00824"
       y1="114.98447"
       x2="196.9538"
       y2="114.98447"
       gradientUnits="userSpaceOnUse"><stop
         style="stop-color:#1a1a1a;stop-opacity:1;"
         offset="0"
         id="stop64" /><stop
         style="stop-color:#ededed;stop-opacity:1;"
         offset="0.95228213"
         id="stop65" /></linearGradient><clipPath
       id="pe9f606d1a1"><rect
         id="rect2048"
         y="23.327999"
         x="43.200001"
         width="267.84"
         height="146.772" /></clipPath><clipPath
       id="clipPath1"><rect
         id="rect1"
         y="23.327999"
         x="43.200001"
         width="267.84"
         height="146.772" /></clipPath><path
       style="stroke:#000000;stroke-width:0.8;stroke-linecap:butt;stroke-linejoin:round"
       id="path2083"
       d="M 0,0 V 3.5"
       inkscape:connector-curvature="0" /><path
       transform="scale(0.015625)"
       id="path2089"
       d="M 678,2272 H 4684 V 1741 H 678 Z"
       inkscape:connector-curvature="0"
       style="stroke-linecap:butt;stroke-linejoin:round" /><path
       transform="scale(0.015625)"
       id="path2091"
       d="M 1228,531 H 3431 V 0 H 469 v 531 q 359,372 979,998 621,627 780,809 303,340 423,576 121,236 121,464 0,372 -261,606 -261,235 -680,235 -297,0 -627,-103 -329,-103 -704,-313 v 638 q 381,153 712,231 332,78 607,78 725,0 1156,-363 431,-362 431,-968 0,-288 -108,-546 -107,-257 -392,-607 -78,-91 -497,-524 Q 1991,1309 1228,531 Z"
       inkscape:connector-curvature="0"
       style="stroke-linecap:butt;stroke-linejoin:round" /><path
       transform="scale(0.015625)"
       id="path2093"
       d="m 2034,4250 q -487,0 -733,-480 -245,-479 -245,-1442 0,-959 245,-1439 246,-480 733,-480 491,0 736,480 246,480 246,1439 0,963 -246,1442 -245,480 -736,480 z m 0,500 q 785,0 1199,-621 414,-620 414,-1801 0,-1178 -414,-1799 -414,-620 -1199,-620 -784,0 -1198,620 -414,621 -414,1799 0,1181 414,1801 414,621 1198,621 z"
       inkscape:connector-curvature="0"
       style="stroke-linecap:butt;stroke-linejoin:round" /><path
       transform="scale(0.015625)"
       id="path2105"
       d="M 794,531 H 1825 V 4091 L 703,3866 v 575 l 1116,225 h 631 V 531 H 3481 V 0 H 794 Z"
       inkscape:connector-curvature="0"
       style="stroke-linecap:butt;stroke-linejoin:round" /><path
       transform="scale(0.015625)"
       id="path2137"
       d="M 3513,3500 2247,1797 3578,0 H 2900 L 1881,1375 863,0 H 184 L 1544,1831 300,3500 h 678 l 928,-1247 928,1247 z"
       inkscape:connector-curvature="0"
       style="stroke-linecap:butt;stroke-linejoin:round" /><path
       transform="scale(0.015625)"
       id="path2139"
       d="M 313,2009 H 1997 V 1497 H 313 Z"
       inkscape:connector-curvature="0"
       style="stroke-linecap:butt;stroke-linejoin:round" /><path
       transform="scale(0.015625)"
       id="path2141"
       d="m 3122,3366 v -538 q -244,135 -489,202 -245,67 -495,67 -560,0 -870,-355 -309,-354 -309,-995 0,-641 309,-996 310,-354 870,-354 250,0 495,67 245,67 489,202 V 134 Q 2881,22 2623,-34 2366,-91 2075,-91 1284,-91 818,406 353,903 353,1747 q 0,856 470,1346 471,491 1290,491 265,0 518,-55 253,-54 491,-163 z"
       inkscape:connector-curvature="0"
       style="stroke-linecap:butt;stroke-linejoin:round" /><path
       transform="scale(0.015625)"
       id="path2143"
       d="m 1959,3097 q -462,0 -731,-361 -269,-361 -269,-989 0,-628 267,-989 268,-361 733,-361 460,0 728,362 269,363 269,988 0,622 -269,986 -268,364 -728,364 z m 0,487 q 750,0 1178,-488 429,-487 429,-1349 Q 3566,888 3137,398 2709,-91 1959,-91 1206,-91 779,398 353,888 353,1747 q 0,862 426,1349 427,488 1180,488 z"
       inkscape:connector-curvature="0"
       style="stroke-linecap:butt;stroke-linejoin:round" /><path
       transform="scale(0.015625)"
       id="path2145"
       d="m 2631,2963 q -97,56 -211,82 -114,27 -251,27 -488,0 -749,-317 -261,-317 -261,-911 V 0 H 581 v 3500 h 578 v -544 q 182,319 472,473 291,155 707,155 59,0 131,-8 72,-7 159,-23 z"
       inkscape:connector-curvature="0"
       style="stroke-linecap:butt;stroke-linejoin:round" /><path
       transform="scale(0.015625)"
       id="path2147"
       d="m 2906,2969 v 1894 h 575 V 0 H 2906 V 525 Q 2725,213 2448,61 2172,-91 1784,-91 1150,-91 751,415 353,922 353,1747 q 0,825 398,1331 399,506 1033,506 388,0 664,-152 277,-151 458,-463 z M 947,1747 q 0,-634 261,-995 261,-361 717,-361 456,0 718,361 263,361 263,995 0,634 -263,995 -262,361 -718,361 -456,0 -717,-361 -261,-361 -261,-995 z"
       inkscape:connector-curvature="0"
       style="stroke-linecap:butt;stroke-linejoin:round" /><path
       transform="scale(0.015625)"
       id="path2149"
       d=""
       inkscape:connector-curvature="0"
       style="stroke-linecap:butt;stroke-linejoin:round" /><path
       transform="scale(0.015625)"
       id="path2151"
       d="m 1984,4856 q -418,-718 -622,-1422 -203,-703 -203,-1425 0,-721 205,-1429 205,-708 620,-1424 h -500 q -468,735 -701,1444 -233,709 -233,1409 0,697 231,1403 232,707 703,1444 z"
       inkscape:connector-curvature="0"
       style="stroke-linecap:butt;stroke-linejoin:round" /><path
       transform="scale(0.015625)"
       id="path2153"
       d="m 3328,2828 q 216,388 516,572 300,184 706,184 547,0 844,-383 297,-382 297,-1088 V 0 h -578 v 2094 q 0,503 -179,746 -178,244 -543,244 -447,0 -707,-297 -259,-296 -259,-809 V 0 h -578 v 2094 q 0,506 -178,748 -178,242 -550,242 -441,0 -701,-298 -259,-298 -259,-808 V 0 H 581 v 3500 h 578 v -544 q 197,322 472,475 275,153 653,153 382,0 649,-194 267,-193 395,-562 z"
       inkscape:connector-curvature="0"
       style="stroke-linecap:butt;stroke-linejoin:round" /><path
       transform="scale(0.015625)"
       id="path2155"
       d="m 513,4856 h 500 q 468,-737 701,-1444 233,-706 233,-1403 0,-700 -233,-1409 -233,-709 -701,-1444 H 513 q 415,716 620,1424 205,708 205,1429 0,722 -205,1425 -205,704 -620,1422 z"
       inkscape:connector-curvature="0"
       style="stroke-linecap:butt;stroke-linejoin:round" /><path
       style="stroke:#000000;stroke-width:0.8;stroke-linecap:butt;stroke-linejoin:round"
       id="path2173"
       d="M 0,0 H -3.5"
       inkscape:connector-curvature="0" /><path
       transform="scale(0.015625)"
       id="path2188"
       d="M 691,4666 H 3169 V 4134 H 1269 V 2991 q 137,47 274,70 138,23 276,23 781,0 1237,-428 457,-428 457,-1159 Q 3513,744 3044,326 2575,-91 1722,-91 1428,-91 1123,-41 819,9 494,109 v 635 q 281,-153 581,-228 300,-75 634,-75 541,0 856,284 316,284 316,772 0,487 -316,771 -315,285 -856,285 -253,0 -505,-56 -251,-56 -513,-175 z"
       inkscape:connector-curvature="0"
       style="stroke-linecap:butt;stroke-linejoin:round" /><path
       transform="scale(0.015625)"
       id="path2218"
       d="M 353,3500 H 3084 V 2975 L 922,459 H 3084 V 0 H 275 V 525 L 2438,3041 H 353 Z"
       inkscape:connector-curvature="0"
       style="stroke-linecap:butt;stroke-linejoin:round" /><path
       transform="scale(0.015625)"
       id="path2248"
       d="m 1625,-91 q -616,0 -974,380 -357,380 -357,1036 0,381 123,776 124,396 321,665 309,418 690,618 381,200 863,200 597,0 964,-372 367,-371 367,-971 0,-416 -122,-829 Q 3378,1000 3181,728 2875,309 2494,109 2113,-91 1625,-91 Z M 891,1344 q 0,-475 198,-711 199,-236 602,-236 578,0 957,504 380,505 380,1280 0,453 -203,684 -203,232 -597,232 -325,0 -578,-152 -253,-151 -453,-461 -147,-231 -227,-528 -79,-297 -79,-612 z"
       inkscape:connector-curvature="0"
       style="stroke-linecap:butt;stroke-linejoin:round" /><linearGradient
       inkscape:collect="always"
       xlink:href="#linearGradient82"
       id="linearGradient32-0"
       gradientUnits="userSpaceOnUse"
       gradientTransform="matrix(0.22495901,0.97436823,0.97436823,-0.22495901,215.16542,-26.846356)"
       x1="181.41061"
       y1="93.140724"
       x2="181.41061"
       y2="127.84106"
       spreadMethod="pad" /><linearGradient
       id="linearGradient33"
       gradientTransform="matrix(1.2218341,0,0,0.51203005,-85.736586,560.54614)"
       x1="220.73555"
       y1="182.39087"
       x2="246.35898"
       y2="182.39087"
       gradientUnits="userSpaceOnUse"><stop
         style="stop-color:#000000;stop-opacity:1;"
         offset="0"
         id="stop32-0" /><stop
         style="stop-color:#fcfcfc;stop-opacity:1;"
         offset="1"
         id="stop33-8" /></linearGradient><linearGradient
       id="linearGradient37"
       gradientTransform="matrix(0.63727043,0,0,0.98171162,-85.736586,560.54614)"
       x1="406.68271"
       y1="64.341476"
       x2="435.84512"
       y2="64.341476"
       gradientUnits="userSpaceOnUse"><stop
         style="stop-color:#000000;stop-opacity:1;"
         offset="0"
         id="stop36" /><stop
         style="stop-color:#fcfcfc;stop-opacity:1;"
         offset="1"
         id="stop37-8" /></linearGradient><linearGradient
       id="linearGradient41"
       gradientTransform="matrix(0.5543352,0,0,1.1285875,-85.736586,560.54614)"
       x1="423.37009"
       y1="52.782314"
       x2="450.42316"
       y2="52.782314"
       gradientUnits="userSpaceOnUse"><stop
         style="stop-color:#000000;stop-opacity:1;"
         offset="0"
         id="stop40" /><stop
         style="stop-color:#fcfcfc;stop-opacity:1;"
         offset="1"
         id="stop41" /></linearGradient><linearGradient
       id="linearGradient45"
       gradientTransform="matrix(1.0673668,0,0,0.58613005,-85.736586,560.54614)"
       x1="193.50142"
       y1="146.33649"
       x2="221.47647"
       y2="146.33649"
       gradientUnits="userSpaceOnUse"><stop
         style="stop-color:#000000;stop-opacity:1;"
         offset="0"
         id="stop44" /><stop
         style="stop-color:#fcfcfc;stop-opacity:1;"
         offset="1"
         id="stop45" /></linearGradient><linearGradient
       inkscape:collect="always"
       xlink:href="#linearGradient71"
       id="linearGradient46"
       gradientUnits="userSpaceOnUse"
       gradientTransform="rotate(120,306.58497,120.63972)"
       x1="255.43896"
       y1="119.71739"
       x2="292.70798"
       y2="119.71739" /><linearGradient
       inkscape:collect="always"
       xlink:href="#linearGradient82"
       id="linearGradient48"
       gradientUnits="userSpaceOnUse"
       gradientTransform="matrix(0.94551592,-0.32557587,-0.32557587,-0.94551592,168.99747,255.32152)"
       x1="181.41061"
       y1="93.140724"
       x2="181.41061"
       y2="127.84106"
       spreadMethod="pad" /><linearGradient
       inkscape:collect="always"
       xlink:href="#linearGradient71"
       id="linearGradient50-5"
       gradientUnits="userSpaceOnUse"
       gradientTransform="rotate(96,301.34752,121.66343)"
       x1="255.43896"
       y1="119.71739"
       x2="292.70798"
       y2="119.71739" /><linearGradient
       inkscape:collect="always"
       xlink:href="#linearGradient82"
       id="linearGradient52-9"
       gradientUnits="userSpaceOnUse"
       gradientTransform="matrix(0.73134814,-0.68200433,-0.68200433,-0.73134814,230.90575,305.97901)"
       x1="181.41061"
       y1="93.140724"
       x2="181.41061"
       y2="127.84106"
       spreadMethod="pad" /><linearGradient
       inkscape:collect="always"
       xlink:href="#linearGradient71"
       id="linearGradient54-9"
       gradientUnits="userSpaceOnUse"
       gradientTransform="rotate(72,293.63082,123.17173)"
       x1="255.43896"
       y1="119.71739"
       x2="292.70798"
       y2="119.71739" /><linearGradient
       inkscape:collect="always"
       xlink:href="#linearGradient82"
       id="linearGradient56-0"
       gradientUnits="userSpaceOnUse"
       gradientTransform="matrix(0.39072362,-0.92050805,-0.92050805,-0.39072362,308.06604,327.07657)"
       x1="181.41061"
       y1="93.140724"
       x2="181.41061"
       y2="127.84106"
       spreadMethod="pad" /><linearGradient
       inkscape:collect="always"
       xlink:href="#linearGradient71"
       id="linearGradient58-3"
       gradientUnits="userSpaceOnUse"
       gradientTransform="rotate(48,279.53171,125.92753)"
       x1="255.43896"
       y1="119.71739"
       x2="292.70798"
       y2="119.71739" /><linearGradient
       id="linearGradient33-4"
       gradientTransform="scale(1.5447507,0.64735364)"
       x1="220.73555"
       y1="182.39087"
       x2="246.35898"
       y2="182.39087"
       gradientUnits="userSpaceOnUse"><stop
         style="stop-color:#000000;stop-opacity:1;"
         offset="0"
         id="stop32-06" /><stop
         style="stop-color:#fcfcfc;stop-opacity:1;"
         offset="1"
         id="stop33-3" /></linearGradient><linearGradient
       id="linearGradient37-9"
       gradientTransform="scale(0.8056936,1.2411666)"
       x1="406.68271"
       y1="64.341476"
       x2="435.84512"
       y2="64.341476"
       gradientUnits="userSpaceOnUse"><stop
         style="stop-color:#000000;stop-opacity:1;"
         offset="0"
         id="stop36-4" /><stop
         style="stop-color:#fcfcfc;stop-opacity:1;"
         offset="1"
         id="stop37-1" /></linearGradient><linearGradient
       id="linearGradient41-7"
       gradientTransform="scale(0.70083956,1.4268601)"
       x1="423.37009"
       y1="52.782314"
       x2="450.42316"
       y2="52.782314"
       gradientUnits="userSpaceOnUse"><stop
         style="stop-color:#000000;stop-opacity:1;"
         offset="0"
         id="stop40-3" /><stop
         style="stop-color:#fcfcfc;stop-opacity:1;"
         offset="1"
         id="stop41-1" /></linearGradient><linearGradient
       id="linearGradient45-2"
       gradientTransform="scale(1.3494595,0.74103741)"
       x1="193.50142"
       y1="146.33649"
       x2="221.47647"
       y2="146.33649"
       gradientUnits="userSpaceOnUse"><stop
         style="stop-color:#000000;stop-opacity:1;"
         offset="0"
         id="stop44-8" /><stop
         style="stop-color:#fcfcfc;stop-opacity:1;"
         offset="1"
         id="stop45-8" /></linearGradient><rect
       x="83.346497"
       y="1069.6134"
       width="930.70251"
       height="125.01974"
       id="rect289" /><rect
       x="83.346497"
       y="1069.6134"
       width="930.70251"
       height="125.01974"
       id="rect290" /><rect
       x="83.346497"
       y="1069.6134"
       width="930.70251"
       height="125.01974"
       id="rect291" /><rect
       x="83.346497"
       y="1069.6134"
       width="930.70251"
       height="125.01974"
       id="rect292" /><rect
       x="83.346497"
       y="1069.6134"
       width="930.70251"
       height="125.01974"
       id="rect293" /><rect
       x="83.346497"
       y="1069.6134"
       width="930.70251"
       height="125.01974"
       id="rect380" /><rect
       x="83.346497"
       y="1069.6134"
       width="930.70251"
       height="125.01974"
       id="rect381" /><rect
       x="83.346497"
       y="1069.6134"
       width="930.70251"
       height="125.01974"
       id="rect383" /><rect
       x="83.346497"
       y="1069.6134"
       width="930.70251"
       height="125.01974"
       id="rect387" /><rect
       x="83.346497"
       y="1069.6134"
       width="930.70251"
       height="125.01974"
       id="rect510" /><rect
       x="83.346497"
       y="1069.6134"
       width="930.70251"
       height="125.01974"
       id="rect511" /><radialGradient
       inkscape:collect="always"
       xlink:href="#linearGradient285"
       id="radialGradient686"
       gradientUnits="userSpaceOnUse"
       gradientTransform="matrix(0.78558664,0,0,0.78558664,31.576516,-31.307393)"
       cx="175.35535"
       cy="161.09924"
       fx="175.35535"
       fy="161.09924"
       r="42.138161" /></defs><g
     inkscape:groupmode="layer"
     id="layer1"
     inkscape:label="Layer 1"><g
       id="figure_1"
       transform="matrix(1.2679038,0,0,1.2679038,58.301354,-19.252074)"
       style="stroke-linecap:butt;stroke-linejoin:round"><g
         id="line2d_11"
         style="stroke-linecap:butt;stroke-linejoin:round"
         transform="translate(-286.77744,-12.480056)"><path
           id="path2007"
           style="fill:none;stroke:#000000;stroke-linecap:square;stroke-linejoin:round"
           d="m 177.399,91.5498 h 30.46431"
           clip-path="url(#pe9f606d1a1)"
           inkscape:connector-curvature="0" /></g><g
         id="line2d_12"
         style="stroke-linecap:butt;stroke-linejoin:round"
         transform="translate(-286.77744,-12.480056)"><path
           id="path2010"
           style="fill:none;stroke:#000000;stroke-linecap:square;stroke-linejoin:round"
           d="m 177.399,91.5498 v 29.67813"
           clip-path="url(#pe9f606d1a1)"
           inkscape:connector-curvature="0" /></g><g
         id="text_13"
         style="stroke-linecap:butt;stroke-linejoin:round"
         transform="translate(-286.77744,-12.480056)"><!-- 20$^o$ --><g
           id="g2034"
           transform="matrix(0.08,0,0,-0.08,178.92221,88.402143)"
           style="stroke-linecap:butt;stroke-linejoin:round"><defs
             id="defs2026"><path
               transform="scale(0.015625)"
               id="path19"
               d="m 1625,-91 q -616,0 -974,380 -357,380 -357,1036 0,381 123,776 124,396 321,665 309,418 690,618 381,200 863,200 597,0 964,-372 367,-371 367,-971 0,-416 -122,-829 Q 3378,1000 3181,728 2875,309 2494,109 2113,-91 1625,-91 Z M 891,1344 q 0,-475 198,-711 199,-236 602,-236 578,0 957,504 380,505 380,1280 0,453 -203,684 -203,232 -597,232 -325,0 -578,-152 -253,-151 -453,-461 -147,-231 -227,-528 -79,-297 -79,-612 z"
               inkscape:connector-curvature="0"
               style="stroke-linecap:butt;stroke-linejoin:round" /></defs><path
             id="use2028"
             d="M 19.1875,8.815625 H 53.609375 V 0.51875 H 7.328125 V 8.815625 Q 12.9375,14.628125 22.625,24.409375 32.328125,34.20625 34.8125,37.05 q 4.734375,5.3125 6.609375,9 1.890625,3.6875 1.890625,7.25 0,5.8125 -4.078125,9.46875 -4.078125,3.671875 -10.625,3.671875 -4.640625,0 -9.796875,-1.609375 -5.140625,-1.609375 -11,-4.890625 v 9.96875 q 5.953125,2.390625 11.125,3.609375 5.1875,1.21875 9.484375,1.21875 11.328125,0 18.0625,-5.671875 6.734375,-5.65625 6.734375,-15.125 0,-4.5 -1.6875,-8.53125 Q 49.859375,41.39375 45.40625,35.925 44.1875,34.503125 37.640625,27.7375 31.109375,20.971875 19.1875,8.815625 Z"
             style="stroke-width:0.015625;stroke-linecap:butt;stroke-linejoin:round" /><path
             id="use2030"
             d="m 95.404297,66.925 q -7.609375,0 -11.453125,-7.5 -3.828125,-7.484375 -3.828125,-22.53125 0,-14.984375 3.828125,-22.484375 3.84375,-7.5 11.453125,-7.5 7.671873,0 11.500003,7.5 3.84375,7.5 3.84375,22.484375 0,15.046875 -3.84375,22.53125 -3.82813,7.5 -11.500003,7.5 z m 0,7.8125 q 12.265623,0 18.734373,-9.703125 6.46875,-9.6875 6.46875,-28.140625 0,-18.40625 -6.46875,-28.109375 -6.46875,-9.6875 -18.734373,-9.6875 -12.25,0 -18.71875,9.6875 -6.46875,9.703125 -6.46875,28.109375 0,18.453125 6.46875,28.140625 6.46875,9.703125 18.71875,9.703125 z"
             style="stroke-width:0.015625;stroke-linecap:butt;stroke-linejoin:round" /><path
             id="use2032"
             d="m 145.97656,37.804687 q -6.7375,0 -10.65313,4.15625 -3.90469,4.15625 -3.90469,11.33125 0,4.167188 1.34532,8.4875 1.35625,4.33125 3.51094,7.273438 3.37968,4.571875 7.54687,6.759375 4.16719,2.1875 9.43906,2.1875 6.52969,0 10.54375,-4.06875 4.01406,-4.057813 4.01406,-10.620313 0,-4.55 -1.33437,-9.067187 -1.33437,-4.50625 -3.48906,-7.48125 -3.34688,-4.582813 -7.51407,-6.770313 -4.16718,-2.1875 -9.50468,-2.1875 z M 137.94843,53.5 q 0,-5.195313 2.16563,-7.776563 2.17656,-2.58125 6.58437,-2.58125 6.32188,0 10.46719,5.5125 4.15625,5.523438 4.15625,14 0,4.954688 -2.22031,7.48125 -2.22032,2.5375 -6.52969,2.5375 -3.55469,0 -6.32187,-1.6625 -2.76719,-1.651562 -4.95469,-5.042187 -1.60781,-2.526563 -2.48281,-5.775 -0.86407,-3.248438 -0.86407,-6.69375 z"
             style="stroke-width:0.0109375;stroke-linecap:butt;stroke-linejoin:round" /></g></g><g
         id="text_14"
         style="stroke-linecap:butt;stroke-linejoin:round"
         transform="translate(-286.77744,-12.480056)"><!-- 20$^o$ --><g
           id="g2043"
           transform="matrix(0.08,0,0,-0.08,161.95578,99.112457)"
           style="stroke-linecap:butt;stroke-linejoin:round"><path
             id="use2037"
             d="M 19.1875,8.815625 H 53.609375 V 0.51875 H 7.328125 V 8.815625 Q 12.9375,14.628125 22.625,24.409375 32.328125,34.20625 34.8125,37.05 q 4.734375,5.3125 6.609375,9 1.890625,3.6875 1.890625,7.25 0,5.8125 -4.078125,9.46875 -4.078125,3.671875 -10.625,3.671875 -4.640625,0 -9.796875,-1.609375 -5.140625,-1.609375 -11,-4.890625 v 9.96875 q 5.953125,2.390625 11.125,3.609375 5.1875,1.21875 9.484375,1.21875 11.328125,0 18.0625,-5.671875 6.734375,-5.65625 6.734375,-15.125 0,-4.5 -1.6875,-8.53125 Q 49.859375,41.39375 45.40625,35.925 44.1875,34.503125 37.640625,27.7375 31.109375,20.971875 19.1875,8.815625 Z"
             style="stroke-width:0.015625;stroke-linecap:butt;stroke-linejoin:round" /><path
             id="use2039"
             d="m 95.404297,66.925 q -7.609375,0 -11.453125,-7.5 -3.828125,-7.484375 -3.828125,-22.53125 0,-14.984375 3.828125,-22.484375 3.84375,-7.5 11.453125,-7.5 7.671873,0 11.500003,7.5 3.84375,7.5 3.84375,22.484375 0,15.046875 -3.84375,22.53125 -3.82813,7.5 -11.500003,7.5 z m 0,7.8125 q 12.265623,0 18.734373,-9.703125 6.46875,-9.6875 6.46875,-28.140625 0,-18.40625 -6.46875,-28.109375 -6.46875,-9.6875 -18.734373,-9.6875 -12.25,0 -18.71875,9.6875 -6.46875,9.703125 -6.46875,28.109375 0,18.453125 6.46875,28.140625 6.46875,9.703125 18.71875,9.703125 z"
             style="stroke-width:0.015625;stroke-linecap:butt;stroke-linejoin:round" /><path
             id="use2041"
             d="m 145.97656,37.804687 q -6.7375,0 -10.65313,4.15625 -3.90469,4.15625 -3.90469,11.33125 0,4.167188 1.34532,8.4875 1.35625,4.33125 3.51094,7.273438 3.37968,4.571875 7.54687,6.759375 4.16719,2.1875 9.43906,2.1875 6.52969,0 10.54375,-4.06875 4.01406,-4.057813 4.01406,-10.620313 0,-4.55 -1.33437,-9.067187 -1.33437,-4.50625 -3.48906,-7.48125 -3.34688,-4.582813 -7.51407,-6.770313 -4.16718,-2.1875 -9.50468,-2.1875 z M 137.94843,53.5 q 0,-5.195313 2.16563,-7.776563 2.17656,-2.58125 6.58437,-2.58125 6.32188,0 10.46719,5.5125 4.15625,5.523438 4.15625,14 0,4.954688 -2.22031,7.48125 -2.22032,2.5375 -6.52969,2.5375 -3.55469,0 -6.32187,-1.6625 -2.76719,-1.651562 -4.95469,-5.042187 -1.60781,-2.526563 -2.48281,-5.775 -0.86407,-3.248438 -0.86407,-6.69375 z"
             style="stroke-width:0.0109375;stroke-linecap:butt;stroke-linejoin:round" /></g></g></g><g
       id="g30"
       transform="matrix(1.8080463,0,0,1.8080463,255.12388,-40.660603)"
       style="stroke-linecap:butt;stroke-linejoin:round" /><text
       xml:space="preserve"
       transform="matrix(0.26458334,0,0,0.26458334,-3.604856e-6,-2.361888e-7)"
       id="text384"
       style="font-style:italic;font-weight:bold;font-size:18.6667px;line-height:1.1;font-family:Arial;-inkscape-font-specification:'Arial Bold Italic';text-align:center;text-decoration-color:#000000;letter-spacing:0px;word-spacing:0px;white-space:pre;shape-inside:url(#rect384);display:inline;fill:#808080;fill-opacity:0.75;fill-rule:evenodd;stroke:none;stroke-width:0.842835;paint-order:markers fill stroke" /><text
       xml:space="preserve"
       transform="matrix(0.26458334,0,0,0.26458334,-3.604856e-6,-2.361888e-7)"
       id="text385"
       style="font-style:italic;font-weight:bold;font-size:18.6667px;line-height:1.1;font-family:Arial;-inkscape-font-specification:'Arial Bold Italic';text-align:center;text-decoration-color:#000000;letter-spacing:0px;word-spacing:0px;white-space:pre;shape-inside:url(#rect385);display:inline;fill:#808080;fill-opacity:0.75;fill-rule:evenodd;stroke:none;stroke-width:0.842835;paint-order:markers fill stroke" /><g
       id="g688"
       transform="translate(-77.336642,-55.854242)"><path
         id="path686"
         style="fill:url(#radialGradient686);fill-rule:evenodd;stroke:none;stroke-width:0.14764;paint-order:markers fill stroke"
         d="m 169.33333,62.146835 a 33.10318,33.10318 0 0 0 -33.10317,33.10316 33.10318,33.10318 0 0 0 33.10317,33.103165 33.10318,33.10318 0 0 0 33.10317,-33.103165 33.10318,33.10318 0 0 0 -33.10317,-33.10316 z m 0,16.20752 a 16.895603,16.895603 0 0 1 16.89533,16.89564 16.895603,16.895603 0 0 1 -16.89533,16.895645 16.895603,16.895603 0 0 1 -16.89564,-16.895645 16.895603,16.895603 0 0 1 16.89564,-16.89564 z" /><circle
         style="fill:#ffffff;fill-opacity:1;fill-rule:evenodd;stroke:#ffffff;stroke-width:0.0753545;paint-order:markers fill stroke"
         id="circle686"
         cx="169.33333"
         cy="95.25"
         r="16.895601" /><path
         id="path688"
         style="fill:#ffffff;fill-rule:evenodd;stroke:none;stroke-width:0.0769885;paint-order:markers fill stroke"
         d="M 169.33333,77.98799 A 17.262022,17.262022 0 0 0 152.07132,95.25 17.262022,17.262022 0 0 0 169.33333,112.51201 17.262022,17.262022 0 0 0 186.59535,95.25 17.262022,17.262022 0 0 0 169.33333,77.98799 Z m 0,8.45159 a 8.8104003,8.8104003 0 0 1 8.81027,8.81042 8.8104003,8.8104003 0 0 1 -8.81027,8.81043 8.8104003,8.8104003 0 0 1 -8.81041,-8.81043 8.8104003,8.8104003 0 0 1 8.81041,-8.81042 z" /></g><rect
       style="fill:#808080;fill-opacity:0.5;fill-rule:evenodd;stroke:none;stroke-width:0.156381;paint-order:markers fill stroke"
       id="rect690"
       width="146.6012"
       height="131.08638"
       x="39.322857"
       y="5.0282426"
       ry="0.11101873" /></g></svg>
