<?xml version="1.0" encoding="UTF-8" standalone="no"?>
<!-- Created with Inkscape (http://www.inkscape.org/) -->

<svg
   width="87.516533mm"
   height="92.767166mm"
   viewBox="0 0 87.516549 92.76717"
   version="1.1"
   id="svg8"
   inkscape:version="1.3.1 (91b66b0, 2023-11-16)"
   sodipodi:docname="visual-field.svg"
   inkscape:export-filename="/home/yann.zerlaut/work/physion/doc/visual-field.png"
   inkscape:export-xdpi="100"
   inkscape:export-ydpi="100"
   xmlns:inkscape="http://www.inkscape.org/namespaces/inkscape"
   xmlns:sodipodi="http://sodipodi.sourceforge.net/DTD/sodipodi-0.dtd"
   xmlns="http://www.w3.org/2000/svg"
   xmlns:svg="http://www.w3.org/2000/svg"
   xmlns:rdf="http://www.w3.org/1999/02/22-rdf-syntax-ns#"
   xmlns:cc="http://creativecommons.org/ns#"
   xmlns:dc="http://purl.org/dc/elements/1.1/">
  <defs
     id="defs2"
     style="stroke-linecap:butt;stroke-linejoin:round">
    <rect
       x="189.74255"
       y="270.36279"
       width="140.06747"
       height="69.219391"
       id="rect8" />
    <marker
       inkscape:stockid="Arrow1Send"
       orient="auto"
       refY="0"
       refX="0"
       id="marker9635"
       style="overflow:visible;stroke-linecap:butt;stroke-linejoin:round"
       inkscape:isstock="true">
      <path
         id="path9633"
         d="M 0,0 5,-5 -12.5,0 5,5 Z"
         style="fill:#000000;fill-opacity:1;fill-rule:evenodd;stroke:#000000;stroke-width:1pt;stroke-linecap:butt;stroke-linejoin:round;stroke-opacity:1"
         transform="matrix(-0.2,0,0,-0.2,-1.2,0)"
         inkscape:connector-curvature="0" />
    </marker>
    <marker
       inkscape:stockid="Arrow1Sstart"
       orient="auto"
       refY="0"
       refX="0"
       id="marker9493"
       style="overflow:visible;stroke-linecap:butt;stroke-linejoin:round"
       inkscape:isstock="true">
      <path
         id="path9491"
         d="M 0,0 5,-5 -12.5,0 5,5 Z"
         style="fill:#000000;fill-opacity:1;fill-rule:evenodd;stroke:#000000;stroke-width:1pt;stroke-linecap:butt;stroke-linejoin:round;stroke-opacity:1"
         transform="matrix(0.2,0,0,0.2,1.2,0)"
         inkscape:connector-curvature="0" />
    </marker>
    <marker
       inkscape:stockid="Arrow1Send"
       orient="auto"
       refY="0"
       refX="0"
       id="marker8053"
       style="overflow:visible;stroke-linecap:butt;stroke-linejoin:round"
       inkscape:isstock="true">
      <path
         inkscape:connector-curvature="0"
         id="path8051"
         d="M 0,0 5,-5 -12.5,0 5,5 Z"
         style="fill:#ff0000;fill-opacity:1;fill-rule:evenodd;stroke:#ff0000;stroke-width:1pt;stroke-linecap:butt;stroke-linejoin:round;stroke-opacity:1"
         transform="matrix(-0.2,0,0,-0.2,-1.2,0)" />
    </marker>
    <marker
       inkscape:stockid="Arrow1Sstart"
       orient="auto"
       refY="0"
       refX="0"
       id="marker7923"
       style="overflow:visible;stroke-linecap:butt;stroke-linejoin:round"
       inkscape:isstock="true">
      <path
         inkscape:connector-curvature="0"
         id="path7921"
         d="M 0,0 5,-5 -12.5,0 5,5 Z"
         style="fill:#ff0000;fill-opacity:1;fill-rule:evenodd;stroke:#ff0000;stroke-width:1pt;stroke-linecap:butt;stroke-linejoin:round;stroke-opacity:1"
         transform="matrix(0.2,0,0,0.2,1.2,0)" />
    </marker>
    <marker
       inkscape:isstock="true"
       style="overflow:visible;stroke-linecap:butt;stroke-linejoin:round"
       id="marker6693"
       refX="0"
       refY="0"
       orient="auto"
       inkscape:stockid="Arrow1Send">
      <path
         transform="matrix(-0.2,0,0,-0.2,-1.2,0)"
         style="fill:#000000;fill-opacity:1;fill-rule:evenodd;stroke:#000000;stroke-width:1pt;stroke-linecap:butt;stroke-linejoin:round;stroke-opacity:1"
         d="M 0,0 5,-5 -12.5,0 5,5 Z"
         id="path6691"
         inkscape:connector-curvature="0" />
    </marker>
    <marker
       inkscape:isstock="true"
       style="overflow:visible;stroke-linecap:butt;stroke-linejoin:round"
       id="marker6551"
       refX="0"
       refY="0"
       orient="auto"
       inkscape:stockid="Arrow1Sstart">
      <path
         transform="matrix(0.2,0,0,0.2,1.2,0)"
         style="fill:#000000;fill-opacity:1;fill-rule:evenodd;stroke:#000000;stroke-width:1pt;stroke-linecap:butt;stroke-linejoin:round;stroke-opacity:1"
         d="M 0,0 5,-5 -12.5,0 5,5 Z"
         id="path6549"
         inkscape:connector-curvature="0" />
    </marker>
    <marker
       inkscape:stockid="Arrow1Send"
       orient="auto"
       refY="0"
       refX="0"
       id="marker6401"
       style="overflow:visible;stroke-linecap:butt;stroke-linejoin:round"
       inkscape:isstock="true"
       inkscape:collect="always">
      <path
         inkscape:connector-curvature="0"
         id="path6399"
         d="M 0,0 5,-5 -12.5,0 5,5 Z"
         style="fill:#000000;fill-opacity:1;fill-rule:evenodd;stroke:#000000;stroke-width:1pt;stroke-linecap:butt;stroke-linejoin:round;stroke-opacity:1"
         transform="matrix(-0.2,0,0,-0.2,-1.2,0)" />
    </marker>
    <marker
       inkscape:stockid="Arrow1Sstart"
       orient="auto"
       refY="0"
       refX="0"
       id="marker6271"
       style="overflow:visible;stroke-linecap:butt;stroke-linejoin:round"
       inkscape:isstock="true"
       inkscape:collect="always">
      <path
         inkscape:connector-curvature="0"
         id="path6269"
         d="M 0,0 5,-5 -12.5,0 5,5 Z"
         style="fill:#000000;fill-opacity:1;fill-rule:evenodd;stroke:#000000;stroke-width:1pt;stroke-linecap:butt;stroke-linejoin:round;stroke-opacity:1"
         transform="matrix(0.2,0,0,0.2,1.2,0)" />
    </marker>
    <marker
       inkscape:isstock="true"
       style="overflow:visible;stroke-linecap:butt;stroke-linejoin:round"
       id="marker5967"
       refX="0"
       refY="0"
       orient="auto"
       inkscape:stockid="Arrow1Send">
      <path
         transform="matrix(-0.2,0,0,-0.2,-1.2,0)"
         style="fill:#000000;fill-opacity:1;fill-rule:evenodd;stroke:#000000;stroke-width:1pt;stroke-linecap:butt;stroke-linejoin:round;stroke-opacity:1"
         d="M 0,0 5,-5 -12.5,0 5,5 Z"
         id="path5965"
         inkscape:connector-curvature="0" />
    </marker>
    <marker
       inkscape:isstock="true"
       style="overflow:visible;stroke-linecap:butt;stroke-linejoin:round"
       id="marker5849"
       refX="0"
       refY="0"
       orient="auto"
       inkscape:stockid="Arrow1Sstart">
      <path
         transform="matrix(0.2,0,0,0.2,1.2,0)"
         style="fill:#000000;fill-opacity:1;fill-rule:evenodd;stroke:#000000;stroke-width:1pt;stroke-linecap:butt;stroke-linejoin:round;stroke-opacity:1"
         d="M 0,0 5,-5 -12.5,0 5,5 Z"
         id="path5847"
         inkscape:connector-curvature="0" />
    </marker>
    <marker
       inkscape:isstock="true"
       style="overflow:visible;stroke-linecap:butt;stroke-linejoin:round"
       id="marker2398"
       refX="0"
       refY="0"
       orient="auto"
       inkscape:stockid="Arrow1Send"
       inkscape:collect="always">
      <path
         transform="matrix(-0.2,0,0,-0.2,-1.2,0)"
         style="fill:#ff0000;fill-opacity:1;fill-rule:evenodd;stroke:#ff0000;stroke-width:1pt;stroke-linecap:butt;stroke-linejoin:round;stroke-opacity:1"
         d="M 0,0 5,-5 -12.5,0 5,5 Z"
         id="path2396"
         inkscape:connector-curvature="0" />
    </marker>
    <marker
       inkscape:isstock="true"
       style="overflow:visible;stroke-linecap:butt;stroke-linejoin:round"
       id="marker2292"
       refX="0"
       refY="0"
       orient="auto"
       inkscape:stockid="Arrow1Sstart"
       inkscape:collect="always">
      <path
         transform="matrix(0.2,0,0,0.2,1.2,0)"
         style="fill:#ff0000;fill-opacity:1;fill-rule:evenodd;stroke:#ff0000;stroke-width:1pt;stroke-linecap:butt;stroke-linejoin:round;stroke-opacity:1"
         d="M 0,0 5,-5 -12.5,0 5,5 Z"
         id="path2290"
         inkscape:connector-curvature="0" />
    </marker>
    <rect
       x="8.8388348"
       y="-14.142136"
       width="277.28687"
       height="59.093925"
       id="rect7539" />
    <rect
       x="-51.51778"
       y="-35.355339"
       width="148.58688"
       height="99.088341"
       id="rect9035" />
    <rect
       x="-49.497475"
       y="-56.063465"
       width="110.10663"
       height="107.58125"
       id="rect6815" />
    <rect
       x="44.446712"
       y="-48.487324"
       width="85.357887"
       height="45.456863"
       id="rect4735" />
    <marker
       inkscape:stockid="Arrow1Send"
       orient="auto"
       refY="0"
       refX="0"
       id="marker5515"
       style="overflow:visible"
       inkscape:isstock="true"
       inkscape:collect="always">
      <path
         inkscape:connector-curvature="0"
         id="path5513"
         d="M 0,0 5,-5 -12.5,0 5,5 Z"
         style="fill:#000000;fill-opacity:1;fill-rule:evenodd;stroke:#000000;stroke-width:1pt;stroke-opacity:1"
         transform="matrix(-0.2,0,0,-0.2,-1.2,0)" />
    </marker>
    <marker
       inkscape:stockid="Arrow1Sstart"
       orient="auto"
       refY="0"
       refX="0"
       id="marker5433"
       style="overflow:visible"
       inkscape:isstock="true"
       inkscape:collect="always">
      <path
         inkscape:connector-curvature="0"
         id="path5431"
         d="M 0,0 5,-5 -12.5,0 5,5 Z"
         style="fill:#000000;fill-opacity:1;fill-rule:evenodd;stroke:#000000;stroke-width:1pt;stroke-opacity:1"
         transform="matrix(0.2,0,0,0.2,1.2,0)" />
    </marker>
    <marker
       inkscape:isstock="true"
       style="overflow:visible"
       id="marker1640"
       refX="0"
       refY="0"
       orient="auto"
       inkscape:stockid="Arrow1Send"
       inkscape:collect="always">
      <path
         transform="matrix(-0.2,0,0,-0.2,-1.2,0)"
         style="fill:#000000;fill-opacity:1;fill-rule:evenodd;stroke:#000000;stroke-width:1pt;stroke-opacity:1"
         d="M 0,0 5,-5 -12.5,0 5,5 Z"
         id="path1638"
         inkscape:connector-curvature="0" />
    </marker>
    <marker
       inkscape:isstock="true"
       style="overflow:visible"
       id="marker1570"
       refX="0"
       refY="0"
       orient="auto"
       inkscape:stockid="Arrow1Sstart"
       inkscape:collect="always">
      <path
         transform="matrix(0.2,0,0,0.2,1.2,0)"
         style="fill:#000000;fill-opacity:1;fill-rule:evenodd;stroke:#000000;stroke-width:1pt;stroke-opacity:1"
         d="M 0,0 5,-5 -12.5,0 5,5 Z"
         id="path1568"
         inkscape:connector-curvature="0" />
    </marker>
    <marker
       inkscape:isstock="true"
       style="overflow:visible"
       id="marker1496"
       refX="0"
       refY="0"
       orient="auto"
       inkscape:stockid="Arrow1Send">
      <path
         inkscape:connector-curvature="0"
         transform="matrix(-0.2,0,0,-0.2,-1.2,0)"
         style="fill:#000000;fill-opacity:1;fill-rule:evenodd;stroke:#000000;stroke-width:1pt;stroke-opacity:1"
         d="M 0,0 5,-5 -12.5,0 5,5 Z"
         id="path1494" />
    </marker>
    <marker
       inkscape:isstock="true"
       style="overflow:visible"
       id="marker1492"
       refX="0"
       refY="0"
       orient="auto"
       inkscape:stockid="Arrow1Sstart">
      <path
         inkscape:connector-curvature="0"
         transform="matrix(0.2,0,0,0.2,1.2,0)"
         style="fill:#000000;fill-opacity:1;fill-rule:evenodd;stroke:#000000;stroke-width:1pt;stroke-opacity:1"
         d="M 0,0 5,-5 -12.5,0 5,5 Z"
         id="path1490" />
    </marker>
    <marker
       inkscape:isstock="true"
       style="overflow:visible"
       id="Arrow1Send"
       refX="0"
       refY="0"
       orient="auto"
       inkscape:stockid="Arrow1Send"
       inkscape:collect="always">
      <path
         inkscape:connector-curvature="0"
         transform="matrix(-0.2,0,0,-0.2,-1.2,0)"
         style="fill:#000000;fill-opacity:1;fill-rule:evenodd;stroke:#000000;stroke-width:1pt;stroke-opacity:1"
         d="M 0,0 5,-5 -12.5,0 5,5 Z"
         id="path1225" />
    </marker>
    <marker
       inkscape:isstock="true"
       style="overflow:visible"
       id="Arrow1Sstart"
       refX="0"
       refY="0"
       orient="auto"
       inkscape:stockid="Arrow1Sstart"
       inkscape:collect="always">
      <path
         inkscape:connector-curvature="0"
         transform="matrix(0.2,0,0,0.2,1.2,0)"
         style="fill:#000000;fill-opacity:1;fill-rule:evenodd;stroke:#000000;stroke-width:1pt;stroke-opacity:1"
         d="M 0,0 5,-5 -12.5,0 5,5 Z"
         id="path1222" />
    </marker>
    <marker
       inkscape:isstock="true"
       style="overflow:visible"
       id="Arrow1Mstart"
       refX="0"
       refY="0"
       orient="auto"
       inkscape:stockid="Arrow1Mstart">
      <path
         inkscape:connector-curvature="0"
         transform="matrix(0.4,0,0,0.4,4,0)"
         style="fill:#000000;fill-opacity:1;fill-rule:evenodd;stroke:#000000;stroke-width:1pt;stroke-opacity:1"
         d="M 0,0 5,-5 -12.5,0 5,5 Z"
         id="path1216" />
    </marker>
    <marker
       inkscape:stockid="Arrow1Send"
       orient="auto"
       refY="0"
       refX="0"
       id="marker982"
       style="overflow:visible"
       inkscape:isstock="true">
      <path
         id="path980"
         d="M 0,0 5,-5 -12.5,0 5,5 Z"
         style="fill:#666666;fill-opacity:1;fill-rule:evenodd;stroke:#666666;stroke-width:1pt;stroke-opacity:1"
         transform="matrix(-0.2,0,0,-0.2,-1.2,0)"
         inkscape:connector-curvature="0" />
    </marker>
    <marker
       inkscape:stockid="Arrow1Sstart"
       orient="auto"
       refY="0"
       refX="0"
       id="marker978"
       style="overflow:visible"
       inkscape:isstock="true">
      <path
         id="path976"
         d="M 0,0 5,-5 -12.5,0 5,5 Z"
         style="fill:#666666;fill-opacity:1;fill-rule:evenodd;stroke:#666666;stroke-width:1pt;stroke-opacity:1"
         transform="matrix(0.2,0,0,0.2,1.2,0)"
         inkscape:connector-curvature="0" />
    </marker>
    <rect
       x="44.446712"
       y="-48.487324"
       width="85.357887"
       height="45.456863"
       id="rect1046" />
    <rect
       x="-51.51778"
       y="-35.355339"
       width="148.58688"
       height="99.088341"
       id="rect2576" />
    <rect
       x="44.446712"
       y="-48.487324"
       width="85.357887"
       height="45.456863"
       id="rect3654" />
    <style
       id="style1581"
       type="text/css">*{stroke-linecap:butt;stroke-linejoin:round;}</style>
    <path
       style="stroke:#000000;stroke-width:0.8;stroke-linecap:butt;stroke-linejoin:round"
       id="mbc990f057c"
       d="M 0,0 V 4"
       inkscape:connector-curvature="0" />
    <path
       transform="scale(0.015625)"
       id="DejaVuSans-30"
       d="m 2034,4250 q -487,0 -733,-480 -245,-479 -245,-1442 0,-959 245,-1439 246,-480 733,-480 491,0 736,480 246,480 246,1439 0,963 -246,1442 -245,480 -736,480 z m 0,500 q 785,0 1199,-621 414,-620 414,-1801 0,-1178 -414,-1799 -414,-620 -1199,-620 -784,0 -1198,620 -414,621 -414,1799 0,1181 414,1801 414,621 1198,621 z"
       inkscape:connector-curvature="0"
       style="stroke-linecap:butt;stroke-linejoin:round" />
    <path
       transform="scale(0.015625)"
       id="DejaVuSans-33"
       d="m 2597,2516 q 453,-97 707,-404 255,-306 255,-756 0,-690 -475,-1069 -475,-378 -1350,-378 -293,0 -604,58 -311,58 -642,174 v 609 q 262,-153 574,-231 313,-78 654,-78 593,0 904,234 311,234 311,681 0,413 -289,645 -289,233 -804,233 h -544 v 519 h 569 q 465,0 712,186 247,186 247,536 0,359 -255,551 -254,193 -729,193 -260,0 -557,-57 -297,-56 -653,-174 v 562 q 360,100 674,150 314,50 592,50 719,0 1137,-327 419,-326 419,-882 0,-388 -222,-655 -222,-267 -631,-370 z"
       inkscape:connector-curvature="0"
       style="stroke-linecap:butt;stroke-linejoin:round" />
    <path
       transform="scale(0.015625)"
       id="DejaVuSans-36"
       d="m 2113,2584 q -425,0 -674,-291 -248,-290 -248,-796 0,-503 248,-796 249,-292 674,-292 425,0 673,292 248,293 248,796 0,506 -248,796 -248,291 -673,291 z m 1253,1979 v -575 q -238,112 -480,171 -242,60 -480,60 -625,0 -955,-422 -329,-422 -376,-1275 184,272 462,417 279,145 613,145 703,0 1111,-427 408,-426 408,-1160 0,-719 -425,-1154 -425,-434 -1131,-434 -810,0 -1238,620 -428,621 -428,1799 0,1106 525,1764 525,658 1409,658 238,0 480,-47 242,-47 505,-140 z"
       inkscape:connector-curvature="0"
       style="stroke-linecap:butt;stroke-linejoin:round" />
    <path
       transform="scale(0.015625)"
       id="DejaVuSans-61"
       d="m 2194,1759 q -697,0 -966,-159 -269,-159 -269,-544 0,-306 202,-486 202,-179 548,-179 479,0 768,339 289,339 289,901 v 128 z m 1147,238 V 0 H 2766 V 531 Q 2569,213 2275,61 1981,-91 1556,-91 q -537,0 -855,302 -317,302 -317,808 0,590 395,890 396,300 1180,300 h 807 v 57 q 0,397 -261,614 -261,217 -733,217 -300,0 -585,-72 -284,-72 -546,-216 v 532 q 315,122 612,182 297,61 578,61 760,0 1135,-394 375,-393 375,-1193 z"
       inkscape:connector-curvature="0"
       style="stroke-linecap:butt;stroke-linejoin:round" />
    <path
       transform="scale(0.015625)"
       id="DejaVuSans-6e"
       d="M 3513,2113 V 0 h -575 v 2094 q 0,497 -194,743 -194,247 -581,247 -466,0 -735,-297 -269,-296 -269,-809 V 0 H 581 v 3500 h 578 v -544 q 207,316 486,472 280,156 646,156 603,0 912,-373 310,-373 310,-1098 z"
       inkscape:connector-curvature="0"
       style="stroke-linecap:butt;stroke-linejoin:round" />
    <path
       transform="scale(0.015625)"
       id="DejaVuSans-67"
       d="m 2906,1791 q 0,625 -258,968 -257,344 -723,344 -462,0 -720,-344 -258,-343 -258,-968 0,-622 258,-966 258,-344 720,-344 466,0 723,344 258,344 258,966 z M 3481,434 q 0,-893 -397,-1329 -396,-436 -1215,-436 -303,0 -572,45 -269,45 -522,139 v 559 q 253,-137 500,-202 247,-66 503,-66 566,0 847,295 281,295 281,892 V 616 Q 2728,306 2450,153 2172,0 1784,0 1141,0 747,490 353,981 353,1791 q 0,812 394,1302 394,491 1037,491 388,0 666,-153 278,-153 456,-462 v 531 h 575 z"
       inkscape:connector-curvature="0"
       style="stroke-linecap:butt;stroke-linejoin:round" />
    <path
       transform="scale(0.015625)"
       id="DejaVuSans-6c"
       d="m 603,4863 h 575 V 0 H 603 Z"
       inkscape:connector-curvature="0"
       style="stroke-linecap:butt;stroke-linejoin:round" />
    <path
       transform="scale(0.015625)"
       id="DejaVuSans-65"
       d="M 3597,1894 V 1613 H 953 q 38,-594 358,-905 320,-311 892,-311 331,0 642,81 311,81 618,244 V 178 Q 3153,47 2828,-22 2503,-91 2169,-91 1331,-91 842,396 353,884 353,1716 q 0,859 464,1363 464,505 1252,505 706,0 1117,-455 411,-454 411,-1235 z m -575,169 q -6,471 -264,752 -258,282 -683,282 -481,0 -770,-272 -289,-272 -333,-766 z"
       inkscape:connector-curvature="0"
       style="stroke-linecap:butt;stroke-linejoin:round" />
    <path
       transform="scale(0.015625)"
       id="DejaVuSans-20"
       d=""
       inkscape:connector-curvature="0"
       style="stroke-linecap:butt;stroke-linejoin:round" />
    <path
       transform="scale(0.015625)"
       id="DejaVuSans-28"
       d="m 1984,4856 q -418,-718 -622,-1422 -203,-703 -203,-1425 0,-721 205,-1429 205,-708 620,-1424 h -500 q -468,735 -701,1444 -233,709 -233,1409 0,697 231,1403 232,707 703,1444 z"
       inkscape:connector-curvature="0"
       style="stroke-linecap:butt;stroke-linejoin:round" />
    <path
       transform="scale(0.015625)"
       id="DejaVuSans-64"
       d="m 2906,2969 v 1894 h 575 V 0 H 2906 V 525 Q 2725,213 2448,61 2172,-91 1784,-91 1150,-91 751,415 353,922 353,1747 q 0,825 398,1331 399,506 1033,506 388,0 664,-152 277,-151 458,-463 z M 947,1747 q 0,-634 261,-995 261,-361 717,-361 456,0 718,361 263,361 263,995 0,634 -263,995 -262,361 -718,361 -456,0 -717,-361 -261,-361 -261,-995 z"
       inkscape:connector-curvature="0"
       style="stroke-linecap:butt;stroke-linejoin:round" />
    <path
       transform="scale(0.015625)"
       id="DejaVuSans-29"
       d="m 513,4856 h 500 q 468,-737 701,-1444 233,-706 233,-1403 0,-700 -233,-1409 -233,-709 -701,-1444 H 513 q 415,716 620,1424 205,708 205,1429 0,722 -205,1425 -205,704 -620,1422 z"
       inkscape:connector-curvature="0"
       style="stroke-linecap:butt;stroke-linejoin:round" />
    <path
       transform="scale(0.015625)"
       id="DejaVuSans-66"
       d="m 2375,4863 v -479 h -550 q -309,0 -430,-125 -120,-125 -120,-450 v -309 h 947 V 3053 H 1275 V 0 H 697 V 3053 H 147 v 447 h 550 v 244 q 0,584 272,851 272,268 862,268 z"
       inkscape:connector-curvature="0"
       style="stroke-linecap:butt;stroke-linejoin:round" />
    <path
       transform="scale(0.015625)"
       id="DejaVuSans-72"
       d="m 2631,2963 q -97,56 -211,82 -114,27 -251,27 -488,0 -749,-317 -261,-317 -261,-911 V 0 H 581 v 3500 h 578 v -544 q 182,319 472,473 291,155 707,155 59,0 131,-8 72,-7 159,-23 z"
       inkscape:connector-curvature="0"
       style="stroke-linecap:butt;stroke-linejoin:round" />
    <path
       transform="scale(0.015625)"
       id="DejaVuSans-6f"
       d="m 1959,3097 q -462,0 -731,-361 -269,-361 -269,-989 0,-628 267,-989 268,-361 733,-361 460,0 728,362 269,363 269,988 0,622 -269,986 -268,364 -728,364 z m 0,487 q 750,0 1178,-488 429,-487 429,-1349 Q 3566,888 3137,398 2709,-91 1959,-91 1206,-91 779,398 353,888 353,1747 q 0,862 426,1349 427,488 1180,488 z"
       inkscape:connector-curvature="0"
       style="stroke-linecap:butt;stroke-linejoin:round" />
    <path
       transform="scale(0.015625)"
       id="DejaVuSans-6d"
       d="m 3328,2828 q 216,388 516,572 300,184 706,184 547,0 844,-383 297,-382 297,-1088 V 0 h -578 v 2094 q 0,503 -179,746 -178,244 -543,244 -447,0 -707,-297 -259,-296 -259,-809 V 0 h -578 v 2094 q 0,506 -178,748 -178,242 -550,242 -441,0 -701,-298 -259,-298 -259,-808 V 0 H 581 v 3500 h 578 v -544 q 197,322 472,475 275,153 653,153 382,0 649,-194 267,-193 395,-562 z"
       inkscape:connector-curvature="0"
       style="stroke-linecap:butt;stroke-linejoin:round" />
    <path
       transform="scale(0.015625)"
       id="DejaVuSans-63"
       d="m 3122,3366 v -538 q -244,135 -489,202 -245,67 -495,67 -560,0 -870,-355 -309,-354 -309,-995 0,-641 309,-996 310,-354 870,-354 250,0 495,67 245,67 489,202 V 134 Q 2881,22 2623,-34 2366,-91 2075,-91 1284,-91 818,406 353,903 353,1747 q 0,856 470,1346 471,491 1290,491 265,0 518,-55 253,-54 491,-163 z"
       inkscape:connector-curvature="0"
       style="stroke-linecap:butt;stroke-linejoin:round" />
    <path
       transform="scale(0.015625)"
       id="DejaVuSans-74"
       d="M 1172,4494 V 3500 H 2356 V 3053 H 1172 V 1153 q 0,-428 117,-550 117,-122 477,-122 h 590 V 0 H 1766 Q 1100,0 847,248 594,497 594,1153 V 3053 H 172 v 447 h 422 v 994 z"
       inkscape:connector-curvature="0"
       style="stroke-linecap:butt;stroke-linejoin:round" />
    <path
       style="stroke:#000000;stroke-width:0.8;stroke-linecap:butt;stroke-linejoin:round"
       id="m17ad56db27"
       d="M 0,0 H -4"
       inkscape:connector-curvature="0" />
    <path
       transform="scale(0.015625)"
       id="DejaVuSans-32"
       d="M 1228,531 H 3431 V 0 H 469 v 531 q 359,372 979,998 621,627 780,809 303,340 423,576 121,236 121,464 0,372 -261,606 -261,235 -680,235 -297,0 -627,-103 -329,-103 -704,-313 v 638 q 381,153 712,231 332,78 607,78 725,0 1156,-363 431,-362 431,-968 0,-288 -108,-546 -107,-257 -392,-607 -78,-91 -497,-524 Q 1991,1309 1228,531 Z"
       inkscape:connector-curvature="0"
       style="stroke-linecap:butt;stroke-linejoin:round" />
    <path
       transform="scale(0.015625)"
       id="DejaVuSans-34"
       d="M 2419,4116 825,1625 h 1594 z m -166,550 h 794 V 1625 h 666 V 1100 H 3047 V 0 H 2419 V 1100 H 313 v 609 z"
       inkscape:connector-curvature="0"
       style="stroke-linecap:butt;stroke-linejoin:round" />
    <path
       transform="scale(0.015625)"
       id="DejaVuSans-69"
       d="m 603,3500 h 575 V 0 H 603 Z m 0,1363 h 575 V 4134 H 603 Z"
       inkscape:connector-curvature="0"
       style="stroke-linecap:butt;stroke-linejoin:round" />
    <path
       transform="scale(0.015625)"
       id="DejaVuSans-73"
       d="m 2834,3397 v -544 q -243,125 -506,187 -262,63 -544,63 -428,0 -642,-131 -214,-131 -214,-394 0,-200 153,-314 153,-114 616,-217 l 197,-44 q 612,-131 870,-370 258,-239 258,-667 0,-488 -386,-773 Q 2250,-91 1575,-91 1294,-91 989,-36 684,19 347,128 v 594 q 319,-166 628,-249 309,-82 613,-82 406,0 624,139 219,139 219,392 0,234 -158,359 -157,125 -692,241 l -200,47 q -534,112 -772,345 -237,233 -237,639 0,494 350,762 350,269 994,269 318,0 599,-47 282,-46 519,-140 z"
       inkscape:connector-curvature="0"
       style="stroke-linecap:butt;stroke-linejoin:round" />
    <path
       style="stroke:#ffffff;stroke-linecap:butt;stroke-linejoin:round;stroke-opacity:0.00100002"
       id="mc685ade61e"
       d="m 0,2.5e-4 c 6.6e-5,0 1.3e-4,-2.6e-5 1.77e-4,-7.3e-5 C 2.24e-4,1.3e-4 2.5e-4,6.6e-5 2.5e-4,0 c 0,-6.6e-5 -2.6e-5,-1.3e-4 -7.3e-5,-1.77e-4 C 1.3e-4,-2.24e-4 6.6e-5,-2.5e-4 0,-2.5e-4 c -6.6e-5,0 -1.3e-4,2.6e-5 -1.77e-4,7.3e-5 -4.7e-5,4.7e-5 -7.3e-5,1.11e-4 -7.3e-5,1.77e-4 0,6.6e-5 2.6e-5,1.3e-4 7.3e-5,1.77e-4 C -1.3e-4,2.24e-4 -6.6e-5,2.5e-4 0,2.5e-4 Z"
       inkscape:connector-curvature="0" />
    <path
       transform="scale(0.015625)"
       id="DejaVuSans-2e"
       d="m 684,794 h 660 V 0 H 684 Z"
       inkscape:connector-curvature="0"
       style="stroke-linecap:butt;stroke-linejoin:round" />
    <path
       transform="scale(0.015625)"
       id="DejaVuSans-70"
       d="M 1159,525 V -1331 H 581 v 4831 h 578 v -531 q 182,312 458,463 277,152 661,152 638,0 1036,-506 399,-506 399,-1331 0,-825 -399,-1332 -398,-506 -1036,-506 -384,0 -661,152 -276,152 -458,464 z m 1957,1222 q 0,634 -261,995 -261,361 -717,361 -457,0 -718,-361 -261,-361 -261,-995 0,-634 261,-995 261,-361 718,-361 456,0 717,361 261,361 261,995 z"
       inkscape:connector-curvature="0"
       style="stroke-linecap:butt;stroke-linejoin:round" />
    <path
       transform="scale(0.015625)"
       id="DejaVuSans-78"
       d="M 3513,3500 2247,1797 3578,0 H 2900 L 1881,1375 863,0 H 184 L 1544,1831 300,3500 h 678 l 928,-1247 928,1247 z"
       inkscape:connector-curvature="0"
       style="stroke-linecap:butt;stroke-linejoin:round" />
    <path
       transform="scale(0.015625)"
       id="DejaVuSans-75"
       d="m 544,1381 v 2119 h 575 V 1403 q 0,-497 193,-746 194,-248 582,-248 465,0 735,297 271,297 271,810 v 1984 h 575 V 0 H 2900 V 538 Q 2691,219 2414,64 2138,-91 1772,-91 1169,-91 856,284 544,659 544,1381 Z m 1447,2203 z"
       inkscape:connector-curvature="0"
       style="stroke-linecap:butt;stroke-linejoin:round" />
    <path
       transform="scale(0.015625)"
       id="DejaVuSans-7a"
       d="M 353,3500 H 3084 V 2975 L 922,459 H 3084 V 0 H 275 V 525 L 2438,3041 H 353 Z"
       inkscape:connector-curvature="0"
       style="stroke-linecap:butt;stroke-linejoin:round" />
    <path
       transform="scale(0.015625)"
       id="DejaVuSans-68"
       d="M 3513,2113 V 0 h -575 v 2094 q 0,497 -194,743 -194,247 -581,247 -466,0 -735,-297 -269,-296 -269,-809 V 0 H 581 v 4863 h 578 V 2956 q 207,316 486,472 280,156 646,156 603,0 912,-373 310,-373 310,-1098 z"
       inkscape:connector-curvature="0"
       style="stroke-linecap:butt;stroke-linejoin:round" />
    <clipPath
       id="p763297d4c7"
       style="stroke-linecap:butt;stroke-linejoin:round">
      <rect
         id="rect1953"
         y="19.84252"
         x="45.354332"
         width="62.362206"
         height="45.354332"
         style="stroke-linecap:butt;stroke-linejoin:round" />
    </clipPath>
    <style
       id="style2888"
       type="text/css">*{stroke-linecap:butt;stroke-linejoin:round;}</style>
    <path
       style="stroke:#000000;stroke-width:0.8;stroke-linecap:butt;stroke-linejoin:round"
       id="m052465ebe9"
       d="M 0,0 V 3.5"
       inkscape:connector-curvature="0" />
    <path
       transform="scale(0.015625)"
       id="DejaVuSans-2212"
       d="M 678,2272 H 4684 V 1741 H 678 Z"
       inkscape:connector-curvature="0"
       style="stroke-linecap:butt;stroke-linejoin:round" />
    <path
       transform="scale(0.015625)"
       id="DejaVuSans-32-9"
       d="M 1228,531 H 3431 V 0 H 469 v 531 q 359,372 979,998 621,627 780,809 303,340 423,576 121,236 121,464 0,372 -261,606 -261,235 -680,235 -297,0 -627,-103 -329,-103 -704,-313 v 638 q 381,153 712,231 332,78 607,78 725,0 1156,-363 431,-362 431,-968 0,-288 -108,-546 -107,-257 -392,-607 -78,-91 -497,-524 Q 1991,1309 1228,531 Z"
       inkscape:connector-curvature="0"
       style="stroke-linecap:butt;stroke-linejoin:round" />
    <path
       transform="scale(0.015625)"
       id="DejaVuSans-30-1"
       d="m 2034,4250 q -487,0 -733,-480 -245,-479 -245,-1442 0,-959 245,-1439 246,-480 733,-480 491,0 736,480 246,480 246,1439 0,963 -246,1442 -245,480 -736,480 z m 0,500 q 785,0 1199,-621 414,-620 414,-1801 0,-1178 -414,-1799 -414,-620 -1199,-620 -784,0 -1198,620 -414,621 -414,1799 0,1181 414,1801 414,621 1198,621 z"
       inkscape:connector-curvature="0"
       style="stroke-linecap:butt;stroke-linejoin:round" />
    <path
       transform="scale(0.015625)"
       id="DejaVuSans-31"
       d="M 794,531 H 1825 V 4091 L 703,3866 v 575 l 1116,225 h 631 V 531 H 3481 V 0 H 794 Z"
       inkscape:connector-curvature="0"
       style="stroke-linecap:butt;stroke-linejoin:round" />
    <path
       transform="scale(0.015625)"
       id="DejaVuSans-78-8"
       d="M 3513,3500 2247,1797 3578,0 H 2900 L 1881,1375 863,0 H 184 L 1544,1831 300,3500 h 678 l 928,-1247 928,1247 z"
       inkscape:connector-curvature="0"
       style="stroke-linecap:butt;stroke-linejoin:round" />
    <path
       transform="scale(0.015625)"
       id="DejaVuSans-2d"
       d="M 313,2009 H 1997 V 1497 H 313 Z"
       inkscape:connector-curvature="0"
       style="stroke-linecap:butt;stroke-linejoin:round" />
    <path
       transform="scale(0.015625)"
       id="DejaVuSans-63-7"
       d="m 3122,3366 v -538 q -244,135 -489,202 -245,67 -495,67 -560,0 -870,-355 -309,-354 -309,-995 0,-641 309,-996 310,-354 870,-354 250,0 495,67 245,67 489,202 V 134 Q 2881,22 2623,-34 2366,-91 2075,-91 1284,-91 818,406 353,903 353,1747 q 0,856 470,1346 471,491 1290,491 265,0 518,-55 253,-54 491,-163 z"
       inkscape:connector-curvature="0"
       style="stroke-linecap:butt;stroke-linejoin:round" />
    <path
       transform="scale(0.015625)"
       id="DejaVuSans-6f-9"
       d="m 1959,3097 q -462,0 -731,-361 -269,-361 -269,-989 0,-628 267,-989 268,-361 733,-361 460,0 728,362 269,363 269,988 0,622 -269,986 -268,364 -728,364 z m 0,487 q 750,0 1178,-488 429,-487 429,-1349 Q 3566,888 3137,398 2709,-91 1959,-91 1206,-91 779,398 353,888 353,1747 q 0,862 426,1349 427,488 1180,488 z"
       inkscape:connector-curvature="0"
       style="stroke-linecap:butt;stroke-linejoin:round" />
    <path
       transform="scale(0.015625)"
       id="DejaVuSans-72-2"
       d="m 2631,2963 q -97,56 -211,82 -114,27 -251,27 -488,0 -749,-317 -261,-317 -261,-911 V 0 H 581 v 3500 h 578 v -544 q 182,319 472,473 291,155 707,155 59,0 131,-8 72,-7 159,-23 z"
       inkscape:connector-curvature="0"
       style="stroke-linecap:butt;stroke-linejoin:round" />
    <path
       transform="scale(0.015625)"
       id="DejaVuSans-64-0"
       d="m 2906,2969 v 1894 h 575 V 0 H 2906 V 525 Q 2725,213 2448,61 2172,-91 1784,-91 1150,-91 751,415 353,922 353,1747 q 0,825 398,1331 399,506 1033,506 388,0 664,-152 277,-151 458,-463 z M 947,1747 q 0,-634 261,-995 261,-361 717,-361 456,0 718,361 263,361 263,995 0,634 -263,995 -262,361 -718,361 -456,0 -717,-361 -261,-361 -261,-995 z"
       inkscape:connector-curvature="0"
       style="stroke-linecap:butt;stroke-linejoin:round" />
    <path
       transform="scale(0.015625)"
       id="DejaVuSans-20-2"
       d=""
       inkscape:connector-curvature="0"
       style="stroke-linecap:butt;stroke-linejoin:round" />
    <path
       transform="scale(0.015625)"
       id="DejaVuSans-28-3"
       d="m 1984,4856 q -418,-718 -622,-1422 -203,-703 -203,-1425 0,-721 205,-1429 205,-708 620,-1424 h -500 q -468,735 -701,1444 -233,709 -233,1409 0,697 231,1403 232,707 703,1444 z"
       inkscape:connector-curvature="0"
       style="stroke-linecap:butt;stroke-linejoin:round" />
    <path
       transform="scale(0.015625)"
       id="DejaVuSans-6d-7"
       d="m 3328,2828 q 216,388 516,572 300,184 706,184 547,0 844,-383 297,-382 297,-1088 V 0 h -578 v 2094 q 0,503 -179,746 -178,244 -543,244 -447,0 -707,-297 -259,-296 -259,-809 V 0 h -578 v 2094 q 0,506 -178,748 -178,242 -550,242 -441,0 -701,-298 -259,-298 -259,-808 V 0 H 581 v 3500 h 578 v -544 q 197,322 472,475 275,153 653,153 382,0 649,-194 267,-193 395,-562 z"
       inkscape:connector-curvature="0"
       style="stroke-linecap:butt;stroke-linejoin:round" />
    <path
       transform="scale(0.015625)"
       id="DejaVuSans-29-5"
       d="m 513,4856 h 500 q 468,-737 701,-1444 233,-706 233,-1403 0,-700 -233,-1409 -233,-709 -701,-1444 H 513 q 415,716 620,1424 205,708 205,1429 0,722 -205,1425 -205,704 -620,1422 z"
       inkscape:connector-curvature="0"
       style="stroke-linecap:butt;stroke-linejoin:round" />
    <path
       style="stroke:#000000;stroke-width:0.8;stroke-linecap:butt;stroke-linejoin:round"
       id="m8525297e67"
       d="M 0,0 H -3.5"
       inkscape:connector-curvature="0" />
    <path
       transform="scale(0.015625)"
       id="DejaVuSans-35"
       d="M 691,4666 H 3169 V 4134 H 1269 V 2991 q 137,47 274,70 138,23 276,23 781,0 1237,-428 457,-428 457,-1159 Q 3513,744 3044,326 2575,-91 1722,-91 1428,-91 1123,-41 819,9 494,109 v 635 q 281,-153 581,-228 300,-75 634,-75 541,0 856,284 316,284 316,772 0,487 -316,771 -315,285 -856,285 -253,0 -505,-56 -251,-56 -513,-175 z"
       inkscape:connector-curvature="0"
       style="stroke-linecap:butt;stroke-linejoin:round" />
    <path
       transform="scale(0.015625)"
       id="DejaVuSans-7a-4"
       d="M 353,3500 H 3084 V 2975 L 922,459 H 3084 V 0 H 275 V 525 L 2438,3041 H 353 Z"
       inkscape:connector-curvature="0"
       style="stroke-linecap:butt;stroke-linejoin:round" />
    <path
       transform="scale(0.015625)"
       id="DejaVuSans-Oblique-6f"
       d="m 1625,-91 q -616,0 -974,380 -357,380 -357,1036 0,381 123,776 124,396 321,665 309,418 690,618 381,200 863,200 597,0 964,-372 367,-371 367,-971 0,-416 -122,-829 Q 3378,1000 3181,728 2875,309 2494,109 2113,-91 1625,-91 Z M 891,1344 q 0,-475 198,-711 199,-236 602,-236 578,0 957,504 380,505 380,1280 0,453 -203,684 -203,232 -597,232 -325,0 -578,-152 -253,-151 -453,-461 -147,-231 -227,-528 -79,-297 -79,-612 z"
       inkscape:connector-curvature="0"
       style="stroke-linecap:butt;stroke-linejoin:round" />
    <clipPath
       id="pe9f606d1a1"
       style="stroke-linecap:butt;stroke-linejoin:round">
      <rect
         id="rect3157"
         y="23.327999"
         x="43.200001"
         width="267.84"
         height="146.772"
         style="stroke-linecap:butt;stroke-linejoin:round" />
    </clipPath>
    <style
       id="style3684"
       type="text/css">*{stroke-linecap:butt;stroke-linejoin:round;}</style>
    <path
       style="stroke:#000000;stroke-width:0.8;stroke-linecap:butt;stroke-linejoin:round"
       id="m79b95e5f98"
       d="M 0,0 V 3.5"
       inkscape:connector-curvature="0" />
    <path
       transform="scale(0.015625)"
       id="DejaVuSans-2212-5"
       d="M 678,2272 H 4684 V 1741 H 678 Z"
       inkscape:connector-curvature="0"
       style="stroke-linecap:butt;stroke-linejoin:round" />
    <path
       transform="scale(0.015625)"
       id="DejaVuSans-32-4"
       d="M 1228,531 H 3431 V 0 H 469 v 531 q 359,372 979,998 621,627 780,809 303,340 423,576 121,236 121,464 0,372 -261,606 -261,235 -680,235 -297,0 -627,-103 -329,-103 -704,-313 v 638 q 381,153 712,231 332,78 607,78 725,0 1156,-363 431,-362 431,-968 0,-288 -108,-546 -107,-257 -392,-607 -78,-91 -497,-524 Q 1991,1309 1228,531 Z"
       inkscape:connector-curvature="0"
       style="stroke-linecap:butt;stroke-linejoin:round" />
    <path
       transform="scale(0.015625)"
       id="DejaVuSans-30-7"
       d="m 2034,4250 q -487,0 -733,-480 -245,-479 -245,-1442 0,-959 245,-1439 246,-480 733,-480 491,0 736,480 246,480 246,1439 0,963 -246,1442 -245,480 -736,480 z m 0,500 q 785,0 1199,-621 414,-620 414,-1801 0,-1178 -414,-1799 -414,-620 -1199,-620 -784,0 -1198,620 -414,621 -414,1799 0,1181 414,1801 414,621 1198,621 z"
       inkscape:connector-curvature="0"
       style="stroke-linecap:butt;stroke-linejoin:round" />
    <path
       transform="scale(0.015625)"
       id="DejaVuSans-78-2"
       d="M 3513,3500 2247,1797 3578,0 H 2900 L 1881,1375 863,0 H 184 L 1544,1831 300,3500 h 678 l 928,-1247 928,1247 z"
       inkscape:connector-curvature="0"
       style="stroke-linecap:butt;stroke-linejoin:round" />
    <path
       transform="scale(0.015625)"
       id="DejaVuSans-2d-5"
       d="M 313,2009 H 1997 V 1497 H 313 Z"
       inkscape:connector-curvature="0"
       style="stroke-linecap:butt;stroke-linejoin:round" />
    <path
       transform="scale(0.015625)"
       id="DejaVuSans-63-4"
       d="m 3122,3366 v -538 q -244,135 -489,202 -245,67 -495,67 -560,0 -870,-355 -309,-354 -309,-995 0,-641 309,-996 310,-354 870,-354 250,0 495,67 245,67 489,202 V 134 Q 2881,22 2623,-34 2366,-91 2075,-91 1284,-91 818,406 353,903 353,1747 q 0,856 470,1346 471,491 1290,491 265,0 518,-55 253,-54 491,-163 z"
       inkscape:connector-curvature="0"
       style="stroke-linecap:butt;stroke-linejoin:round" />
    <path
       transform="scale(0.015625)"
       id="DejaVuSans-6f-7"
       d="m 1959,3097 q -462,0 -731,-361 -269,-361 -269,-989 0,-628 267,-989 268,-361 733,-361 460,0 728,362 269,363 269,988 0,622 -269,986 -268,364 -728,364 z m 0,487 q 750,0 1178,-488 429,-487 429,-1349 Q 3566,888 3137,398 2709,-91 1959,-91 1206,-91 779,398 353,888 353,1747 q 0,862 426,1349 427,488 1180,488 z"
       inkscape:connector-curvature="0"
       style="stroke-linecap:butt;stroke-linejoin:round" />
    <path
       transform="scale(0.015625)"
       id="DejaVuSans-72-4"
       d="m 2631,2963 q -97,56 -211,82 -114,27 -251,27 -488,0 -749,-317 -261,-317 -261,-911 V 0 H 581 v 3500 h 578 v -544 q 182,319 472,473 291,155 707,155 59,0 131,-8 72,-7 159,-23 z"
       inkscape:connector-curvature="0"
       style="stroke-linecap:butt;stroke-linejoin:round" />
    <path
       transform="scale(0.015625)"
       id="DejaVuSans-64-4"
       d="m 2906,2969 v 1894 h 575 V 0 H 2906 V 525 Q 2725,213 2448,61 2172,-91 1784,-91 1150,-91 751,415 353,922 353,1747 q 0,825 398,1331 399,506 1033,506 388,0 664,-152 277,-151 458,-463 z M 947,1747 q 0,-634 261,-995 261,-361 717,-361 456,0 718,361 263,361 263,995 0,634 -263,995 -262,361 -718,361 -456,0 -717,-361 -261,-361 -261,-995 z"
       inkscape:connector-curvature="0"
       style="stroke-linecap:butt;stroke-linejoin:round" />
    <path
       transform="scale(0.015625)"
       id="DejaVuSans-20-3"
       d=""
       inkscape:connector-curvature="0"
       style="stroke-linecap:butt;stroke-linejoin:round" />
    <path
       transform="scale(0.015625)"
       id="DejaVuSans-28-0"
       d="m 1984,4856 q -418,-718 -622,-1422 -203,-703 -203,-1425 0,-721 205,-1429 205,-708 620,-1424 h -500 q -468,735 -701,1444 -233,709 -233,1409 0,697 231,1403 232,707 703,1444 z"
       inkscape:connector-curvature="0"
       style="stroke-linecap:butt;stroke-linejoin:round" />
    <path
       transform="scale(0.015625)"
       id="DejaVuSans-6d-78"
       d="m 3328,2828 q 216,388 516,572 300,184 706,184 547,0 844,-383 297,-382 297,-1088 V 0 h -578 v 2094 q 0,503 -179,746 -178,244 -543,244 -447,0 -707,-297 -259,-296 -259,-809 V 0 h -578 v 2094 q 0,506 -178,748 -178,242 -550,242 -441,0 -701,-298 -259,-298 -259,-808 V 0 H 581 v 3500 h 578 v -544 q 197,322 472,475 275,153 653,153 382,0 649,-194 267,-193 395,-562 z"
       inkscape:connector-curvature="0"
       style="stroke-linecap:butt;stroke-linejoin:round" />
    <path
       transform="scale(0.015625)"
       id="DejaVuSans-29-6"
       d="m 513,4856 h 500 q 468,-737 701,-1444 233,-706 233,-1403 0,-700 -233,-1409 -233,-709 -701,-1444 H 513 q 415,716 620,1424 205,708 205,1429 0,722 -205,1425 -205,704 -620,1422 z"
       inkscape:connector-curvature="0"
       style="stroke-linecap:butt;stroke-linejoin:round" />
    <path
       style="stroke:#000000;stroke-width:0.8;stroke-linecap:butt;stroke-linejoin:round"
       id="m644001f2b7"
       d="M 0,0 H -3.5"
       inkscape:connector-curvature="0" />
    <path
       transform="scale(0.015625)"
       id="DejaVuSans-31-1"
       d="M 794,531 H 1825 V 4091 L 703,3866 v 575 l 1116,225 h 631 V 531 H 3481 V 0 H 794 Z"
       inkscape:connector-curvature="0"
       style="stroke-linecap:butt;stroke-linejoin:round" />
    <path
       transform="scale(0.015625)"
       id="DejaVuSans-7a-6"
       d="M 353,3500 H 3084 V 2975 L 922,459 H 3084 V 0 H 275 V 525 L 2438,3041 H 353 Z"
       inkscape:connector-curvature="0"
       style="stroke-linecap:butt;stroke-linejoin:round" />
    <path
       transform="scale(0.015625)"
       id="DejaVuSans-Oblique-6f-1"
       d="m 1625,-91 q -616,0 -974,380 -357,380 -357,1036 0,381 123,776 124,396 321,665 309,418 690,618 381,200 863,200 597,0 964,-372 367,-371 367,-971 0,-416 -122,-829 Q 3378,1000 3181,728 2875,309 2494,109 2113,-91 1625,-91 Z M 891,1344 q 0,-475 198,-711 199,-236 602,-236 578,0 957,504 380,505 380,1280 0,453 -203,684 -203,232 -597,232 -325,0 -578,-152 -253,-151 -453,-461 -147,-231 -227,-528 -79,-297 -79,-612 z"
       inkscape:connector-curvature="0"
       style="stroke-linecap:butt;stroke-linejoin:round" />
    <path
       transform="scale(0.015625)"
       id="DejaVuSans-73-7"
       d="m 2834,3397 v -544 q -243,125 -506,187 -262,63 -544,63 -428,0 -642,-131 -214,-131 -214,-394 0,-200 153,-314 153,-114 616,-217 l 197,-44 q 612,-131 870,-370 258,-239 258,-667 0,-488 -386,-773 Q 2250,-91 1575,-91 1294,-91 989,-36 684,19 347,128 v 594 q 319,-166 628,-249 309,-82 613,-82 406,0 624,139 219,139 219,392 0,234 -158,359 -157,125 -692,241 l -200,47 q -534,112 -772,345 -237,233 -237,639 0,494 350,762 350,269 994,269 318,0 599,-47 282,-46 519,-140 z"
       inkscape:connector-curvature="0"
       style="stroke-linecap:butt;stroke-linejoin:round" />
    <path
       transform="scale(0.015625)"
       id="DejaVuSans-65-2"
       d="M 3597,1894 V 1613 H 953 q 38,-594 358,-905 320,-311 892,-311 331,0 642,81 311,81 618,244 V 178 Q 3153,47 2828,-22 2503,-91 2169,-91 1331,-91 842,396 353,884 353,1716 q 0,859 464,1363 464,505 1252,505 706,0 1117,-455 411,-454 411,-1235 z m -575,169 q -6,471 -264,752 -258,282 -683,282 -481,0 -770,-272 -289,-272 -333,-766 z"
       inkscape:connector-curvature="0"
       style="stroke-linecap:butt;stroke-linejoin:round" />
    <path
       transform="scale(0.015625)"
       id="DejaVuSans-6e-2"
       d="M 3513,2113 V 0 h -575 v 2094 q 0,497 -194,743 -194,247 -581,247 -466,0 -735,-297 -269,-296 -269,-809 V 0 H 581 v 3500 h 578 v -544 q 207,316 486,472 280,156 646,156 603,0 912,-373 310,-373 310,-1098 z"
       inkscape:connector-curvature="0"
       style="stroke-linecap:butt;stroke-linejoin:round" />
    <path
       transform="scale(0.015625)"
       id="DejaVuSans-69-6"
       d="m 603,3500 h 575 V 0 H 603 Z m 0,1363 h 575 V 4134 H 603 Z"
       inkscape:connector-curvature="0"
       style="stroke-linecap:butt;stroke-linejoin:round" />
    <path
       transform="scale(0.015625)"
       id="DejaVuSans-61-1"
       d="m 2194,1759 q -697,0 -966,-159 -269,-159 -269,-544 0,-306 202,-486 202,-179 548,-179 479,0 768,339 289,339 289,901 v 128 z m 1147,238 V 0 H 2766 V 531 Q 2569,213 2275,61 1981,-91 1556,-91 q -537,0 -855,302 -317,302 -317,808 0,590 395,890 396,300 1180,300 h 807 v 57 q 0,397 -261,614 -261,217 -733,217 -300,0 -585,-72 -284,-72 -546,-216 v 532 q 315,122 612,182 297,61 578,61 760,0 1135,-394 375,-393 375,-1193 z"
       inkscape:connector-curvature="0"
       style="stroke-linecap:butt;stroke-linejoin:round" />
    <path
       transform="scale(0.015625)"
       id="DejaVuSans-74-0"
       d="M 1172,4494 V 3500 H 2356 V 3053 H 1172 V 1153 q 0,-428 117,-550 117,-122 477,-122 h 590 V 0 H 1766 Q 1100,0 847,248 594,497 594,1153 V 3053 H 172 v 447 h 422 v 994 z"
       inkscape:connector-curvature="0"
       style="stroke-linecap:butt;stroke-linejoin:round" />
    <clipPath
       id="p24098a3d3a"
       style="stroke-linecap:butt;stroke-linejoin:round">
      <rect
         id="rect3945"
         y="11.664"
         x="21.6"
         width="133.92"
         height="73.386002"
         style="stroke-linecap:butt;stroke-linejoin:round" />
    </clipPath>
    <rect
       x="189.74255"
       y="270.36279"
       width="140.06747"
       height="69.219391"
       id="rect9" />
  </defs>
  <sodipodi:namedview
     id="base"
     pagecolor="#ffffff"
     bordercolor="#666666"
     borderopacity="1.0"
     inkscape:pageopacity="1"
     inkscape:pageshadow="2"
     inkscape:zoom="1.2279796"
     inkscape:cx="159.61177"
     inkscape:cy="188.52104"
     inkscape:document-units="mm"
     inkscape:current-layer="g1"
     showgrid="false"
     inkscape:window-width="1312"
     inkscape:window-height="702"
     inkscape:window-x="0"
     inkscape:window-y="38"
     inkscape:window-maximized="0"
     fit-margin-top="0"
     fit-margin-left="0"
     fit-margin-right="0"
     fit-margin-bottom="0"
     inkscape:pagecheckerboard="0"
     inkscape:showpageshadow="0"
     inkscape:deskcolor="#d1d1d1" />
  <metadata
     id="metadata5">
    <rdf:RDF>
      <cc:Work
         rdf:about="">
        <dc:format>image/svg+xml</dc:format>
        <dc:type
           rdf:resource="http://purl.org/dc/dcmitype/StillImage" />
      </cc:Work>
    </rdf:RDF>
  </metadata>
  <g
     inkscape:label="Layer 1"
     inkscape:groupmode="layer"
     id="layer1"
     transform="translate(-2.4244108,-131.13871)"
     style="stroke-linecap:butt;stroke-linejoin:round">
    <text
       xml:space="preserve"
       transform="matrix(0.26458333,0,0,0.26458333,52.433736,108.81499)"
       id="text6813"
       style="font-style:normal;font-weight:normal;font-size:10.6667px;line-height:1.25;font-family:sans-serif;white-space:pre;shape-inside:url(#rect6815);display:inline;fill:#000000;fill-opacity:1;stroke:none;stroke-linecap:butt;stroke-linejoin:round" />
    <flowRoot
       xml:space="preserve"
       id="flowRoot2262"
       style="font-style:normal;font-weight:normal;font-size:40px;line-height:1.25;font-family:sans-serif;letter-spacing:0px;word-spacing:0px;fill:#000000;fill-opacity:1;stroke:none;stroke-linecap:butt;stroke-linejoin:round"
       transform="matrix(0.26458333,0,0,0.26458333,52.433736,108.81499)"><flowRegion
         id="flowRegion2264"
         style="stroke-linecap:butt;stroke-linejoin:round"><rect
           id="rect2266"
           width="24.748737"
           height="58.689861"
           x="-280.01428"
           y="-87.412704"
           style="stroke-linecap:butt;stroke-linejoin:round" /></flowRegion><flowPara
         id="flowPara2268"
         style="stroke-linecap:butt;stroke-linejoin:round" /></flowRoot>
    <g
       id="flowRoot7919"
       style="line-height:1.25;letter-spacing:0px;word-spacing:0px;baseline-shift:baseline;fill:#ff0000"
       transform="matrix(0.26458333,0,0,0.26458333,96.238033,119.42864)"
       aria-label="altitude&#10;range" />
    <path
       style="fill:none;stroke:#666666;stroke-width:0.2;stroke-linecap:butt;stroke-linejoin:miter;stroke-miterlimit:4;stroke-dasharray:0.2, 0.2;stroke-dashoffset:0;stroke-opacity:1"
       d="M 19.927338,191.76657 10.261971,180.63646"
       id="path10"
       inkscape:connector-curvature="0"
       sodipodi:nodetypes="cc" />
    <path
       sodipodi:nodetypes="cc"
       inkscape:connector-curvature="0"
       id="path4784"
       d="M 32.266469,212.79338 7.7662143,175.54997"
       style="fill:#0000ff;stroke:#ff0000;stroke-width:0.1;stroke-linecap:butt;stroke-linejoin:miter;stroke-miterlimit:4;stroke-dasharray:0.1, 0.2;stroke-dashoffset:0;stroke-opacity:1" />
    <path
       sodipodi:nodetypes="cc"
       inkscape:connector-curvature="0"
       id="path4786"
       d="M 32.266469,141.90421 7.7662143,175.54997"
       style="fill:none;stroke:#ff0000;stroke-width:0.1;stroke-linecap:butt;stroke-linejoin:miter;stroke-miterlimit:4;stroke-dasharray:0.1, 0.2;stroke-dashoffset:0;stroke-opacity:1" />
    <g
       id="g4293"
       transform="matrix(1.2845397,0,0,1.2845397,-83.784045,15.911531)"
       style="stroke:#999999;stroke-linecap:butt;stroke-linejoin:round">
      <path
         style="fill:none;stroke:#999999;stroke-width:0.264583px;stroke-linecap:butt;stroke-linejoin:miter;stroke-opacity:1"
         d="m 71.936629,122.04602 c 0,0 7.094621,12.24599 -4.742283,4.1182"
         id="path4531"
         inkscape:connector-curvature="0" />
      <path
         style="fill:none;stroke:#999999;stroke-width:0.1;stroke-linecap:butt;stroke-linejoin:miter;stroke-miterlimit:4;stroke-dasharray:none;stroke-opacity:1"
         d="m 72.489513,127.98178 -1.816246,4.94004"
         id="path4533"
         inkscape:connector-curvature="0"
         sodipodi:nodetypes="cc" />
      <path
         sodipodi:nodetypes="cc"
         inkscape:connector-curvature="0"
         id="path4535"
         d="m 71.17213,127.47251 -1.816247,4.94004"
         style="fill:none;stroke:#999999;stroke-width:0.1;stroke-linecap:butt;stroke-linejoin:miter;stroke-miterlimit:4;stroke-dasharray:none;stroke-opacity:1" />
      <path
         style="fill:none;stroke:#999999;stroke-width:0.1;stroke-linecap:butt;stroke-linejoin:miter;stroke-miterlimit:4;stroke-dasharray:none;stroke-opacity:1"
         d="m 71.82725,127.77654 -1.816246,4.94003"
         id="path4537"
         inkscape:connector-curvature="0"
         sodipodi:nodetypes="cc" />
      <path
         style="fill:none;stroke:#999999;stroke-width:0.1;stroke-linecap:butt;stroke-linejoin:miter;stroke-miterlimit:4;stroke-dasharray:none;stroke-opacity:1"
         d="m 70.507726,127.15778 -1.816246,4.94004"
         id="path4539"
         inkscape:connector-curvature="0"
         sodipodi:nodetypes="cc" />
      <ellipse
         style="stroke:#999999;stroke-width:0.1;stroke-linecap:butt;stroke-linejoin:round;stroke-miterlimit:4;stroke-dasharray:none;stroke-dashoffset:0"
         id="path4541"
         cx="27.519627"
         cy="-140.70346"
         rx="0.35435268"
         ry="0.34254089"
         transform="rotate(139.02898)" />
      <ellipse
         ry="0.34254089"
         rx="0.35435268"
         cy="-140.70346"
         cx="30.165424"
         id="ellipse4543"
         style="stroke:#999999;stroke-width:0.1;stroke-linecap:butt;stroke-linejoin:round;stroke-miterlimit:4;stroke-dasharray:none;stroke-dashoffset:0"
         transform="rotate(139.02898)" />
      <path
         sodipodi:nodetypes="cc"
         inkscape:connector-curvature="0"
         id="path4545"
         d="m 73.081148,127.46801 5.145842,-1.10584"
         style="fill:none;stroke:#999999;stroke-width:0.1;stroke-linecap:butt;stroke-linejoin:miter;stroke-miterlimit:4;stroke-dasharray:none;stroke-opacity:1" />
      <path
         style="fill:none;stroke:#999999;stroke-width:0.1;stroke-linecap:butt;stroke-linejoin:miter;stroke-miterlimit:4;stroke-dasharray:none;stroke-opacity:1"
         d="m 72.761567,126.09224 5.14584,-1.10583"
         id="path4547"
         inkscape:connector-curvature="0"
         sodipodi:nodetypes="cc" />
      <path
         sodipodi:nodetypes="cc"
         inkscape:connector-curvature="0"
         id="path4549"
         d="m 72.97076,126.78352 5.145841,-1.10584"
         style="fill:none;stroke:#999999;stroke-width:0.1;stroke-linecap:butt;stroke-linejoin:miter;stroke-miterlimit:4;stroke-dasharray:none;stroke-opacity:1" />
      <ellipse
         style="fill:#cccccc;stroke:#999999;stroke-width:0.3;stroke-linecap:butt;stroke-linejoin:round;stroke-miterlimit:4;stroke-dasharray:none;stroke-dashoffset:0"
         id="path4555"
         cx="29.873165"
         cy="-138.56598"
         rx="0.96897948"
         ry="1.1212013"
         transform="rotate(139.02898)" />
      <path
         style="fill:none;stroke:#999999;stroke-width:0.1;stroke-linecap:butt;stroke-linejoin:miter;stroke-miterlimit:4;stroke-dasharray:none;stroke-opacity:1"
         d="m 72.543075,125.39028 5.145837,-1.10583"
         id="path5273"
         inkscape:connector-curvature="0"
         sodipodi:nodetypes="cc" />
    </g>
    <path
       style="fill:none;stroke:#666666;stroke-width:0.2;stroke-linecap:butt;stroke-linejoin:miter;stroke-miterlimit:4;stroke-dasharray:none;stroke-opacity:1;marker-start:url(#Arrow1Sstart);marker-end:url(#Arrow1Send)"
       d="m 20.570728,176.07773 c -0.10584,3.44307 -2.31798,7.02818 -5.410957,8.55486"
       id="path1208"
       inkscape:connector-curvature="0"
       sodipodi:nodetypes="cc" />
    <path
       sodipodi:nodetypes="cc"
       inkscape:connector-curvature="0"
       id="path1478"
       d="m 20.134067,160.63106 c 6.226829,7.83855 6.614904,27.84938 2.464605,35.5726"
       style="fill:none;stroke:#ff0000;stroke-width:0.180739px;stroke-linecap:butt;stroke-linejoin:miter;stroke-opacity:1;marker-start:url(#marker2292);marker-end:url(#marker2398)" />
    <path
       style="fill:none;stroke:#000000;stroke-width:0.264583;stroke-linecap:butt;stroke-linejoin:miter;stroke-miterlimit:4;stroke-dasharray:0.264583, 0.264583;stroke-dashoffset:0;stroke-opacity:1;marker-start:url(#marker1570);marker-end:url(#marker1640)"
       d="m 30.909502,188.39051 3.855947,1.72225"
       id="path1566"
       inkscape:connector-curvature="0"
       sodipodi:nodetypes="cc" />
    <path
       sodipodi:nodetypes="cc"
       inkscape:connector-curvature="0"
       id="path5429"
       d="m 38.939186,131.8809 v 91.02093"
       style="fill:none;stroke:#000000;stroke-width:0.264583;stroke-linecap:butt;stroke-linejoin:miter;stroke-miterlimit:4;stroke-dasharray:0.264583, 0.264583;stroke-dashoffset:0;stroke-opacity:1;marker-start:url(#marker5849);marker-end:url(#marker5967)" />
    <path
       style="fill:none;stroke:#666666;stroke-width:0.264583;stroke-linecap:butt;stroke-linejoin:miter;stroke-miterlimit:4;stroke-dasharray:0.264583, 0.264583;stroke-dashoffset:0;stroke-opacity:1;marker-start:url(#marker6271);marker-end:url(#marker6401)"
       d="m 30.727252,175.37441 -20.9617477,0.2446"
       id="path7529"
       inkscape:connector-curvature="0"
       sodipodi:nodetypes="cc" />
    <path
       sodipodi:nodetypes="cccc"
       inkscape:connector-curvature="0"
       id="path5229"
       d="m 36.499789,131.32088 -4.23332,10.58333 v 70.88917 l 4.23332,10.58333"
       style="fill:#cccccc;stroke:#000000;stroke-width:0.981;stroke-linecap:butt;stroke-linejoin:miter;stroke-miterlimit:4;stroke-dasharray:none;stroke-opacity:1" />
    <path
       sodipodi:nodetypes="cc"
       inkscape:connector-curvature="0"
       id="path5401"
       d="m 36.499789,223.90588 v -92.585"
       style="fill:#cccccc;stroke:#000000;stroke-width:0.981;stroke-linecap:butt;stroke-linejoin:miter;stroke-miterlimit:4;stroke-dasharray:none;stroke-opacity:1" />
    <path
       style="fill:none;stroke:#999999;stroke-width:0.339867px;stroke-linecap:butt;stroke-linejoin:miter;stroke-opacity:1"
       d="m 54.991076,180.71423 c 0,0 16.999631,6.44298 -1.38317,7.94853"
       id="path1084"
       inkscape:connector-curvature="0" />
    <ellipse
       style="fill:#666666;stroke-width:0.128454;stroke-linecap:butt;stroke-linejoin:round;stroke-miterlimit:4;stroke-dasharray:none;stroke-dashoffset:0"
       id="ellipse1094"
       cx="64.121193"
       cy="-181.39255"
       rx="0.45518008"
       ry="0.44000736"
       transform="rotate(143.32447)" />
    <path
       sodipodi:nodetypes="cc"
       inkscape:connector-curvature="0"
       id="path1098"
       d="m 56.800563,186.92431 3.90445,5.51959"
       style="fill:none;stroke:#999999;stroke-width:0.128454;stroke-linecap:butt;stroke-linejoin:miter;stroke-miterlimit:4;stroke-dasharray:none;stroke-opacity:1"
       inkscape:transform-center-x="-0.52837999"
       inkscape:transform-center-y="-1.2913253" />
    <path
       style="fill:none;stroke:#999999;stroke-width:0.128454;stroke-linecap:butt;stroke-linejoin:miter;stroke-miterlimit:4;stroke-dasharray:none;stroke-opacity:1"
       d="m 58.264183,185.85218 3.904417,5.51958"
       id="path1100"
       inkscape:connector-curvature="0"
       sodipodi:nodetypes="cc"
       inkscape:transform-center-x="-1.9919851"
       inkscape:transform-center-y="-2.3634568" />
    <path
       sodipodi:nodetypes="cc"
       inkscape:connector-curvature="0"
       id="path1102"
       d="m 57.553323,186.44831 3.90442,5.51958"
       style="fill:none;stroke:#999999;stroke-width:0.128454;stroke-linecap:butt;stroke-linejoin:miter;stroke-miterlimit:4;stroke-dasharray:none;stroke-opacity:1"
       inkscape:transform-center-x="-1.281125"
       inkscape:transform-center-y="-1.7673238" />
    <ellipse
       style="fill:#cccccc;stroke:#999999;stroke-width:0.385362;stroke-linecap:butt;stroke-linejoin:round;stroke-miterlimit:4;stroke-dasharray:none;stroke-dashoffset:0"
       id="ellipse1104"
       cx="179.81396"
       cy="-55.939819"
       rx="0.62018389"
       ry="1.4894849"
       transform="rotate(91.061107)" />
    <path
       style="fill:none;stroke:#999999;stroke-width:0.128454;stroke-linecap:butt;stroke-linejoin:miter;stroke-miterlimit:4;stroke-dasharray:none;stroke-opacity:1"
       d="m 58.982973,185.23967 3.904417,5.51959"
       id="path1106"
       inkscape:connector-curvature="0"
       sodipodi:nodetypes="cc"
       inkscape:transform-center-x="-2.7107751"
       inkscape:transform-center-y="-2.9759648" />
    <path
       style="fill:none;stroke:#000000;stroke-width:0.264583;stroke-linecap:butt;stroke-linejoin:miter;stroke-miterlimit:4;stroke-dasharray:0.264583, 0.264583;stroke-dashoffset:0;stroke-opacity:1;marker-start:url(#marker5433);marker-end:url(#marker5515)"
       d="m 89.582839,148.17122 0.05891,51.69614"
       id="path1116"
       inkscape:connector-curvature="0"
       sodipodi:nodetypes="cc" />
    <g
       id="g3"
       transform="rotate(24.927669,131.39377,191.0318)">
      <path
         style="fill:#cccccc;stroke:#000000;stroke-width:0.981;stroke-linecap:butt;stroke-linejoin:miter;stroke-miterlimit:4;stroke-dasharray:none;stroke-opacity:1"
         d="m 74.233142,170.07527 0.508417,11.38725 12.86863,28.42433 8.221434,7.8953"
         id="path1150"
         inkscape:connector-curvature="0"
         sodipodi:nodetypes="cccc" />
      <path
         style="fill:#cccccc;stroke:#000000;stroke-width:0.863703;stroke-linecap:butt;stroke-linejoin:miter;stroke-miterlimit:4;stroke-dasharray:none;stroke-opacity:1"
         d="M 95.731153,217.82765 74.251976,170.38427"
         id="path1152"
         inkscape:connector-curvature="0"
         sodipodi:nodetypes="cc" />
    </g>
    <g
       id="flowRoot4649"
       style="line-height:1.25;letter-spacing:0px;word-spacing:0px;baseline-shift:baseline;fill:#ff0000"
       transform="matrix(0.26458333,0,0,0.26458333,120.16707,82.356658)"
       aria-label="visual field covered:&#10;- azimuth: [-57,57] deg&#10;- altitude: [-40,40] deg">
      <g
         id="g1">
        <path
           style="baseline-shift:baseline;stroke-width:1.44994"
           d="m -254.91472,219.7489 h 1.65666 l 2.9735,7.98597 2.9735,-7.98597 h 1.65667 l -3.56821,9.5152 h -2.12392 z m 11.41824,0 h 1.56322 v 9.5152 h -1.56322 z m 0,-3.70414 h 1.56322 v 1.97951 h -1.56322 z m 10.90001,3.9845 v 1.47825 c -0.44178,-0.22655 -0.90054,-0.39646 -1.37631,-0.50974 -0.47577,-0.11324 -0.96851,-0.16992 -1.47825,-0.16992 -0.77594,0 -1.35932,0.1189 -1.75012,0.35683 -0.38515,0.23788 -0.57771,0.59469 -0.57771,1.07046 0,0.36248 0.13876,0.6485 0.41629,0.85806 0.27753,0.2039 0.83541,0.39929 1.67366,0.58621 l 0.53523,0.11889 c 1.11011,0.23789 1.89737,0.57489 2.3618,1.011 0.4701,0.43044 0.70515,1.03364 0.70515,1.80959 0,0.88355 -0.35116,1.58302 -1.05347,2.09843 -0.69665,0.51541 -1.65667,0.77311 -2.88005,0.77311 -0.50974,0 -1.04214,-0.051 -1.59719,-0.15291 -0.5494,-0.0963 -1.12994,-0.24353 -1.74162,-0.44178 v -1.61419 c 0.5777,0.30018 1.14691,0.52674 1.70763,0.67966 0.56072,0.14726 1.11577,0.22088 1.66517,0.22088 0.73629,0 1.30268,-0.12455 1.69913,-0.3738 0.39647,-0.25487 0.59471,-0.61169 0.59471,-1.07046 0,-0.42479 -0.14441,-0.75046 -0.43329,-0.97701 -0.28318,-0.22656 -0.90903,-0.44461 -1.87755,-0.65417 l -0.54372,-0.12745 c -0.96852,-0.2039 -1.66799,-0.51541 -2.09844,-0.93454 -0.43045,-0.42479 -0.64568,-1.00533 -0.64568,-1.74162 0,-0.89489 0.31717,-1.58587 0.95152,-2.07294 0.63435,-0.4871 1.53489,-0.73064 2.70164,-0.73064 0.57771,0 1.12143,0.0425 1.63117,0.12745 0.50976,0.085 0.97985,0.2124 1.4103,0.3823 z m 2.83757,5.47974 v -5.7601 h 1.56321 v 5.70062 c 0,0.90054 0.17558,1.57737 0.52674,2.03048 0.35116,0.44743 0.87789,0.67116 1.58019,0.67116 0.84391,0 1.50942,-0.26904 1.99649,-0.80709 0.49276,-0.53806 0.73914,-1.27153 0.73914,-2.20038 v -5.39479 h 1.56322 v 9.5152 h -1.56322 v -1.46126 c -0.37948,0.57771 -0.82126,1.00815 -1.32533,1.29134 -0.49842,0.27753 -1.07896,0.41629 -1.74162,0.41629 -1.09312,0 -1.92286,-0.33982 -2.48925,-1.01948 -0.56639,-0.67965 -0.84957,-1.67366 -0.84957,-2.98199 z m 15.51318,-1.02799 c -1.26303,0 -2.13809,0.14441 -2.62518,0.43328 -0.48708,0.28886 -0.73063,0.7816 -0.73063,1.47826 0,0.55505 0.18124,0.99683 0.54373,1.32534 0.36815,0.32283 0.86657,0.48425 1.49524,0.48425 0.86656,0 1.56038,-0.30585 2.08145,-0.91754 0.52674,-0.61735 0.79011,-1.43577 0.79011,-2.45526 v -0.34833 z m 3.11792,-0.64567 v 5.42876 h -1.5632 v -1.44427 c -0.35682,0.5777 -0.80144,1.00532 -1.33384,1.28285 -0.5324,0.27186 -1.18373,0.40779 -1.95401,0.40779 -0.97416,0 -1.75011,-0.27186 -2.32782,-0.81559 -0.57205,-0.54939 -0.85808,-1.28284 -0.85808,-2.20038 0,-1.07047 0.35682,-1.87756 1.07046,-2.42129 0.7193,-0.54372 1.78977,-0.81559 3.21139,-0.81559 h 2.1919 v -0.15291 c 0,-0.71931 -0.23788,-1.27436 -0.71365,-1.66516 -0.47009,-0.39647 -1.13276,-0.59471 -1.988,-0.59471 -0.54373,0 -1.07329,0.0651 -1.5887,0.19541 -0.51541,0.13021 -1.01098,0.32566 -1.48675,0.5862 v -1.44427 c 0.57205,-0.2209 1.12711,-0.38515 1.66517,-0.49275 0.53805,-0.11324 1.06196,-0.16991 1.5717,-0.16991 1.37631,0 2.4043,0.35681 3.08395,1.07045 0.67966,0.71365 1.01948,1.79543 1.01948,3.24537 z m 3.21988,-7.79058 h 1.56321 v 13.21934 h -1.56321 z m 18.05341,3.70414 v 9.5152 h -1.57172 v -8.30032 h -4.29033 v 8.30032 h -1.57172 v -8.30032 h -1.49524 v -1.21488 h 1.49524 v -0.66267 c 0,-1.03647 0.24355,-1.80108 0.73064,-2.29384 0.49275,-0.49842 1.24603,-0.74763 2.25986,-0.74763 h 1.57171 v 1.29985 h -1.49524 c -0.56072,0 -0.95152,0.11324 -1.17242,0.33982 -0.21522,0.22656 -0.32283,0.63435 -0.32283,1.22339 v 0.84108 z m -1.57172,-3.68715 h 1.57172 v 1.97951 h -1.57172 z m 12.98146,8.05395 v 0.76461 h -7.18737 c 0.068,1.07612 0.39079,1.89738 0.9685,2.46376 0.58338,0.56071 1.3933,0.84107 2.42979,0.84107 0.60036,0 1.1809,-0.0736 1.74161,-0.22088 0.56638,-0.14727 1.1271,-0.36815 1.68215,-0.66266 v 1.47825 c -0.56071,0.23788 -1.13559,0.41912 -1.72463,0.54373 -0.58903,0.12455 -1.18657,0.18689 -1.7926,0.18689 -1.51789,0 -2.72145,-0.44178 -3.61067,-1.32533 -0.88355,-0.88354 -1.32533,-2.07861 -1.32533,-3.58518 0,-1.55755 0.41912,-2.79226 1.25736,-3.70414 0.8439,-0.91753 1.97951,-1.3763 3.40678,-1.3763 1.28002,0 2.29101,0.41346 3.03298,1.24037 0.74763,0.82126 1.12143,1.93986 1.12143,3.35581 z m -1.56322,-0.45878 c -0.0116,-0.85523 -0.25202,-1.53771 -0.72214,-2.04745 -0.46443,-0.50976 -1.08178,-0.76463 -1.85206,-0.76463 -0.87222,0 -1.5717,0.24638 -2.09843,0.73914 -0.52108,0.49274 -0.82126,1.18655 -0.90056,2.08144 z m 4.12893,-7.61216 h 1.5632 v 13.21934 h -1.5632 z m 11.0954,5.14842 v -5.14842 h 1.56322 v 13.21934 h -1.56322 v -1.42727 c -0.3285,0.56637 -0.74479,0.98832 -1.24887,1.26585 -0.49842,0.27186 -1.09878,0.40779 -1.80108,0.40779 -1.14976,0 -2.08713,-0.45876 -2.8121,-1.37629 -0.7193,-0.91753 -1.07895,-2.12394 -1.07895,-3.61919 0,-1.49524 0.35965,-2.70163 1.07895,-3.61917 0.72497,-0.91753 1.66234,-1.3763 2.8121,-1.3763 0.7023,0 1.30266,0.13876 1.80108,0.41629 0.50408,0.27186 0.92037,0.69098 1.24887,1.25737 z m -5.32682,3.32181 c 0,1.14976 0.23505,2.05313 0.70515,2.71014 0.47577,0.65134 1.12711,0.97701 1.95402,0.97701 0.82691,0 1.47825,-0.32567 1.95401,-0.97701 0.47576,-0.65701 0.71364,-1.56038 0.71364,-2.71014 0,-1.14975 -0.23788,-2.05029 -0.71364,-2.70163 -0.47576,-0.65701 -1.1271,-0.98551 -1.95401,-0.98551 -0.82691,0 -1.47825,0.3285 -1.95402,0.98551 -0.4701,0.65134 -0.70515,1.55188 -0.70515,2.70163 z"
           id="path1"
           sodipodi:nodetypes="ccccccccccccccccccccsscsccccscsccccscsccccssssscsccscscsccccccsssssscscscssccccscscscscsscccsssccccccccccccccccsssccscscccccccscccscccsscscscsccscccccccccccccccscscsccscscscscs" />
        <path
           d="m 193.86719,283.11754 0.20312,1.24219 q -0.59375,0.125 -1.0625,0.125 -0.76562,0 -1.1875,-0.24219 -0.42187,-0.24219 -0.59375,-0.63281 -0.17187,-0.39844 -0.17187,-1.66407 v -4.77343 h -1.03125 v -1.09375 h 1.03125 v -2.05469 l 1.39843,-0.84375 v 2.89844 h 1.41407 v 1.09375 h -1.41407 v 4.85156 q 0,0.60156 0.0703,0.77344 0.0781,0.17187 0.24218,0.27343 0.17188,0.10157 0.48438,0.10157 0.23437,0 0.61719,-0.0547 z m 0.85156,-2.89063 q 0,-2.30468 1.28125,-3.41406 1.07031,-0.92187 2.60937,-0.92187 1.71094,0 2.79688,1.125 1.08594,1.11718 1.08594,3.09375 0,1.60156 -0.48438,2.52343 -0.47656,0.91407 -1.39844,1.42188 -0.91406,0.50781 -2,0.50781 -1.74218,0 -2.82031,-1.11719 -1.07031,-1.11718 -1.07031,-3.21875 z m 1.44531,0 q 0,1.59375 0.69531,2.39063 0.69532,0.78906 1.75,0.78906 1.04688,0 1.74219,-0.79687 0.69531,-0.79688 0.69531,-2.42969 0,-1.53906 -0.70312,-2.32813 -0.69531,-0.79687 -1.73438,-0.79687 -1.05468,0 -1.75,0.78906 -0.69531,0.78906 -0.69531,2.38281 z m 7.97656,7.32813 v -11.47656 h 1.28125 v 1.07812 q 0.45313,-0.63281 1.02344,-0.94531 0.57031,-0.32031 1.38281,-0.32031 1.0625,0 1.875,0.54687 0.8125,0.54688 1.22657,1.54688 0.41406,0.99218 0.41406,2.17968 0,1.27344 -0.46094,2.29688 -0.45312,1.01562 -1.32812,1.5625 -0.86719,0.53906 -1.82813,0.53906 -0.70312,0 -1.26562,-0.29687 -0.55469,-0.29688 -0.91407,-0.75 v 4.03906 z m 1.27344,-7.28125 q 0,1.60156 0.64844,2.36719 0.64844,0.76562 1.57031,0.76562 0.9375,0 1.60156,-0.78906 0.67188,-0.79688 0.67188,-2.46094 0,-1.58594 -0.65625,-2.375 -0.64844,-0.78906 -1.55469,-0.78906 -0.89844,0 -1.59375,0.84375 -0.6875,0.83594 -0.6875,2.4375 z m 14.375,4.10156 -3.15625,-8.29687 h 1.48438 l 1.78125,4.96875 q 0.28906,0.80468 0.53125,1.67187 0.1875,-0.65625 0.52343,-1.57812 l 1.84375,-5.0625 h 1.44532 l -3.14063,8.29687 z m 5.70313,-9.83594 v -1.61718 h 1.40625 v 1.61718 z m 0,9.83594 v -8.29687 h 1.40625 v 8.29687 z m 9.22656,-2.67187 1.45312,0.17968 q -0.34375,1.27344 -1.27343,1.97657 -0.92969,0.70312 -2.375,0.70312 -1.82032,0 -2.89063,-1.11719 -1.0625,-1.125 -1.0625,-3.14843 0,-2.09375 1.07813,-3.25 1.07812,-1.15625 2.79687,-1.15625 1.66406,0 2.71875,1.13281 1.05469,1.13281 1.05469,3.1875 0,0.125 -0.008,0.375 h -6.1875 q 0.0781,1.36719 0.77343,2.09375 0.69532,0.72656 1.73438,0.72656 0.77344,0 1.32031,-0.40625 0.54688,-0.40625 0.86719,-1.29687 z m -4.61719,-2.27344 h 4.63281 q -0.0937,-1.04688 -0.53125,-1.57031 -0.67187,-0.8125 -1.74218,-0.8125 -0.96875,0 -1.63282,0.64843 -0.65625,0.64844 -0.72656,1.73438 z m 9.36719,4.94531 -2.53906,-8.29687 h 1.45312 l 1.32031,4.78906 0.49219,1.78125 q 0.0312,-0.13281 0.42969,-1.71094 l 1.32031,-4.85937 h 1.44531 l 1.24219,4.8125 0.41406,1.58593 0.47657,-1.60156 1.42187,-4.79687 h 1.36719 l -2.59375,8.29687 h -1.46094 l -1.32031,-4.96875 -0.32031,-1.41406 -1.67969,6.38281 z"
           id="text8"
           style="font-size:16px;line-height:1.2;font-family:Arial;-inkscape-font-specification:Arial;white-space:pre;fill:#4d4d4d;fill-rule:evenodd;stroke-width:5.42362;paint-order:markers fill stroke"
           transform="translate(-622.539,200.66002)"
           aria-label="top view" />
        <path
           d="m 190.23437,281.89879 1.39063,-0.21875 q 0.11719,0.83594 0.64844,1.28125 0.53906,0.44531 1.5,0.44531 0.96875,0 1.4375,-0.39062 0.46875,-0.39844 0.46875,-0.92969 0,-0.47656 -0.41407,-0.75 -0.28906,-0.1875 -1.4375,-0.47656 -1.54687,-0.39063 -2.14843,-0.67188 -0.59375,-0.28906 -0.90625,-0.78906 -0.30469,-0.50781 -0.30469,-1.11719 0,-0.55469 0.25,-1.02344 0.25781,-0.47656 0.69531,-0.78906 0.32813,-0.24219 0.89063,-0.40625 0.57031,-0.17187 1.21875,-0.17187 0.97656,0 1.71093,0.28125 0.74219,0.28125 1.09375,0.76562 0.35157,0.47656 0.48438,1.28125 l -1.375,0.1875 q -0.0937,-0.64062 -0.54688,-1 -0.44531,-0.35937 -1.26562,-0.35937 -0.96875,0 -1.38281,0.32031 -0.41407,0.32031 -0.41407,0.75 0,0.27344 0.17188,0.49219 0.17187,0.22656 0.53906,0.375 0.21094,0.0781 1.24219,0.35937 1.49219,0.39844 2.07812,0.65625 0.59375,0.25 0.92969,0.73438 0.33594,0.48437 0.33594,1.20312 0,0.70313 -0.41406,1.32813 -0.40625,0.61718 -1.17969,0.96093 -0.77344,0.33594 -1.75,0.33594 -1.61719,0 -2.46875,-0.67187 -0.84375,-0.67188 -1.07813,-1.99219 z m 8.57032,-7.35938 v -1.61718 h 1.40625 v 1.61718 z m 0,9.83594 v -8.29687 h 1.40625 v 8.29687 z m 8.92968,0 v -1.04687 q -0.78906,1.23437 -2.32031,1.23437 -0.99219,0 -1.82812,-0.54687 -0.82813,-0.54688 -1.28907,-1.52344 -0.45312,-0.98438 -0.45312,-2.25781 0,-1.24219 0.41406,-2.25 0.41406,-1.01563 1.24219,-1.55469 0.82812,-0.53906 1.85156,-0.53906 0.75,0 1.33594,0.32031 0.58594,0.3125 0.95312,0.82031 v -4.10937 h 1.39844 v 11.45312 z m -4.44531,-4.14062 q 0,1.59375 0.67188,2.38281 0.67187,0.78906 1.58593,0.78906 0.92188,0 1.5625,-0.75 0.64844,-0.75781 0.64844,-2.30469 0,-1.70312 -0.65625,-2.5 -0.65625,-0.79687 -1.61719,-0.79687 -0.9375,0 -1.57031,0.76562 -0.625,0.76563 -0.625,2.41407 z m 13.64063,1.46875 1.45312,0.17968 q -0.34375,1.27344 -1.27344,1.97657 -0.92968,0.70312 -2.375,0.70312 -1.82031,0 -2.89062,-1.11719 -1.0625,-1.125 -1.0625,-3.14843 0,-2.09375 1.07812,-3.25 1.07813,-1.15625 2.79688,-1.15625 1.66406,0 2.71875,1.13281 1.05469,1.13281 1.05469,3.1875 0,0.125 -0.008,0.375 h -6.1875 q 0.0781,1.36719 0.77344,2.09375 0.69531,0.72656 1.73438,0.72656 0.77343,0 1.32031,-0.40625 0.54687,-0.40625 0.86719,-1.29687 z m -4.61719,-2.27344 h 4.63281 q -0.0937,-1.04688 -0.53125,-1.57031 -0.67187,-0.8125 -1.74219,-0.8125 -0.96875,0 -1.63281,0.64843 -0.65625,0.64844 -0.72656,1.73438 z m 14.58594,4.94531 -3.15625,-8.29687 h 1.48437 l 1.78125,4.96875 q 0.28906,0.80468 0.53125,1.67187 0.1875,-0.65625 0.52344,-1.57812 l 1.84375,-5.0625 h 1.44531 l -3.14062,8.29687 z m 5.70312,-9.83594 v -1.61718 h 1.40625 v 1.61718 z m 0,9.83594 v -8.29687 h 1.40625 v 8.29687 z m 9.22656,-2.67187 1.45313,0.17968 q -0.34375,1.27344 -1.27344,1.97657 -0.92969,0.70312 -2.375,0.70312 -1.82031,0 -2.89062,-1.11719 -1.0625,-1.125 -1.0625,-3.14843 0,-2.09375 1.07812,-3.25 1.07813,-1.15625 2.79688,-1.15625 1.66406,0 2.71875,1.13281 1.05468,1.13281 1.05468,3.1875 0,0.125 -0.008,0.375 h -6.1875 q 0.0781,1.36719 0.77344,2.09375 0.69531,0.72656 1.73437,0.72656 0.77344,0 1.32032,-0.40625 0.54687,-0.40625 0.86718,-1.29687 z m -4.61718,-2.27344 h 4.63281 q -0.0937,-1.04688 -0.53125,-1.57031 -0.67188,-0.8125 -1.74219,-0.8125 -0.96875,0 -1.63281,0.64843 -0.65625,0.64844 -0.72656,1.73438 z m 9.36718,4.94531 -2.53906,-8.29687 h 1.45313 l 1.32031,4.78906 0.49219,1.78125 q 0.0312,-0.13281 0.42968,-1.71094 l 1.32032,-4.85937 H 250.5 l 1.24219,4.8125 0.41406,1.58593 0.47656,-1.60156 1.42188,-4.79687 h 1.36718 l -2.59375,8.29687 h -1.46093 l -1.32032,-4.96875 -0.32031,-1.41406 -1.67969,6.38281 z"
           id="text9"
           style="font-size:16px;line-height:1.2;font-family:Arial;-inkscape-font-specification:Arial;white-space:pre;fill:#4d4d4d;fill-rule:evenodd;stroke-width:5.42362;paint-order:markers fill stroke"
           transform="translate(-416.50952,181.11572)"
           aria-label="side view" />
      </g>
    </g>
    <g
       id="g2"
       transform="translate(-6.4638694,0.64638694)">
      <g
         id="flowRoot4675"
         style="line-height:1.25;letter-spacing:0px;word-spacing:0px;baseline-shift:baseline;fill:#ff0000"
         transform="matrix(0.26458333,0,0,0.26458333,54.433881,87.678608)"
         aria-label="azimuth&#10;range">
        <path
           style="text-align:center;baseline-shift:baseline;text-anchor:middle"
           d="m -154.93262,250.36523 q -1.30664,0 -1.81054,0.29883 -0.50391,0.29883 -0.50391,1.01953 0,0.57422 0.375,0.91407 0.38086,0.33398 1.03125,0.33398 0.89648,0 1.43555,-0.63281 0.54492,-0.63867 0.54492,-1.69336 v -0.24024 z m 2.15039,-0.44531 v 3.74414 h -1.07812 v -0.99609 q -0.36914,0.59765 -0.91992,0.88476 -0.55078,0.28125 -1.34766,0.28125 -1.00781,0 -1.60547,-0.5625 -0.5918,-0.56836 -0.5918,-1.51757 0,-1.10743 0.73829,-1.66993 0.74414,-0.5625 2.21484,-0.5625 h 1.51172 v -0.10546 q 0,-0.74415 -0.49219,-1.14844 -0.48633,-0.41016 -1.37109,-0.41016 -0.5625,0 -1.09571,0.13477 -0.5332,0.13476 -1.02539,0.40429 v -0.99609 q 0.5918,-0.22852 1.14844,-0.33984 0.55664,-0.11719 1.08399,-0.11719 1.42382,0 2.12695,0.73828 0.70312,0.73828 0.70312,2.23828 z m 1.75196,-2.81836 h 5.12109 v 0.98438 l -4.05469,4.71679 h 4.05469 v 0.86133 h -5.26758 v -0.98437 l 4.05469,-4.7168 h -3.9082 z m 6.76757,0 h 1.07813 v 6.5625 h -1.07813 z m 0,-2.55469 h 1.07813 v 1.36524 h -1.07813 z m 8.44336,3.81446 q 0.4043,-0.72656 0.9668,-1.07227 0.5625,-0.3457 1.32422,-0.3457 1.02539,0 1.58203,0.7207 0.55664,0.71485 0.55664,2.03906 v 3.96094 h -1.08398 v -3.92578 q 0,-0.94336 -0.33399,-1.40039 -0.33398,-0.45703 -1.01953,-0.45703 -0.83789,0 -1.32422,0.55664 -0.48633,0.55664 -0.48633,1.51758 v 3.70898 h -1.08398 v -3.92578 q 0,-0.94922 -0.33398,-1.40039 -0.33399,-0.45703 -1.03125,-0.45703 -0.82618,0 -1.3125,0.5625 -0.48633,0.55664 -0.48633,1.51172 v 3.70898 h -1.08399 v -6.5625 h 1.08399 v 1.01953 q 0.36914,-0.60351 0.88476,-0.89062 0.51563,-0.28711 1.22461,-0.28711 0.71485,0 1.21289,0.36328 0.50391,0.36328 0.74414,1.05469 z m 6.46875,2.71289 v -3.97266 h 1.07813 v 3.93164 q 0,0.93164 0.36328,1.40039 0.36328,0.46289 1.08984,0.46289 0.87305,0 1.37696,-0.55664 0.50976,-0.55664 0.50976,-1.51757 v -3.72071 h 1.07813 v 6.5625 h -1.07813 v -1.00781 q -0.39258,0.59766 -0.91406,0.89062 -0.51562,0.28711 -1.20117,0.28711 -1.13086,0 -1.7168,-0.70312 -0.58594,-0.70313 -0.58594,-2.05664 z m 2.71289,-4.13086 z m 6.07032,-1.70508 v 1.86328 h 2.2207 v 0.83789 h -2.2207 v 3.5625 q 0,0.80274 0.21679,1.03125 0.22266,0.22852 0.89649,0.22852 h 1.10742 v 0.90234 h -1.10742 q -1.24805,0 -1.72266,-0.46289 -0.47461,-0.46875 -0.47461,-1.69922 v -3.5625 h -0.79101 v -0.83789 h 0.79101 v -1.86328 z m 9.09375,4.46484 v 3.96094 h -1.07813 v -3.92578 q 0,-0.93164 -0.36328,-1.39453 -0.36328,-0.46289 -1.08984,-0.46289 -0.87305,0 -1.37696,0.55664 -0.5039,0.55664 -0.5039,1.51758 v 3.70898 h -1.08399 v -9.11719 h 1.08399 v 3.57422 q 0.38672,-0.59179 0.9082,-0.88476 0.52734,-0.29297 1.21289,-0.29297 1.13086,0 1.71094,0.70312 0.58008,0.69727 0.58008,2.05664 z"
           id="path6" />
        <path
           style="text-align:center;baseline-shift:baseline;text-anchor:middle"
           d="m -147.2627,263.10937 q -0.18164,-0.10546 -0.39843,-0.15234 -0.21094,-0.0527 -0.46875,-0.0527 -0.91407,0 -1.40625,0.59765 -0.48633,0.5918 -0.48633,1.70508 v 3.45703 h -1.08399 v -6.5625 h 1.08399 v 1.01953 q 0.33984,-0.59765 0.88476,-0.88476 0.54493,-0.29297 1.32422,-0.29297 0.11133,0 0.2461,0.0176 0.13476,0.0117 0.29883,0.041 z m 4.11329,2.25586 q -1.30664,0 -1.81055,0.29883 -0.50391,0.29883 -0.50391,1.01953 0,0.57422 0.375,0.91407 0.38086,0.33398 1.03125,0.33398 0.89649,0 1.43555,-0.63281 0.54492,-0.63867 0.54492,-1.69336 v -0.24024 z m 2.15039,-0.44531 v 3.74414 h -1.07813 v -0.99609 q -0.36914,0.59765 -0.91992,0.88476 -0.55078,0.28125 -1.34766,0.28125 -1.00781,0 -1.60547,-0.5625 -0.59179,-0.56836 -0.59179,-1.51757 0,-1.10743 0.73828,-1.66993 0.74414,-0.5625 2.21484,-0.5625 h 1.51172 v -0.10546 q 0,-0.74415 -0.49219,-1.14844 -0.48632,-0.41016 -1.37109,-0.41016 -0.5625,0 -1.0957,0.13477 -0.53321,0.13476 -1.02539,0.40429 v -0.99609 q 0.59179,-0.22852 1.14843,-0.33984 0.55664,-0.11719 1.08399,-0.11719 1.42383,0 2.12695,0.73828 0.70313,0.73828 0.70313,2.23828 z m 7.67578,-0.2168 v 3.96094 h -1.07813 v -3.92578 q 0,-0.93164 -0.36328,-1.39453 -0.36328,-0.46289 -1.08984,-0.46289 -0.87305,0 -1.37696,0.55664 -0.5039,0.55664 -0.5039,1.51758 v 3.70898 h -1.08399 v -6.5625 h 1.08399 v 1.01953 q 0.38672,-0.59179 0.9082,-0.88476 0.52735,-0.29297 1.21289,-0.29297 1.13086,0 1.71094,0.70312 0.58008,0.69727 0.58008,2.05664 z m 6.46875,0.60352 q 0,-1.17187 -0.48633,-1.81641 -0.48047,-0.64453 -1.35352,-0.64453 -0.86718,0 -1.35351,0.64453 -0.48047,0.64454 -0.48047,1.81641 0,1.16602 0.48047,1.81055 0.48633,0.64453 1.35351,0.64453 0.87305,0 1.35352,-0.64453 0.48633,-0.64453 0.48633,-1.81055 z m 1.07812,2.54297 q 0,1.67578 -0.74414,2.49023 -0.74414,0.82032 -2.27929,0.82032 -0.56836,0 -1.07227,-0.0879 -0.50391,-0.082 -0.97852,-0.25782 v -1.04883 q 0.47461,0.25782 0.9375,0.38086 0.46289,0.12305 0.94336,0.12305 1.06055,0 1.58789,-0.55664 0.52735,-0.55078 0.52735,-1.66992 v -0.5332 q -0.33399,0.58007 -0.85547,0.86718 -0.52149,0.28711 -1.24805,0.28711 -1.20703,0 -1.94531,-0.91992 -0.73828,-0.91992 -0.73828,-2.4375 0,-1.52344 0.73828,-2.44336 0.73828,-0.91992 1.94531,-0.91992 0.72656,0 1.24805,0.28711 0.52148,0.28711 0.85547,0.86719 v -0.9961 h 1.07812 z m 7.83399,-2.73633 v 0.52734 h -4.95703 q 0.0703,1.11329 0.66796,1.69922 0.60352,0.58008 1.67579,0.58008 0.62109,0 1.20117,-0.15234 0.58594,-0.15235 1.16015,-0.45703 v 1.01953 q -0.58007,0.24609 -1.18945,0.375 -0.60937,0.1289 -1.23633,0.1289 -1.57031,0 -2.49023,-0.91406 -0.91406,-0.91406 -0.91406,-2.47265 0,-1.61133 0.86718,-2.55469 0.87305,-0.94922 2.34961,-0.94922 1.32422,0 2.0918,0.85547 0.77344,0.84961 0.77344,2.31445 z m -1.07813,-0.31641 q -0.0117,-0.88476 -0.49804,-1.4121 -0.48047,-0.52735 -1.27735,-0.52735 -0.90234,0 -1.44726,0.50977 -0.53907,0.50976 -0.6211,1.43554 z"
           id="path7" />
      </g>
    </g>
    <path
       sodipodi:nodetypes="cc"
       inkscape:connector-curvature="0"
       id="path6547"
       d="m 77.476211,174.53875 -18.995007,8.86817"
       style="fill:none;stroke:#999999;stroke-width:0.264583;stroke-linecap:butt;stroke-linejoin:miter;stroke-miterlimit:4;stroke-dasharray:0.264583, 0.264583;stroke-dashoffset:0;stroke-opacity:1;marker-start:url(#marker6551);marker-end:url(#marker6693)" />
    <path
       style="fill:none;stroke:#ff0000;stroke-width:0.1;stroke-linecap:butt;stroke-linejoin:miter;stroke-miterlimit:4;stroke-dasharray:0.1, 0.2;stroke-dashoffset:0;stroke-opacity:1"
       d="M 85.261933,154.06043 57.377296,183.25006"
       id="path7779"
       inkscape:connector-curvature="0"
       sodipodi:nodetypes="cc" />
    <path
       sodipodi:nodetypes="cc"
       inkscape:connector-curvature="0"
       id="path7781"
       d="M 86.271774,194.83102 58.018887,184.66722"
       style="fill:#ff0000;stroke:#ff0000;stroke-width:0.1;stroke-linecap:butt;stroke-linejoin:miter;stroke-miterlimit:4;stroke-dasharray:0.1, 0.2;stroke-dashoffset:0;stroke-opacity:1" />
    <path
       style="fill:none;stroke:#ff0000;stroke-width:0.180739px;stroke-linecap:butt;stroke-linejoin:miter;stroke-opacity:1;marker-start:url(#marker7923);marker-end:url(#marker8053)"
       d="m 71.95626,169.18507 c 3.70985,4.36361 7.421126,13.62719 2.389124,20.45589"
       id="path7909"
       inkscape:connector-curvature="0"
       sodipodi:nodetypes="cc" />
    <path
       style="line-height:1.25;text-align:center;letter-spacing:0px;word-spacing:0px;baseline-shift:baseline;text-anchor:middle;fill:#ff0000;stroke-width:0.264583;stroke-linecap:butt;stroke-linejoin:round"
       d="m 53.859713,164.12488 q -0.345715,0 -0.479041,0.0791 -0.133327,0.0791 -0.133327,0.26975 0,0.15193 0.09922,0.24185 0.100769,0.0884 0.272852,0.0884 0.237196,0 0.379822,-0.16744 0.144177,-0.16898 0.144177,-0.44803 v -0.0636 z m 0.568957,-0.11783 v 0.99064 h -0.285255 v -0.26355 q -0.09767,0.15813 -0.243395,0.2341 -0.145728,0.0744 -0.356569,0.0744 -0.266649,0 -0.424778,-0.14883 -0.15658,-0.15038 -0.15658,-0.40152 0,-0.29301 0.195336,-0.44184 0.196887,-0.14883 0.58601,-0.14883 h 0.399976 v -0.0279 q 0,-0.19689 -0.130225,-0.30386 -0.128672,-0.10852 -0.362768,-0.10852 -0.148828,0 -0.289904,0.0357 -0.141078,0.0357 -0.271301,0.10697 v -0.26355 q 0.156578,-0.0605 0.303856,-0.0899 0.14728,-0.031 0.286805,-0.031 0.376722,0 0.562756,0.19533 0.186036,0.19534 0.186036,0.59221 z m 0.587561,-1.42161 h 0.285255 v 2.41225 h -0.285255 z m 1.164269,0.18293 v 0.49299 h 0.587561 v 0.2217 H 56.1805 v 0.94257 q 0,0.2124 0.05736,0.27285 0.05891,0.0605 0.237194,0.0605 h 0.293005 v 0.23874 h -0.293005 q -0.330211,0 -0.455785,-0.12247 -0.125574,-0.12402 -0.125574,-0.44959 v -0.94257 h -0.20929 v -0.2217 h 0.20929 v -0.49299 z m 0.962732,0.49299 h 0.285255 v 1.73633 h -0.285255 z m 0,-0.67592 h 0.285255 v 0.36121 h -0.285255 z m 1.16427,0.18293 v 0.49299 h 0.587562 v 0.2217 h -0.587562 v 0.94257 q 0,0.2124 0.05736,0.27285 0.05891,0.0605 0.237194,0.0605 h 0.293007 v 0.23874 h -0.293007 q -0.330211,0 -0.455785,-0.12247 -0.125573,-0.12402 -0.125573,-0.44959 v -0.94257 h -0.209291 v -0.2217 h 0.209291 v -0.49299 z m 0.933278,1.54409 v -1.0511 h 0.285252 v 1.04025 q 0,0.2465 0.09612,0.37052 0.09612,0.12247 0.288356,0.12247 0.230992,0 0.364318,-0.14727 0.134877,-0.14728 0.134877,-0.40153 v -0.98444 h 0.285252 v 1.73633 h -0.285252 v -0.26665 q -0.10387,0.15813 -0.241848,0.23565 -0.136424,0.076 -0.317809,0.076 -0.299207,0 -0.454237,-0.18603 -0.155027,-0.18604 -0.155027,-0.54416 z m 0.717785,-1.09295 z m 2.466515,0.30541 v -0.93948 h 0.285255 v 2.41225 H 62.42508 v -0.26045 q -0.08992,0.15503 -0.227891,0.231 -0.136427,0.0744 -0.328663,0.0744 -0.314711,0 -0.513149,-0.25115 -0.196887,-0.25114 -0.196887,-0.66042 0,-0.40928 0.196887,-0.66043 0.198438,-0.25114 0.513149,-0.25114 0.192236,0 0.328663,0.076 0.137975,0.0744 0.227891,0.22945 z m -0.972032,0.60616 q 0,0.31471 0.128672,0.49454 0.130226,0.17829 0.356569,0.17829 0.226343,0 0.356568,-0.17829 0.130223,-0.17983 0.130223,-0.49454 0,-0.31471 -0.130223,-0.49299 -0.130225,-0.17984 -0.356568,-0.17984 -0.226343,0 -0.356569,0.17984 -0.128672,0.17828 -0.128672,0.49299 z m 3.330027,-0.0729 v 0.13953 h -1.311547 q 0.0186,0.29456 0.176734,0.44959 0.159681,0.15347 0.443383,0.15347 0.164333,0 0.31781,-0.0403 0.15503,-0.0403 0.306959,-0.12092 v 0.26975 q -0.15348,0.0651 -0.314709,0.0992 -0.161232,0.0341 -0.327112,0.0341 -0.415478,0 -0.658876,-0.24185 -0.241845,-0.24184 -0.241845,-0.65422 0,-0.42633 0.229444,-0.67593 0.230994,-0.25114 0.621667,-0.25114 0.350367,0 0.553456,0.22634 0.204636,0.22479 0.204636,0.61236 z m -0.285252,-0.0837 q -0.0031,-0.2341 -0.131776,-0.37362 -0.127124,-0.13953 -0.337963,-0.13953 -0.238746,0 -0.382923,0.13488 -0.142627,0.13487 -0.16433,0.37982 z"
       id="path4" />
    <path
       style="line-height:1.25;text-align:center;letter-spacing:0px;word-spacing:0px;baseline-shift:baseline;text-anchor:middle;fill:#ff0000;stroke-width:0.264583;stroke-linecap:butt;stroke-linejoin:round"
       d="m 55.55108,167.49676 q -0.04806,-0.0279 -0.105417,-0.0403 -0.05581,-0.0139 -0.124024,-0.0139 -0.241848,0 -0.37207,0.15813 -0.128675,0.15658 -0.128675,0.45114 v 0.91467 h -0.286806 v -1.73633 h 0.286806 v 0.26975 q 0.08992,-0.15813 0.234093,-0.23409 0.144179,-0.0775 0.350366,-0.0775 0.02946,0 0.06511,0.005 0.03565,0.003 0.07907,0.0109 z m 1.088308,0.59687 q -0.345715,0 -0.479041,0.0791 -0.133326,0.0791 -0.133326,0.26975 0,0.15193 0.09922,0.24185 0.100769,0.0884 0.272851,0.0884 0.237196,0 0.379823,-0.16744 0.144177,-0.16898 0.144177,-0.44803 v -0.0636 z m 0.568958,-0.11783 v 0.99064 h -0.285255 v -0.26355 q -0.09767,0.15813 -0.243396,0.2341 -0.145727,0.0744 -0.356568,0.0744 -0.26665,0 -0.424781,-0.14883 -0.156578,-0.15038 -0.156578,-0.40152 0,-0.29301 0.195337,-0.44184 0.196887,-0.14883 0.58601,-0.14883 h 0.399976 v -0.0279 q 0,-0.19689 -0.130226,-0.30386 -0.128672,-0.10852 -0.362767,-0.10852 -0.148828,0 -0.289904,0.0357 -0.141079,0.0357 -0.271301,0.10697 v -0.26355 q 0.156577,-0.0605 0.303855,-0.0899 0.147278,-0.031 0.286806,-0.031 0.376721,0 0.562755,0.19533 0.186037,0.19534 0.186037,0.59221 z m 2.030883,-0.0574 v 1.048 h -0.285255 v -1.03869 q 0,-0.2465 -0.09612,-0.36897 -0.09612,-0.12248 -0.288353,-0.12248 -0.230995,0 -0.364321,0.14728 -0.133324,0.14728 -0.133324,0.40153 v 0.98133 h -0.286805 v -1.73633 h 0.286805 v 0.26975 q 0.10232,-0.15657 0.240295,-0.23409 0.139528,-0.0775 0.32091,-0.0775 0.299207,0 0.452687,0.18603 0.153479,0.18449 0.153479,0.54415 z m 1.711524,0.15968 q 0,-0.31005 -0.128675,-0.48059 -0.127125,-0.17053 -0.358119,-0.17053 -0.229441,0 -0.358116,0.17053 -0.127125,0.17054 -0.127125,0.48059 0,0.30851 0.127125,0.47905 0.128675,0.17053 0.358116,0.17053 0.230994,0 0.358119,-0.17053 0.128675,-0.17054 0.128675,-0.47905 z m 0.285252,0.67283 q 0,0.44339 -0.196887,0.65888 -0.196887,0.21704 -0.603062,0.21704 -0.150379,0 -0.283705,-0.0233 -0.133326,-0.0217 -0.2589,-0.0682 v -0.27751 q 0.125574,0.0682 0.248047,0.10077 0.122473,0.0326 0.249597,0.0326 0.280604,0 0.42013,-0.14728 0.139528,-0.14573 0.139528,-0.44183 V 168.661 q -0.08837,0.15348 -0.226343,0.22944 -0.137978,0.076 -0.330214,0.076 -0.31936,0 -0.514696,-0.2434 -0.195337,-0.24339 -0.195337,-0.64492 0,-0.40308 0.195337,-0.64647 0.195336,-0.2434 0.514696,-0.2434 0.192236,0 0.330214,0.076 0.137974,0.076 0.226343,0.22944 v -0.26355 h 0.285252 z m 2.072743,-0.72399 v 0.13953 h -1.311547 q 0.0186,0.29456 0.176731,0.44959 0.159681,0.15347 0.443386,0.15347 0.16433,0 0.31781,-0.0403 0.15503,-0.0403 0.306956,-0.12092 v 0.26975 q -0.153477,0.0651 -0.314709,0.0992 -0.161229,0.0341 -0.327112,0.0341 -0.415478,0 -0.658873,-0.24185 -0.241845,-0.24184 -0.241845,-0.65422 0,-0.42633 0.229441,-0.67593 0.230994,-0.25114 0.621668,-0.25114 0.350366,0 0.553455,0.22634 0.204639,0.22479 0.204639,0.61236 z m -0.285255,-0.0837 q -0.0031,-0.2341 -0.131773,-0.37362 -0.127124,-0.13953 -0.337965,-0.13953 -0.238745,0 -0.382921,0.13488 -0.142629,0.13487 -0.164333,0.37982 z"
       id="path5" />
    <path
       sodipodi:nodetypes="cc"
       inkscape:connector-curvature="0"
       id="path9475"
       d="m 73.618885,184.28607 -14.740806,-0.0854"
       style="fill:none;stroke:#999999;stroke-width:0.2;stroke-linecap:butt;stroke-linejoin:miter;stroke-miterlimit:4;stroke-dasharray:0.2, 0.2;stroke-dashoffset:0;stroke-opacity:1" />
    <path
       sodipodi:nodetypes="cc"
       inkscape:connector-curvature="0"
       id="path9477"
       d="m 67.618809,179.88023 c 1.458334,0.86317 1.885837,2.25273 1.455149,3.76492"
       style="fill:none;stroke:#666666;stroke-width:0.2;stroke-linecap:butt;stroke-linejoin:miter;stroke-miterlimit:4;stroke-dasharray:none;stroke-opacity:1;marker-start:url(#marker9493);marker-end:url(#marker9635)" />
  </g>
</svg>
