<?xml version="1.0" encoding="UTF-8" standalone="no"?>
<svg
   width="107.49195mm"
   height="107.51834mm"
   viewBox="0 0 107.49195 107.51834"
   version="1.1"
   id="svg8"
   sodipodi:docname="icon.svg"
   inkscape:version="1.1.1 (3bf5ae0d25, 2021-09-20)"
   inkscape:export-filename="/home/yann/work/physion/doc/icon-small.png"
   inkscape:export-xdpi="100"
   inkscape:export-ydpi="100"
   xmlns:inkscape="http://www.inkscape.org/namespaces/inkscape"
   xmlns:sodipodi="http://sodipodi.sourceforge.net/DTD/sodipodi-0.dtd"
   xmlns="http://www.w3.org/2000/svg"
   xmlns:svg="http://www.w3.org/2000/svg"
   xmlns:rdf="http://www.w3.org/1999/02/22-rdf-syntax-ns#"
   xmlns:cc="http://creativecommons.org/ns#"
   xmlns:dc="http://purl.org/dc/elements/1.1/">
  <defs
     id="defs2" />
  <sodipodi:namedview
     id="base"
     pagecolor="#ffffff"
     bordercolor="#666666"
     borderopacity="1.0"
     inkscape:pageopacity="0.0"
     inkscape:pageshadow="2"
     inkscape:zoom="0.35"
     inkscape:cx="-221.42857"
     inkscape:cy="-52.857144"
     inkscape:document-units="mm"
     inkscape:current-layer="layer1"
     inkscape:document-rotation="0"
     showgrid="false"
     inkscape:window-width="1920"
     inkscape:window-height="1177"
     inkscape:window-x="-8"
     inkscape:window-y="-8"
     inkscape:window-maximized="1"
     fit-margin-top="0"
     fit-margin-left="0"
     fit-margin-right="0"
     fit-margin-bottom="0"
     inkscape:pagecheckerboard="0" />
  <metadata
     id="metadata5">
    <rdf:RDF>
      <cc:Work
         rdf:about="">
        <dc:format>image/svg+xml</dc:format>
        <dc:type
           rdf:resource="http://purl.org/dc/dcmitype/StillImage" />
        <dc:title />
      </cc:Work>
    </rdf:RDF>
  </metadata>
  <g
     inkscape:label="Layer 1"
     inkscape:groupmode="layer"
     id="layer1"
     transform="translate(-17.919762,-65.660696)">
    <path
       style="fill:#666666;fill-opacity:1;stroke-width:0.264583"
       d="m 65.669439,33.246143 c -0.99443,-0.50662 -2.19699,-1.90265 -2.18479,-2.53628 0.004,-0.19691 3.46046,-2.21774 3.79348,-2.21774 0.0615,0 0.187,0.40038 0.2788,0.88972 0.25109,1.33844 0.96694,1.85289 2.35981,1.69589 0.63684,-0.0718 1.54782,-0.41502 2.02441,-0.76274 1.03455,-0.75483 3.44526,-4.08829 3.44526,-4.76401 0,-0.26229 -1.25016,-6.451 -2.77813,-13.75268 -1.52796,-7.3016699 -2.77812,-13.4405199 -2.77812,-13.6418699 0,-0.30288 1.01345,-0.35381 5.86897,-0.29489 l 5.86898,0.0712 1.22945,7.60554 c 0.67621,4.18306 1.29761,7.6736999 1.3809,7.7569899 0.0833,0.0833 2.51469,-3.3669399 5.40313,-7.6671799 l 5.2517,-7.81861 1.93151,-0.005 1.93151,-0.004 -1.61933,2.31510996 c -0.89063,1.27331004 -5.68888,8.20203004 -10.66277,15.39715994 -4.97388,7.19514 -9.78052,13.86966 -10.68141,14.83225 -2.32651,2.48586 -3.8539,3.25586 -6.69639,3.37584 -1.89996,0.0802 -2.42246,0.007 -3.36697,-0.47466 z m -68.5997016,-0.35023 c 0,-0.33526 7.52934,-33.62228994 7.83367,-34.6324399 0.12078,-0.40091 0.50087,-0.46393 2.83364,-0.46984 1.48178,-0.004 3.8759296,-0.12174 5.3203396,-0.26218 1.44441,-0.14044 2.66743,-0.21411 2.71783,-0.16371 0.0504,0.0504 -0.0878,0.85299 -0.30717,1.78352996 -0.21935,0.93054 -0.40058,1.78256 -0.40273,1.89337004 -0.002,0.11082 0.67867,-0.35449004 1.51294,-1.03400004 2.46301,-2.00615996 3.98296,-2.57290996 6.94981,-2.59139996 2.75989,-0.0172 3.87702,0.37085 5.40061,1.87596996 2.64025,2.60824004 2.99994,8.27288004 0.93093,14.66089994 -2.30781,7.12534 -6.53738,10.8492 -12.41695,10.93234 -2.86395,0.0405 -4.4571,-0.42641 -5.95554,-1.7454 -0.81796,-0.71999 -1.22612,-0.93558 -1.31105,-0.69247 -0.0678,0.19415 -0.5495496,2.258 -1.0705096,4.58634 -0.52096,2.32833 -1.06547,4.67982 -1.21004,5.22552 l -0.26284,0.99219 h -5.28147 c -4.26858,0 -5.28147,-0.0688 -5.28147,-0.35872 z M 14.973037,21.008263 c 1.8463,-1.03529 3.7556,-5.76926 4.97011,-12.3229699 0.49334,-2.66219 0.52681,-6.00688 0.0692,-6.91609 -0.46782,-0.92950004 -1.88232,-1.02374004 -3.1073,-0.207 -1.93579,1.29066 -4.28269,7.73583 -5.01828,13.7814799 -0.29501,2.42455 -0.17799,3.79394 0.42629,4.98859 0.52414,1.03622 1.5518,1.29738 2.65997,0.67599 z m 89.252953,3.73702 c -6.458791,-0.4496 -9.790381,-3.1739 -9.144951,-7.47797 l 0.16823,-1.12184 2.65666,-0.46497 c 1.46116,-0.25575 2.711151,-0.4105 2.777751,-0.34389 0.0666,0.0666 0.0105,0.61331 -0.12468,1.21492 -0.52125,2.31991 0.49805,4.12912 3.00554,5.33471 1.28336,0.61704 4.47512,0.70292 5.7849,0.15565 1.19744,-0.50032 2.0203,-1.61978 2.0203,-2.74848 0,-1.16452 -1.18698,-2.35581 -3.36971,-3.38194 -4.78122,-2.24773 -6.02545,-2.93779 -7.19816,-3.99216 -1.837521,-1.65208 -2.501211,-3.1362399 -2.334001,-5.2193199 0.16263,-2.02603 0.85217,-3.41787 2.496311,-5.03878 1.38013,-1.36064004 4.61261,-3.10058 6.96598,-3.74957 0.80037,-0.22072 2.88396,-0.46794 4.63021,-0.54939 6.72292,-0.31357 10.34787,1.66990996 10.5227,5.75775 l 0.0606,1.41779 -1.98438,0.3189 c -3.32124,0.53372 -3.17484,0.58761 -3.17599,-1.16926 -0.002,-2.99289004 -1.41431,-4.16261004 -5.02609,-4.16261004 -2.57007,0 -3.70915,0.44573 -4.36115,1.70655004 -0.95093,1.83892 -0.14595,3.0564 2.99372,4.52782 6.16541,2.88943 7.22721,3.48249 8.4825,4.7377799 0.71652,0.71651 1.44773,1.74202 1.62491,2.2789 0.50274,1.52332 0.19164,3.95733 -0.74228,5.80741 -2.37846,4.7117 -7.97091,6.77165 -16.72895,6.162 z m 45.79935,-0.48377 c -3.5671,-0.96223 -5.64084,-2.70432 -6.51053,-5.46932 -0.62176,-1.9767 -0.41924,-6.54189 0.4089,-9.2177799 2.54748,-8.23145 8.46112,-12.31454 17.81224,-12.29853 6.17051,0.0106 9.92216,1.76352996 11.59838,5.41936 0.51981,1.13372 0.60166,1.72024 0.57226,4.10104 -0.0816,6.6102299 -3.1936,12.7104199 -7.90039,15.4865899 -0.87312,0.51499 -2.54,1.24697 -3.70416,1.62661 -1.82802,0.59614 -2.67592,0.70322 -6.21771,0.78523 -3.47125,0.0804 -4.40172,0.0138 -6.05899,-0.4332 z m 7.77518,-2.41631 c 3.19925,-2.80897 6.82154,-18.0276099 5.07665,-21.32893994 -1.1418,-2.16026996 -3.71674,-1.15198 -5.36507,2.10083004 -2.25192,4.44396 -4.33951,14.6299399 -3.69857,18.0464499 0.39796,2.12133 2.2811,2.67946 3.98699,1.18166 z m -125.192703,1.81828 c 0.0777,-0.32742 1.88982,-8.27485 4.02692,-17.6609499 2.137101,-9.38609 3.961671,-17.1411501 4.054591,-17.2334601 0.1627,-0.16162 10.642361,-0.84032 10.754231,-0.69648 0.0302,0.0388 -0.64034,3.1066601 -1.49006,6.8174401 -0.84971,3.71079 -1.547111,6.90523 -1.549761,7.09877 -0.003,0.19354 0.679781,-0.26096 1.516521,-1.00999004 2.88949,-2.58660996 6.6525,-3.88435996 10.60052,-3.65581996 3.74058,0.21654 5.35539,1.49708 5.3247,4.22245 -0.009,0.78477 -1.09924,6.12561 -2.44948,11.9977199 l -2.43356,10.58334 -5.35573,0.0716 c -2.94564,0.0394 -5.35572,-0.0299 -5.35572,-0.1541 0,-0.12415 1.01745,-4.68074 2.26099,-10.12574 1.24355,-5.4449999 2.22581,-10.3145799 2.18282,-10.8212899 -0.0988,-1.16438 -1.03599,-1.59802 -2.31164,-1.06963 -1.99311,0.82557 -4.806161,4.69219 -5.779381,7.94392 -0.2831,0.9458799 -1.1509,4.5475299 -1.92844,8.0036499 l -1.41372,6.28386 h -5.39754 -5.397541 z m 92.255673,0.31972 c 0,-0.43463 5.77003,-25.6218999 5.92824,-25.8778899 0.0758,-0.12264 2.07693,-0.29758 4.44697,-0.38877 2.37004,-0.0912 4.75565,-0.24425 5.30136,-0.34014 0.85945,-0.15103 0.99021,-0.10778 0.97745,0.32329 -0.008,0.2737 -1.35457,6.3317 -2.99214,13.4622199 l -2.97741,12.96459 -5.34223,0.0716 c -3.70215,0.0496 -5.34224,-0.0164 -5.34224,-0.21492 z m 50.54211,0.20944 c 0.004,-0.0364 1.35316,-5.95974 2.99886,-13.16302 l 2.99218,-13.0968799 1.96207,-0.0607 c 1.07914,-0.0334 3.49429,-0.18792 5.36699,-0.34335 1.8727,-0.15543 3.44698,-0.24053 3.4984,-0.18911 0.0514,0.0514 -0.14371,1.0866 -0.43362,2.30040996 -0.28991,1.2138 -0.47539,2.25864004 -0.41217,2.32185004 0.0632,0.0632 0.78661,-0.43215 1.60755,-1.10081004 3.12285,-2.54359996 6.50429,-3.71504996 10.1943,-3.53165996 2.98676,0.14843 4.32699,0.8112 5.07924,2.51177996 0.37635,0.85082 0.50177,1.57714004 0.41973,2.43065004 -0.0644,0.66948 -1.17913,5.89003 -2.47727,11.6012199 l -2.36024,10.38397 -5.35781,8e-4 c -2.9468,5.3e-4 -5.35781,-0.0691 -5.35781,-0.15474 0,-0.0856 1.01203,-4.59603 2.24895,-10.02314 1.23693,-5.4271099 2.24896,-10.2201699 2.24896,-10.6512499 0,-0.43107 -0.21773,-0.98082 -0.48385,-1.22165 -1.82117,-1.64801004 -5.87856,1.86674 -7.28306,6.30912 -0.36429,1.15222 -3.61017,15.1649899 -3.61017,15.5854199 0,0.0865 -2.44078,0.15729 -5.42396,0.15729 -2.98318,0 -5.42095,-0.0298 -5.41727,-0.0662 z M 134.58442,-5.9998069 c -1.52074,-0.56941 -1.78343,-0.89501 -1.78343,-2.21058 0,-2.2734001 1.44557,-3.6492801 4.25069,-4.0457801 2.11488,-0.29893 4.36903,0.0712 5.20893,0.85524 0.55079,0.51418 0.62812,0.78431 0.52793,1.8441601 -0.15009,1.58755 -0.72269,2.44672 -2.09839,3.14855 -1.41679,0.7228 -4.68266,0.94125 -6.10573,0.40841 z"
       id="path114"
       sodipodi:nodetypes="scsssssssscssscccsssssssscssscssssssssscsssssssssssscssssssssssssscsssssssssscsssssssscsssssssssscsscscssssssscccssssscscssscscssssssssssccssscssscsssssss" />
    <path
       style="fill:#cccccc;stroke:none;stroke-width:0.264583px;stroke-linecap:butt;stroke-linejoin:miter;stroke-opacity:1"
       d="m -53.858478,-66.878383 -0.279347,83.653849 118.128164,-42.296399 9.49792,-71.24857 z"
       id="path118" />
    <ellipse
       style="fill:#ececec;stroke:none;stroke-width:0.170255"
       id="path120"
       transform="matrix(0.68414342,0.72934751,-0.6913856,0.72248595,0,0)"
       cx="-15.164819"
       cy="-68.814232"
       rx="14.758169"
       ry="19.847254" />
    <ellipse
       style="fill:#999999;stroke:none;stroke-width:0.152254"
       id="path122"
       cx="-13.100198"
       cy="-72.880356"
       rx="3.5552983"
       ry="21.021488"
       transform="matrix(0.86929495,0.49429374,-0.66930096,0.7429914,0,0)" />
    <ellipse
       style="fill:#999999;stroke:none;stroke-width:0.0822919"
       id="ellipse126"
       cx="-3.020436"
       cy="-69.961487"
       rx="2.7306299"
       ry="14.530126"
       transform="matrix(0.78567276,0.61864232,-0.66743526,0.74466783,0,0)" />
    <ellipse
       style="fill:#999999;stroke:none;stroke-width:0.0822919"
       id="ellipse128"
       cx="-22.488165"
       cy="-72.264252"
       rx="2.7306299"
       ry="14.530126"
       transform="matrix(0.78567276,0.61864232,-0.66743526,0.74466783,0,0)" />
    <path
       style="fill:#4d4d4d;fill-opacity:1;stroke-width:0.264583"
       d="m 11.061408,-21.161476 c -4.6418196,-0.57767 -7.9412696,-2.696107 -8.3399596,-5.354767 -0.25334,-1.68937 -0.41843,-1.84011 -2.05991002,-1.88082 -2.32725998,-0.0577 -3.08475998,-1.16445 -3.09644998,-4.5241 -0.008,-2.19438 -0.17583,-2.37951 -2.17114,-2.38993 -0.91451,-0.005 -2.04106,-0.10163 -2.50345,-0.21524 -0.78226,-0.19221 -0.84663,-0.15525 -0.92604,0.53171 -0.125,1.08142 -1.04765,1.46689 -3.1441304,1.31356 -0.95473,-0.0698 -1.86202,-0.0465 -2.0162,0.0519 -0.29615,0.18894 -1.62232,3.19785 -1.86074,4.22176 -0.16118,0.69222 -0.61547,0.97723 -1.93693,1.21521 -1.2911,0.2325 -2.03393,0.81581 -2.2413,1.75998 -0.38273,1.74252 -2.04045,2.89186 -4.9732,3.448037 -2.69711,0.5115 -4.41486,-0.683727 -4.41706,-3.073407 -0.001,-1.34632 -0.5033,-2.09694 -1.24508,-1.86151 -0.47255,0.14998 -1.07969,1.1304 -2.01408,3.25235 -0.28555,0.64848 -1.91938,1.40284 -3.03831,1.40284 -1.63296,0 -2.21089,-1.00347 -3.22078,-5.5923 -0.36104,-1.64054 -0.7435,-2.71469 -1.07265,-3.01257 -0.64417,-0.58296 -0.69486,-0.44176 -0.89119,2.48255 -0.25718,3.83071 -1.754759,6.04186 -4.417919,6.522947 -1.25414,0.22656 -3.00466,-0.265467 -3.59981,-1.011807 -0.69104,-0.86659 -1.69758,-1.50547 -2.37183,-1.50547 -0.4675,0 -0.57616,0.13911 -0.53644,0.68677 0.0325,0.44853 -0.15105,0.8231 -0.52919,1.07976 -0.55218,0.3748 -0.60522,0.3416 -1.14514,-0.71671 -0.54887,-1.07589 -0.55269,-1.15082 -0.12533,-2.45741 1.08431,-3.31507 2.36751,-4.90397 3.69199,-4.57155 0.83945,0.21069 1.17157,0.85156 1.49497,2.88472 0.14582,0.91675 0.54646,2.07402 0.90902,2.62572 0.35655,0.54259 0.64828,1.10813 0.64828,1.25677 0,0.34236 0.56279,0.34497 1.45239,0.007 1.03396,-0.39311 1.63538,-2.06829 2.1022,-5.85547 0.49018,-3.97678 1.04942,-5.85262 2.040189,-6.8434 0.79807,-0.79806 2.01398,-1.23049 2.3933,-0.85117 0.24747,0.24747 1.53042,5.40846 2.31102,9.29665 0.45201,2.25145 0.87537,2.90073 1.68806,2.58887 0.93056,-0.35709 1.24514,-1.45827 1.89583,-6.63647 0.99784,-7.94083 1.15998,-8.32136 3.47089,-8.14612 1.11822,0.0848 1.63607,2.27419 1.98023,8.37211 0.13976,2.47615 0.38024,4.88866 0.53441,5.36114 0.34329,1.0521 1.15379,1.65564 2.21692,1.65085 1.64498,-0.007 1.94555,-0.23155 2.39811,-1.78833 1.19604,-4.11419 1.89603,-5.0872 3.6598,-5.0872 1.4133,0 2.02962,-0.70864 2.402,-2.76178 0.10394,-0.5731 0.53829,-1.73396 0.96521,-2.57969 0.66282,-1.31304 0.88197,-1.5371 1.50002,-1.53365 0.86327,0.005 1.25296,0.25045 1.25296,0.7897 0,0.26899 0.32567,0.42369 1.01064,0.4801 0.9370604,0.0772 0.9901004,0.0448 0.72855,-0.44386 -0.37341,-0.69773 -0.10402,-1.32783 0.6484604,-1.51669 0.33522,-0.0841 1.03869,-0.63108 1.56328,-1.21543 l 0.9538,-1.06247 2.17785,0.18958 c 1.19781,0.10426 2.38216,0.29708 2.63188,0.42847 0.24971,0.13139 0.57987,0.74289 0.73368,1.35887 0.15381,0.61598 0.41709998,1.3581 0.58507998,1.64914 0.82954,1.43722 1.00219,1.93178 1.0037,2.8751 l 0.002,1.02301 1.67894002,-0.1798 1.67894,-0.1798 0.67431,2.46408 c 0.37088,1.35524 0.82826,3.05395 1.01641,3.77489 0.19027,0.72906 0.71433,1.72717 1.1808,2.24895 0.46128,0.51597 1.04388,1.5632 1.29466,2.32719 0.43421,1.32277 0.49996,1.389047 1.37814,1.389047 1.0571096,0 2.0340596,-0.436737 1.8052196,-0.807007 -0.18806,-0.30428 4.46899,-0.31293 6.2999,-0.0117 0.69555,0.11442 1.86159,0.11367 2.59121,-0.002 1.83326,-0.2898 4.22799,-1.42504 4.40091,-2.08628 0.18995,-0.72637 0.52241,-0.6876 4.35358,0.50764 4.36473,1.36171 4.92142,1.45282 6.04281,0.98909 0.50932,-0.21062 1.43206,-0.46627 2.05052,-0.5681 0.92855,-0.15289 1.12448,-0.11195 1.12448,0.23498 0,0.33383 0.30473,0.42013 1.48352,0.42013 1.17147,0 1.45325,-0.0789 1.33962,-0.37498 -0.14211,-0.37032 0.32334,-0.68335 1.01606,-0.68335 0.5929,0 1.21902,0.80799 1.04675,1.35079 -0.12639,0.39821 -0.0268,0.50128 0.4845,0.50128 1.06016,0 1.9356,-0.93927 3.04897,-3.27129 0.57998,-1.21479 1.236,-2.27835 1.45783,-2.36348 0.22184,-0.0851 0.44169,-0.48922 0.48857,-0.898 0.0772,-0.67342 0.19423,-0.75104 1.245651,-0.82635 0.63823,-0.0457 1.27661,0.0331 1.41862,0.17508 0.14201,0.14201 0.296,0.9385 0.34221,1.76998 0.0761,1.36877 0.18392,1.60779 1.14013,2.52659 0.58086,0.55814 1.36406,1.09209 1.74044,1.18656 0.88646,0.22249 1.95704,-0.46844 2.31444,-1.49366 0.33056,-0.94823 0.48499,-0.95523 1.80494,-0.0817 0.82509,0.54602 1.22947,0.65481 1.91255,0.51458 0.47644,-0.0978 1.75594,-0.24516 2.84334,-0.32744 1.8675,-0.1413 1.95561,-0.12371 1.58957,0.31734 -0.35686,0.42998 -0.33534,0.45102 0.27187,0.26606 0.90329,-0.27517 1.82696,-1.16538 2.24543,-2.16411 0.19207,-0.4584 0.60178,-2.50093 0.91046,-4.53898 0.61173,-4.03899 1.12658,-5.87096 1.81873,-6.47153 0.65448,-0.56789 1.79283,-0.77839 2.1115,-0.39045 0.14826,0.18049 0.58611,2.35223 0.973,4.82609 0.77821,4.97608 1.06083,6.11603 1.69569,6.83954 0.23626,0.26925 0.6677,0.98362 0.95874,1.58749 0.69465,1.4413 1.85907,2.02303 4.05051,2.02357 0.96296,2.3e-4 1.60485,-0.10381 1.51704,-0.24589 -0.18137,-0.29347 0.15132,-0.53068 1.57232,-1.12107 0.58421,-0.24271 1.03151,-0.57295 0.99398,-0.73384 -0.0375,-0.1609 0.34796,-0.65796 0.85663,-1.10456 0.52767,-0.4633 1.06048,-1.26471 1.24066,-1.86609 0.17618,-0.58803 0.68801,-1.36679 1.15765,-1.7614 1.09336,-0.91866 1.35946,-1.46387 1.84802,-3.78639 0.22252,-1.05783 0.59818,-2.13725 0.83479,-2.3987 0.51349,-0.5674 1.22613,-0.61466 1.64569,-0.10912 0.24669,0.29725 1.08202,4.16603 1.08339,5.0177 2e-4,0.12351 0.35642,0.55719 0.79161,0.96371 0.43519,0.40653 0.9412,1.1962 1.12448,1.75483 0.25147,0.76646 0.61422,1.17062 1.47845,1.64722 0.62986,0.34735 1.66258,1.17146 2.29491,1.83137 1.09893,1.14681 1.18429,1.18548 1.93256,0.87554 1.073511,-0.44466 2.040541,-1.54224 2.428911,-2.75681 0.2396,-0.7493 0.627,-1.19832 1.47663,-1.71152 1.10116,-0.66512 1.45668,-1.1509 2.36084,-3.22579 0.22194,-0.50933 0.63339,-1.28323 0.91433,-1.71979 0.28093,-0.43657 0.8355,-1.86532 1.23236,-3.175 l 0.72156,-2.38125 0.19618,-26.19373 c 0.1349,-18.00532 0.29274,-26.72432 0.50496,-27.89086 0.34195,-1.87961 1.00403,-3.72689 1.33574,-3.72689 0.7759,0 1.09538,8.65402 1.19933,32.48686 0.0529,12.11969 0.16711,22.15071 0.2539,22.29113 0.33472,0.54158 0.94774,0.21358 1.37716,-0.73686 0.24656,-0.54571 0.62028,-1.20055 0.83048,-1.45521 0.53341,-0.64622 1.72546,-0.57717 2.56949,0.14883 0.64499,0.55479 0.73169,0.8533 0.92976,3.20073 0.12014,1.42388 0.35704,2.75589 0.52645,2.96002 0.16941,0.20412 0.6804,0.3723 1.13552,0.37372 1.58918,0.005 5.19313,2.14021 5.19313,3.07678 0,0.7403 0.80676,1.94772 1.3014,1.94772 0.54019,0 0.81526,-0.49322 0.81526,-1.46184 0,-1.94062 3.86562,-1.8791 4.85447,0.0773 0.36105,0.71431 1.53887,5.28549 1.89064,7.33769 0.22934,1.33795 0.50622,1.66635 1.57373,1.86662 1.95057,0.36592 4.56519,-1.09438 4.31382,-2.40933 -0.14324,-0.7493 0.0656,-0.7892 1.81944,-0.34759 0.80687,0.20317 1.27956,0.21344 1.46123,0.0318 0.1477,-0.1477 0.65654,-2.07337 1.13075,-4.27928 0.47421,-2.2059 0.99805,-4.14659 1.1641,-4.31264 0.36077,-0.36077 5.85132,-1.51482 7.24866,-1.52358 1.13525,-0.007 1.37511,-0.32614 1.64524,-2.18828 0.22983,-1.58423 0.59786,-1.78662 3.24874,-1.78662 2.14953,0 3.25127,-0.41047 3.25127,-1.2113 0,-0.21315 0.29278,-0.52095 0.65062,-0.68399 0.98549,-0.44902 1.87505,0.24387 2.09727,1.63358 0.21284,1.33097 1.17644,2.28831 3.52973,3.50678 1.96992,1.01997 2.10335,1.30229 2.4678,5.22158 0.64361,6.92134 0.92801,8.09643 2.02622,8.37206 1.34509,0.33759 2.42073,-1.60489 3.21819,-5.81168 0.61314,-3.23454 1.09928,-4.41399 2.20165,-5.34158 0.9979,-0.83967 2.45144,-0.88449 3.28512,-0.10128 0.57288,0.53819 0.67064,0.54519 2.88029,0.20619 l 2.28729,-0.3509 0.91651,-1.98368 c 0.50408,-1.09102 0.98712,-2.26497 1.07341,-2.6088 0.21295,-0.84844 0.661,-0.96489 1.99831,-0.51938 0.92438,0.30794 1.15807,0.51977 1.2681,1.14943 0.12256,0.70133 0.23143,0.77192 1.19063,0.77192 0.97381,0 1.07868,-0.0718 1.35155,-0.92604 0.3646,-1.14133 1.55536,-1.9451 1.95985,-1.32291 0.5104,0.78509 0.80932,2.43056 1.04784,5.76795 0.5704,7.98098 1.95233,11.93882 3.94748,11.30558 0.56756,-0.18012 0.49128,0.2904 1.74567,-10.76797 0.96269,-8.48677 1.15268,-9.27076 2.32067,-9.57619 0.68946,-0.1803 1.67436,0.40574 1.90543,1.13378 0.0913,0.28769 0.56231,0.76799 1.04666,1.06734 1.55669,0.96209 2.20632,3.30298 3.87621,13.96793 0.58994,3.76776 0.59081,3.7703 1.30061,3.7703 0.39066,0 1.29477,-0.17731 2.00911,-0.39401 1.80274,-0.54688 2.67672,-0.50941 3.01861,0.12942 0.5402,1.00935 3.43958,0.43978 3.43958,-0.67569 0,-0.20962 0.4005,-0.82793 0.88998,-1.37405 1.17801,-1.31428 1.50498,-2.01415 2.6415,-5.6541 0.98007,-3.13892 1.58747,-4.16658 1.93201,-3.26873 0.23783,0.61981 -0.29721,4.52069 -0.97502,7.10851 -0.68418,2.61208 -1.36093,3.95228 -2.37394,4.70123 -0.43538,0.32189 -0.79161,0.72981 -0.79161,0.90649 0,0.53441 -1.54572,0.90217 -3.79188,0.90217 -1.16898,0 -3.18211,0.1355 -4.47365,0.30114 -2.80305,0.35947 -3.37865,0.15556 -4.14642,-1.46892 -0.28107,-0.59465 -0.71837,-2.37307 -0.97182,-3.95205 -0.32287,-2.01151 -0.6459,-3.14363 -1.07914,-3.78205 -0.34786,-0.5126 -0.61834,-1.30429 -0.61834,-1.80985 0,-1.08028 -0.25828,-1.28439 -1.18122,-0.93349 -0.82773,0.3147 -1.40753,1.5621 -1.77922,3.82783 -0.80883,4.93033 -0.97484,5.50871 -1.83629,6.39749 -1.56197,1.61154 -3.43005,2.09575 -4.98439,1.29198 -1.25456,-0.64876 -2.07197,-2.70584 -3.55004,-8.93403 -0.095,-0.40018 -0.2781,-0.72761 -0.40696,-0.72761 -0.12886,0 -0.5959,0.64075 -1.03787,1.42388 -1.17612,2.08396 -2.80207,3.16356 -3.37308,2.23967 -0.10374,-0.16786 -0.27797,-1.28551 -0.38718,-2.48365 -0.24465,-2.68415 -0.57368,-3.42471 -1.33952,-3.01484 -0.29643,0.15864 -0.65556,0.62291 -0.79807,1.03171 -0.26007,0.74604 -1.01372,1.06782 -2.50097,1.06782 -0.66408,0 -1.16686,0.67934 -1.16686,1.57665 0,0.49597 -0.8502,1.06918 -1.58582,1.06918 -0.53421,0 -1.06001,-0.90182 -1.06001,-1.81807 0,-1.11687 -0.37425,-1.62151 -1.20254,-1.62151 -0.88745,0 -1.36102,0.78486 -1.55492,2.57703 -0.22805,2.10774 -0.54097,3.01901 -1.67906,4.88973 -1.0483,1.72313 -2.46559,2.59099 -4.56,2.79223 -2.30908,0.22187 -2.94378,-0.67314 -3.5525,-5.0095 -0.45632,-3.25073 -0.70099,-3.97599 -1.74081,-5.16028 -0.42753,-0.48693 -0.96765,-1.54003 -1.20027,-2.34022 -0.23929,-0.82312 -0.63693,-1.56942 -0.9157,-1.71862 -0.66553,-0.35618 -2.6442,-0.3372 -2.6442,0.0254 0,0.19118 -0.47037,0.2388 -1.38906,0.14061 -3.36902,-0.36009 -3.17628,-0.39888 -3.78151,0.76095 -0.30374,0.58208 -0.9579,1.33215 -1.45368,1.66681 -0.49578,0.33467 -0.97444,0.72663 -1.06369,0.87104 -0.10713,0.17334 -0.55917,0.17106 -1.33039,-0.007 -1.9165,-0.44176 -1.94576,-0.42538 -2.61209,1.46208 -0.6525,1.84828 -1.65597,3.28281 -2.29636,3.28281 -0.56621,0 -1.62457,1.2454 -1.82191,2.1439 -0.21097,0.96051 -1.26215,2.24365 -2.26135,2.76036 -0.41201,0.21306 -1.38009,0.38879 -2.1513,0.39052 -0.77121,0.002 -2.05705,0.17891 -2.85741,0.39373 -1.94689,0.52256 -3.16361,0.49636 -4.55017,-0.098 -1.4568,-0.62447 -1.75519,-1.27068 -2.05629,-4.45314 -0.14809,-1.56533 -0.40541,-2.75572 -0.68934,-3.18907 l -0.45305,-0.69144 -0.60654,0.70514 c -0.35765,0.41579 -0.67399,1.22288 -0.77093,1.96687 -0.3826,2.93648 -0.71433,3.84626 -1.78521,4.89593 -0.83982,0.82319 -1.21065,1.00967 -1.8786,0.94467 -1.06018,-0.10317 -1.37383,-0.75055 -1.70568,-3.52055 -0.32313,-2.69718 -0.85378,-3.94984 -1.95858,-4.62342 -0.4817,-0.29368 -0.71996,-0.53441 -0.52947,-0.53495 0.69615,-0.002 0.0104,-0.50097 -1.2755,-0.92807 -0.72589,-0.24112 -1.31981,-0.60001 -1.31981,-0.79756 0,-0.19754 -0.53919,-0.74639 -1.19821,-1.21966 -0.68124,-0.48923 -1.26958,-1.15271 -1.36365,-1.53779 -0.21789,-0.892 -0.52203,-1.06528 -1.87821,-1.07013 -0.76567,-0.003 -1.18214,0.12457 -1.28508,0.39282 -0.0838,0.21828 -0.47025,0.39688 -0.85887,0.39688 -1.10222,0 -1.79139,0.64605 -1.98575,1.8615 -0.18991,1.18765 -1.75824,5.25005 -2.41207,6.24791 -0.22492,0.34327 -0.85074,0.83214 -1.39073,1.0864 -0.56176,0.26452 -1.01998,0.68851 -1.07105,0.99104 -0.0491,0.29081 -0.75441,1.15383 -1.56738,1.9178 l -1.47811,1.38907 h -2.190871 c -1.20498,0 -2.2549,-0.1036 -2.33316,-0.23021 -0.0783,-0.12663 -0.85105,-0.49529 -1.71732,-0.81926 -0.96611,-0.3613 -1.52736,-0.71325 -1.45173,-0.91033 0.0756,-0.19701 -0.51962,-0.57101 -1.53848,-0.9667 -1.44139,-0.55977 -1.68058,-0.75063 -1.80356,-1.43911 -0.12571,-0.70373 -0.24052,-0.78908 -1.01249,-0.75262 -0.88769,0.0419 -1.97575,1.05549 -3.32708,3.0993 -1.18487,1.79207 -5.62591,3.190357 -9.62997,3.03206 -2.14544,-0.0848 -2.22595,-0.11197 -3.07348,-1.03679 -0.47868,-0.52233 -1.07981,-1.5939 -1.33584,-2.38124 -0.56044,-1.72347 -1.57105,-3.15132 -2.23045,-3.15132 -0.37577,0 -0.51881,0.28034 -0.65083,1.27557 -0.25757,1.9416 -1.41073,3.54607 -3.16577,4.40472 -1.60069,0.78314 -2.61044,0.75356 -3.87694,-0.11359 -1.18069,-0.80839 -1.26841,-0.81593 -2.03066,-0.17454 -1.04134,0.87623 -2.47812,1.219187 -5.11484,1.220907 -2.82059,0.002 -3.73947,-0.260547 -5.04607,-1.440977 -1.13762,-1.02777 -2.270821,-1.23999 -2.540541,-0.47577 -0.34843,0.98725 -1.31995,1.69219 -3.06084,2.220967 -1.47564,0.44822 -2.16022,0.51466 -3.71579,0.36063 -1.04879,-0.10384 -3.64827,-0.16474 -5.77662,-0.13533 -3.54557,0.049 -4.04124,-0.004 -5.91708,-0.634147 -1.12604,-0.3782 -2.2496,-0.68764 -2.49678,-0.68764 -0.24719,0 -1.51357,0.36037 -2.81417,0.800827 -4.51882,1.5303 -9.68476,2.25335 -13.08036,1.83077 z M -6.6979216,-36.467503 c 0.51356,-0.32529 0.12475,-0.81928 -0.64482,-0.81928 -0.46946,0 -0.64585,0.14452 -0.64585,0.52916 0,0.56016 0.63793,0.70356 1.29067,0.29012 z"
       id="path130"
       sodipodi:nodetypes="cssccsssssssscssssssssssssssssscssssssssscsssscssssscssssccccssssssscsssssssssssssssssssssssssssssssssssssssssssssssssssscsssssssssssssssssssssscsssssssssssscsssssssssssssssssssssssssssssssssssssssssssssssssssssssssscsssscsssscssssssssssscssssssscsssssssssssssssscssssssssccssss" />
    <rect
       style="fill:#1a1a1a;stroke:none;stroke-width:1"
       id="rect843"
       width="107.096"
       height="107.096"
       x="17.81661"
       y="66.467903"
       ry="0.97945839"
       inkscape:export-xdpi="100"
       inkscape:export-ydpi="100"
       inkscape:export-filename="C:\Users\yann.zerlaut\physion\doc\icon-small.png" />
    <path
       style="fill:#808080;stroke:none;stroke-width:0.162618px;stroke-linecap:butt;stroke-linejoin:miter;stroke-opacity:1"
       d="M 31.969054,90.478386 31.78989,139.74771 107.5563,114.83653 113.64819,72.873534 Z"
       id="path845"
       inkscape:export-xdpi="100"
       inkscape:export-ydpi="100"
       inkscape:export-filename="C:\Users\yann.zerlaut\physion\doc\icon-small.png" />
    <path
       style="fill:#cccccc;fill-opacity:1;stroke:#cccccc;stroke-width:0.792586;stroke-miterlimit:4;stroke-dasharray:none"
       d="m 44.583505,164.95047 c -1.708312,-0.4882 -2.922614,-2.27853 -3.069356,-4.5254 -0.09318,-1.42772 -0.153986,-1.55511 -0.758103,-1.58952 -0.8565,-0.0487 -1.135274,-0.9841 -1.139576,-3.82339 -0.0029,-1.85451 -0.06472,-2.01096 -0.79905,-2.01977 -0.336571,-0.005 -0.751167,-0.0859 -0.921339,-0.1819 -0.287898,-0.16244 -0.311579,-0.13121 -0.340815,0.44935 -0.04601,0.91393 -0.385563,1.2397 -1.157132,1.11012 -0.351377,-0.059 -0.685286,-0.0392 -0.742023,0.0439 -0.108998,0.15967 -0.597057,2.70255 -0.684814,3.56788 -0.05932,0.585 -0.226513,0.82586 -0.712855,1.02699 -0.475162,0.19648 -0.748534,0.68946 -0.824852,1.48739 -0.140858,1.47263 -0.750946,2.44395 -1.830303,2.91398 -0.992602,0.43229 -1.624789,-0.57782 -1.62559,-2.59738 -3.76e-4,-1.1378 -0.185238,-1.77216 -0.458224,-1.57319 -0.173924,0.12675 -0.397359,0.95531 -0.741242,2.74862 -0.105101,0.54803 -0.706392,1.18556 -1.118191,1.18556 -0.600983,0 -0.813683,-0.84806 -1.185346,-4.72615 -0.132871,-1.38644 -0.273632,-2.29423 -0.394764,-2.54598 -0.237075,-0.49266 -0.25573,-0.37333 -0.327996,2.09805 -0.09463,3.2374 -0.645797,5.10608 -1.625918,5.51266 -0.461562,0.19147 -1.105806,-0.22436 -1.324833,-0.85511 -0.254332,-0.73236 -0.624769,-1.27229 -0.872898,-1.27229 -0.172072,0 -0.212064,0.11756 -0.197431,0.58041 0.01196,0.37905 -0.05556,0.69561 -0.194768,0.91252 -0.203218,0.31675 -0.222741,0.28868 -0.421445,-0.60571 -0.201993,-0.90926 -0.203401,-0.97257 -0.04611,-2.0768 0.399047,-2.80161 0.871306,-4.14443 1.358748,-3.86349 0.308946,0.17806 0.431168,0.71967 0.550187,2.43792 0.05373,0.77477 0.201116,1.75279 0.334556,2.21904 0.131222,0.45856 0.238579,0.9365 0.238579,1.06212 0,0.28934 0.207135,0.29154 0.534533,0.006 0.380518,-0.33222 0.60186,-1.74794 0.773662,-4.94855 0.180405,-3.36085 0.386218,-4.94615 0.750859,-5.78348 0.293715,-0.67444 0.741213,-1.0399 0.880807,-0.71933 0.09106,0.20914 0.563248,4.57077 0.85053,7.85675 0.166342,1.90274 0.322151,2.45146 0.621258,2.1879 0.342465,-0.30179 0.458243,-1.23241 0.69771,-5.60859 0.367245,-6.71093 0.426914,-7.03252 1.277405,-6.88443 0.411519,0.0717 0.602121,1.92197 0.72878,7.07541 0.05141,2.09264 0.139932,4.13149 0.196668,4.53079 0.126341,0.88915 0.424628,1.39921 0.815901,1.39516 0.605401,-0.006 0.716009,-0.19568 0.882573,-1.51134 0.440177,-3.47697 0.697797,-4.29928 1.346922,-4.29928 0.520131,0 0.746962,-0.59888 0.884,-2.33403 0.03829,-0.48434 0.198106,-1.4654 0.355227,-2.18014 0.243933,-1.10967 0.324591,-1.29903 0.552049,-1.29611 0.317724,0.005 0.461138,0.21166 0.461138,0.66739 0,0.22732 0.119839,0.35807 0.371932,0.40574 0.344867,0.0652 0.36439,0.0379 0.268135,-0.37511 -0.137424,-0.58966 -0.03829,-1.12217 0.238657,-1.28178 0.12336,-0.071 0.382263,-0.53334 0.575324,-1.02718 l 0.351031,-0.89792 0.801509,0.16022 c 0.440843,0.0881 0.876708,0.25107 0.968613,0.36211 0.09183,0.11104 0.213424,0.62783 0.270016,1.1484 0.05652,0.52058 0.153513,1.14776 0.215323,1.39372 0.3053,1.21462 0.368837,1.63258 0.369406,2.42979 l 7.33e-4,0.86456 0.617891,-0.15195 0.617902,-0.15194 0.248177,2.08243 c 0.136478,1.14533 0.304817,2.58094 0.374064,3.19022 0.06993,0.61614 0.262897,1.45966 0.434564,1.90062 0.169776,0.43606 0.384183,1.32109 0.476474,1.96675 0.159802,1.11789 0.184013,1.17391 0.507196,1.17391 0.389045,0 0.748602,-0.36909 0.664375,-0.68202 -0.06926,-0.25715 1.644727,-0.26446 2.318564,-0.01 0.255971,0.0967 0.685113,0.0961 0.953634,-0.002 0.674695,-0.24491 1.556024,-1.20432 1.619657,-1.76315 0.06984,-0.61386 0.19228,-0.5811 1.602257,0.42902 1.606356,1.1508 1.811223,1.2278 2.223919,0.8359 0.187457,-0.17801 0.527067,-0.39406 0.75467,-0.48012 0.341741,-0.12921 0.413834,-0.0946 0.413834,0.19859 0,0.28212 0.112152,0.35506 0.545992,0.35506 0.431129,0 0.534841,-0.0667 0.493017,-0.31691 -0.05238,-0.31296 0.119,-0.57751 0.373939,-0.57751 0.218207,0 0.448636,0.68285 0.385234,1.14158 -0.04659,0.33653 -0.0099,0.42364 0.178313,0.42364 0.390163,0 0.712353,-0.79379 1.122117,-2.76463 0.213442,-1.02663 0.454877,-1.92546 0.53651,-1.99741 0.0817,-0.072 0.16257,-0.41345 0.179817,-0.75891 0.02836,-0.56912 0.07147,-0.63472 0.458436,-0.69836 0.234895,-0.0386 0.469819,0.028 0.522099,0.14796 0.05228,0.12002 0.10894,0.79314 0.125936,1.49583 0.02807,1.15678 0.06781,1.35877 0.419603,2.13527 0.21378,0.47169 0.502026,0.92295 0.64053,1.00278 0.32625,0.18803 0.720253,-0.39588 0.851793,-1.26232 0.121653,-0.80136 0.178476,-0.80727 0.664259,-0.069 0.303669,0.46145 0.452495,0.5534 0.703874,0.43488 0.175351,-0.0827 0.64625,-0.20718 1.046436,-0.27672 0.687303,-0.11942 0.719722,-0.10455 0.585019,0.26819 -0.131338,0.36338 -0.123419,0.38116 0.100056,0.22485 0.332433,-0.23255 0.672371,-0.98489 0.826376,-1.82892 0.0707,-0.3874 0.221477,-2.11358 0.335076,-3.83597 0.225133,-3.41341 0.414616,-4.96165 0.669342,-5.4692 0.240876,-0.47993 0.659822,-0.65783 0.777106,-0.32998 0.05459,0.15254 0.215709,1.98792 0.358091,4.07862 0.286413,4.20536 0.390414,5.16875 0.624065,5.7802 0.08691,0.22755 0.245727,0.83128 0.352844,1.34162 0.255652,1.21807 0.684187,1.70969 1.490712,1.71014 0.354397,2.1e-4 0.590633,-0.0877 0.558319,-0.20779 -0.06675,-0.24802 0.05566,-0.44849 0.578653,-0.94744 0.215005,-0.20512 0.37962,-0.48422 0.365807,-0.62018 -0.01379,-0.13598 0.128068,-0.55605 0.315274,-0.93349 0.194189,-0.39153 0.390289,-1.06882 0.456594,-1.57706 0.06482,-0.49695 0.253212,-1.15509 0.426056,-1.48858 0.402385,-0.77638 0.500328,-1.23714 0.680126,-3.19995 0.08199,-0.89398 0.220137,-1.80622 0.307229,-2.02717 0.188971,-0.47952 0.451241,-0.51947 0.605661,-0.0922 0.09086,0.2512 0.398208,3.52078 0.398719,4.24054 6.7e-5,0.10438 0.131164,0.47088 0.291342,0.81445 0.160159,0.34356 0.346381,1.01092 0.413834,1.48302 0.0925,0.64776 0.22604,0.98932 0.544111,1.3921 0.231808,0.29355 0.611892,0.99002 0.844588,1.54772 0.404449,0.96919 0.435865,1.00187 0.711243,0.73994 0.395093,-0.3758 0.750995,-1.30338 0.893907,-2.32983 0.08816,-0.63324 0.230766,-1.01272 0.543455,-1.44643 0.405259,-0.5621 0.536095,-0.97265 0.868866,-2.72618 0.0817,-0.43044 0.233091,-1.08447 0.336484,-1.45341 0.103394,-0.36896 0.30749,-1.57642 0.453547,-2.68325 l 0.265558,-2.01243 0.07215,-22.13676 c 0.04968,-15.21659 0.107744,-22.58517 0.185846,-23.57103 0.125839,-1.5885 0.369522,-3.149677 0.491589,-3.149677 0.285555,0 0.403128,7.313677 0.441393,27.455207 0.01939,10.24255 0.06154,18.71993 0.09347,18.8386 0.123186,0.4577 0.348792,0.1805 0.506829,-0.62273 0.09077,-0.46119 0.228288,-1.01461 0.305647,-1.22982 0.196322,-0.54614 0.635023,-0.48778 0.945647,0.12578 0.237383,0.46886 0.269282,0.72114 0.342176,2.70499 0.04427,1.20334 0.131405,2.32904 0.193745,2.50156 0.06231,0.1725 0.250415,0.31463 0.417915,0.31584 0.584864,0.005 1.911222,1.80873 1.911222,2.60023 0,0.62564 0.296917,1.64605 0.478953,1.64605 0.19881,0 0.300043,-0.41682 0.300043,-1.23542 0,-1.64006 1.422661,-1.58806 1.786588,0.0653 0.13288,0.60366 0.566354,4.46685 0.69581,6.2012 0.0844,1.13072 0.186309,1.40826 0.579183,1.57751 0.71787,0.30924 1.680117,-0.92488 1.587614,-2.03616 -0.05276,-0.63326 0.02411,-0.66697 0.669603,-0.29376 0.296966,0.1717 0.470928,0.18038 0.537783,0.0269 0.0544,-0.12483 0.241618,-1.75225 0.416149,-3.6165 0.174532,-1.86424 0.367313,-3.50435 0.428419,-3.64468 0.132775,-0.30489 2.153457,-1.2802 2.667724,-1.2876 0.417818,-0.006 0.506077,-0.27563 0.605496,-1.84935 0.08459,-1.33886 0.220031,-1.50991 1.195638,-1.50991 0.791091,0 1.196563,-0.3469 1.196563,-1.02368 0,-0.18014 0.107746,-0.44027 0.23944,-0.57806 0.36269,-0.37947 0.69007,0.2061 0.77186,1.38057 0.0783,1.12482 0.43297,1.93389 1.29907,2.96364 0.72499,0.86199 0.7741,1.10058 0.90823,4.41284 0.23686,5.84934 0.34153,6.84242 0.7457,7.07537 0.49505,0.2853 0.89092,-1.35632 1.18441,-4.91155 0.22565,-2.73357 0.40456,-3.73034 0.81027,-4.51425 0.36726,-0.70963 0.9022,-0.74751 1.20902,-0.0856 0.21084,0.45483 0.24681,0.46074 1.06002,0.17425 l 0.8418,-0.29655 0.3373,-1.67645 c 0.18552,-0.92204 0.36329,-1.91415 0.39505,-2.20473 0.0783,-0.71703 0.24327,-0.81544 0.73544,-0.43894 0.34021,0.26025 0.42621,0.43926 0.4667,0.9714 0.0451,0.59271 0.0851,0.65237 0.43819,0.65237 0.35838,0 0.39698,-0.0607 0.49741,-0.78261 0.13418,-0.96456 0.57242,-1.64385 0.72128,-1.11802 0.18784,0.66349 0.29785,2.05411 0.38563,4.87459 0.20993,6.74486 0.71853,10.0897 1.4528,9.55453 0.20888,-0.15222 0.1808,0.24542 0.64246,-9.10018 0.35429,-7.17232 0.42421,-7.83488 0.85407,-8.093 0.25374,-0.15238 0.61621,0.3429 0.70125,0.95818 0.0336,0.24313 0.20696,0.64903 0.3852,0.90202 0.57291,0.81308 0.812,2.7914 1.42657,11.80453 0.21711,3.18419 0.21743,3.18634 0.47865,3.18634 0.14378,0 0.47652,-0.14985 0.73942,-0.33298 0.66346,-0.46218 0.98511,-0.43051 1.11094,0.10937 0.19881,0.85302 1.26586,0.37166 1.26586,-0.57103 0,-0.17716 0.1474,-0.69971 0.32754,-1.16124 0.43355,-1.11072 0.55387,-1.70219 0.97215,-4.77837 0.36069,-2.65276 0.58423,-3.52124 0.71104,-2.76245 0.0876,0.52381 -0.10939,3.8205 -0.35884,6.00751 -0.25179,2.20752 -0.50087,3.34014 -0.87367,3.97308 -0.16024,0.27204 -0.29135,0.61678 -0.29135,0.7661 0,0.45164 -0.56885,0.76244 -1.39552,0.76244 -0.43022,0 -1.1711,0.11451 -1.64643,0.25449 -1.03161,0.3038 -1.24345,0.13147 -1.526,-1.2414 -0.10345,-0.50255 -0.26438,-2.00553 -0.35766,-3.33994 -0.11883,-1.69997 -0.23773,-2.65674 -0.39716,-3.19628 -0.12803,-0.43321 -0.22757,-1.10227 -0.22757,-1.52953 0,-0.91297 -0.0951,-1.08546 -0.43472,-0.78891 -0.30464,0.26596 -0.51801,1.32015 -0.65481,3.23496 -0.29767,4.1667 -0.35877,4.6555 -0.6758,5.40663 -0.57486,1.36194 -1.26237,1.77115 -1.83442,1.09186 -0.4617,-0.54827 -0.76254,-2.28674 -1.30651,-7.55029 -0.0349,-0.33819 -0.10236,-0.61491 -0.14977,-0.61491 -0.0474,0 -0.21932,0.5415 -0.38198,1.20335 -0.43283,1.76118 -1.03123,2.67357 -1.24138,1.89278 -0.0382,-0.14187 -0.10231,-1.08642 -0.1425,-2.09898 -0.0901,-2.26842 -0.21112,-2.89428 -0.49298,-2.54789 -0.10909,0.13407 -0.24126,0.52643 -0.29371,0.87192 -0.0957,0.63049 -0.37309,0.90243 -0.92044,0.90243 -0.2444,0 -0.42943,0.57412 -0.42943,1.33245 0,0.41915 -0.3129,0.90358 -0.58364,0.90358 -0.1966,0 -0.39011,-0.76214 -0.39011,-1.53648 0,-0.94388 -0.13774,-1.37037 -0.44257,-1.37037 -0.3266,0 -0.50089,0.6633 -0.57225,2.1779 -0.0839,1.78128 -0.1991,2.55141 -0.61795,4.13238 -0.3858,1.45626 -0.90741,2.1897 -1.67823,2.35977 -0.84981,0.18751 -1.0834,-0.56889 -1.30743,-4.23361 -0.16794,-2.74725 -0.25799,-3.36018 -0.64068,-4.36104 -0.15735,-0.41151 -0.35613,-1.30151 -0.44174,-1.97776 -0.0882,-0.69563 -0.2344,-1.32634 -0.33699,-1.45243 -0.24495,-0.30101 -0.973173,-0.28498 -0.973173,0.0215 0,0.16156 -0.173096,0.20181 -0.511201,0.11883 -1.239902,-0.30432 -1.168967,-0.33711 -1.391708,0.64309 -0.111785,0.49192 -0.352545,1.12582 -0.534995,1.40865 -0.18247,0.28283 -0.358632,0.61408 -0.391466,0.73613 -0.03945,0.14649 -0.205803,0.14456 -0.489631,-0.006 -0.705331,-0.37334 -0.716105,-0.3595 -0.961321,1.23563 -0.240142,1.56201 -0.609452,2.77435 -0.845138,2.77435 -0.208378,0 -0.597876,1.05251 -0.670519,1.81185 -0.07755,0.81174 -0.464513,1.89615 -0.832241,2.33282 -0.151632,0.18007 -0.50791,0.32858 -0.791747,0.33004 -0.283819,0.002 -0.757052,0.1512 -1.051616,0.33275 -0.716491,0.44162 -1.164288,0.41948 -1.67459,-0.0828 -0.536144,-0.52774 -0.645961,-1.07387 -0.756772,-3.76342 -0.0544,-1.32288 -0.149202,-2.3289 -0.253685,-2.69513 l -0.166747,-0.58435 -0.223224,0.59593 c -0.131627,0.35138 -0.248042,1.03347 -0.283722,1.66223 -0.140819,2.48166 -0.262897,3.25053 -0.657025,4.13763 -0.309071,0.69569 -0.445549,0.85329 -0.691363,0.79836 -0.390173,-0.0872 -0.505624,-0.6343 -0.62775,-2.97528 -0.118923,-2.27943 -0.314212,-3.33807 -0.720812,-3.90732 -0.177281,-0.2482 -0.264971,-0.45164 -0.194865,-0.4521 0.256203,-0.002 0.0039,-0.42338 -0.469423,-0.78433 -0.267141,-0.20378 -0.485725,-0.50707 -0.485725,-0.67403 0,-0.16694 -0.198443,-0.63079 -0.440968,-1.03075 -0.250723,-0.41346 -0.467253,-0.97418 -0.501872,-1.29962 -0.08025,-0.75384 -0.192125,-0.90028 -0.691238,-0.90438 -0.281783,-0.003 -0.435055,0.10527 -0.472944,0.33198 -0.03087,0.18447 -0.173065,0.3354 -0.316093,0.3354 -0.405655,0 -0.659282,0.54599 -0.730815,1.57319 -0.06984,1.00371 -0.64708,4.4369 -0.887714,5.28021 -0.08286,0.2901 -0.313103,0.70326 -0.511826,0.91814 -0.206749,0.22355 -0.375386,0.58187 -0.394186,0.83754 -0.01813,0.24577 -0.277645,0.97512 -0.576839,1.62077 l -0.543995,1.17392 h -0.806294 c -0.443466,0 -0.829877,-0.0875 -0.85868,-0.19455 -0.02884,-0.10702 -0.313209,-0.41858 -0.632032,-0.69238 -0.355545,-0.30533 -0.56211,-0.60277 -0.534272,-0.76933 0.02778,-0.16649 -0.191228,-0.48257 -0.566209,-0.81697 -0.530462,-0.47307 -0.6185,-0.63437 -0.663758,-1.21622 -0.0463,-0.59473 -0.08855,-0.66686 -0.372627,-0.63605 -0.326694,0.0354 -0.727131,0.89201 -1.224469,2.61927 -0.436058,1.51451 -2.070493,2.69623 -3.544103,2.56245 -0.789587,-0.0717 -0.819219,-0.0946 -1.131136,-0.87621 -0.176171,-0.44144 -0.397398,-1.34704 -0.491638,-2.01243 -0.206246,-1.45653 -0.578179,-2.66323 -0.820868,-2.66323 -0.138292,0 -0.190939,0.23692 -0.239515,1.07801 -0.09482,1.64087 -0.519196,2.99684 -1.165108,3.72249 -0.589099,0.66185 -0.960714,0.63685 -1.426819,-0.096 -0.434534,-0.68319 -0.466819,-0.68955 -0.747338,-0.14751 -0.383248,0.74052 -0.912031,1.03036 -1.88242,1.03181 -1.038063,0.002 -1.376245,-0.22019 -1.857108,-1.21779 -0.418677,-0.86859 -0.835713,-1.04793 -0.934998,-0.40209 -0.128231,0.83435 -0.485773,1.43011 -1.126467,1.87698 -0.543088,0.3788 -0.795027,0.43495 -1.367526,0.30478 -0.385987,-0.0877 -1.342678,-0.13922 -2.125966,-0.11437 -1.304886,0.0414 -1.487298,-0.004 -2.177668,-0.53593 -0.414423,-0.31963 -0.827929,-0.58113 -0.918899,-0.58113 -0.09106,0 -0.557026,0.30455 -1.03569,0.67679 -1.663064,1.29328 -3.564283,1.90434 -4.813975,1.54721 z m -6.535946,-12.93538 c 0.189,-0.27491 0.04601,-0.69239 -0.237316,-0.69239 -0.172776,0 -0.237702,0.12214 -0.237702,0.4472 0,0.47341 0.234779,0.59459 0.475018,0.24519 z"
       id="path847"
       sodipodi:nodetypes="cssccsssssssscssssssssssssssssscssssssssscsssscssssscssssccccssssssscsssssssssssssssssssssssssssssssssssssssssssssssssssscsssssssssssssssssssssscsssssssssssscsssssssssssssssssssssssssssssssssssssssssssssssssssssssssscsssscsssscssssssssssscssssssscsssssssssssssssscssssssssccssss"
       inkscape:export-xdpi="100"
       inkscape:export-ydpi="100"
       inkscape:export-filename="C:\Users\yann.zerlaut\physion\doc\icon-small.png" />
    <ellipse
       style="fill:#ececec;stroke:none;stroke-width:0.0988348"
       id="ellipse849"
       transform="matrix(0.70362897,0.71056757,-0.71069306,0.70350222,0,0)"
       cx="114.78917"
       cy="36.031933"
       rx="8.5650005"
       ry="11.524714"
       inkscape:export-xdpi="100"
       inkscape:export-ydpi="100"
       inkscape:export-filename="C:\Users\yann.zerlaut\physion\doc\icon-small.png" />
    <ellipse
       style="fill:#999999;stroke:none;stroke-width:0.0889952"
       id="ellipse851"
       cx="117.94424"
       cy="70.474419"
       rx="2.0953205"
       ry="12.186643"
       transform="matrix(0.88040839,0.47421627,-0.68911594,0.7246511,0,0)"
       inkscape:export-xdpi="100"
       inkscape:export-ydpi="100"
       inkscape:export-filename="C:\Users\yann.zerlaut\physion\doc\icon-small.png" />
    <ellipse
       style="fill:#999999;stroke:none;stroke-width:0.0479216"
       id="ellipse853"
       cx="120.10236"
       cy="53.632023"
       rx="1.59753"
       ry="8.4223061"
       transform="matrix(0.80158025,0.5978872,-0.68728829,0.72638475,0,0)"
       inkscape:export-xdpi="100"
       inkscape:export-ydpi="100"
       inkscape:export-filename="C:\Users\yann.zerlaut\physion\doc\icon-small.png" />
    <ellipse
       style="fill:#999999;stroke:none;stroke-width:0.0479216"
       id="ellipse855"
       cx="108.71299"
       cy="52.297207"
       rx="1.59753"
       ry="8.4223061"
       transform="matrix(0.80158025,0.5978872,-0.68728829,0.72638475,0,0)"
       inkscape:export-xdpi="100"
       inkscape:export-ydpi="100"
       inkscape:export-filename="C:\Users\yann.zerlaut\physion\doc\icon-small.png" />
  </g>
</svg>
